<?xml version="1.0" encoding="UTF-8" standalone="no"?>
<!DOCTYPE svg PUBLIC "-//W3C//DTD SVG 1.1//EN"
 "http://www.w3.org/Graphics/SVG/1.1/DTD/svg11.dtd">
<!-- Generated by graphviz version 2.40.1 (20161225.0304)
 -->
<!-- Title: UmlClassDiagram Pages: 1 -->
<svg width="2895pt" height="659pt"
 viewBox="0.00 0.00 2894.59 659.00" xmlns="http://www.w3.org/2000/svg" xmlns:xlink="http://www.w3.org/1999/xlink">
<g id="graph0" class="graph" transform="scale(1 1) rotate(0) translate(4 655)">
<title>UmlClassDiagram</title>
<polygon fill="#ffffff" stroke="transparent" points="-4,4 -4,-655 2890.5927,-655 2890.5927,4 -4,4"/>
<!-- 0 -->
<g id="node1" class="node">
<title>0</title>
<polygon fill="#f2f2f2" stroke="#000000" points="585.0136,-.5 585.0136,-226.1 1441.6534,-226.1 1441.6534,-.5 585.0136,-.5"/>
<text text-anchor="middle" x="1013.3335" y="-209.5" font-family="Times,serif" font-size="14.00" fill="#000000">CollectionFactory</text>
<polyline fill="none" stroke="#000000" points="585.0136,-201.3 1441.6534,-201.3 "/>
<text text-anchor="middle" x="1013.3335" y="-184.7" font-family="Times,serif" font-size="14.00" fill="#000000"> </text>
<polyline fill="none" stroke="#000000" points="585.0136,-176.5 1441.6534,-176.5 "/>
<text text-anchor="start" x="593.0136" y="-159.9" font-family="Times,serif" font-size="14.00" fill="#000000">Internal:</text>
<text text-anchor="start" x="593.0136" y="-143.1" font-family="Times,serif" font-size="14.00" fill="#000000"> &#160;&#160;&#160;_authorizeUpgrade(newImplementation: address)</text>
<text text-anchor="start" x="593.0136" y="-126.3" font-family="Times,serif" font-size="14.00" fill="#000000">External:</text>
<text text-anchor="start" x="593.0136" y="-109.5" font-family="Times,serif" font-size="14.00" fill="#000000"> &#160;&#160;&#160;collectionRegistry(): address</text>
<text text-anchor="start" x="593.0136" y="-92.7" font-family="Times,serif" font-size="14.00" fill="#000000"> &#160;&#160;&#160;featureRegistry(): address</text>
<text text-anchor="start" x="593.0136" y="-75.9" font-family="Times,serif" font-size="14.00" fill="#000000"> &#160;&#160;&#160;createCollectionContract(name: string, symbol: string, salt: bytes32)</text>
<text text-anchor="start" x="593.0136" y="-59.1" font-family="Times,serif" font-size="14.00" fill="#000000">Public:</text>
<text text-anchor="start" x="593.0136" y="-42.3" font-family="Times,serif" font-size="14.00" fill="#000000"> &#160;&#160;&#160;&lt;&lt;event&gt;&gt; CollectionCreated(collectionAddress: address, ownerAddress: address, name: string, symbol: string, salt: bytes32)</text>
<text text-anchor="start" x="593.0136" y="-25.5" font-family="Times,serif" font-size="14.00" fill="#000000"> &#160;&#160;&#160;&lt;&lt;event&gt;&gt; CollectionCreated(collectionAddress: address, ownerAddress: address, name: string, symbol: string, metadataCID: string, salt: bytes32)</text>
<text text-anchor="start" x="593.0136" y="-8.7" font-family="Times,serif" font-size="14.00" fill="#000000"> &#160;&#160;&#160;initialize(featureRegistry_: address, collectionProxyImplementation: address)</text>
</g>
<!-- 1 -->
<g id="node2" class="node">
<title>1</title>
<polygon fill="#f2f2f2" stroke="#000000" points="29.344,-296.7 29.344,-421.5 213.323,-421.5 213.323,-296.7 29.344,-296.7"/>
<text text-anchor="middle" x="121.3335" y="-404.9" font-family="Times,serif" font-size="14.00" fill="#000000">&lt;&lt;Library&gt;&gt;</text>
<text text-anchor="middle" x="121.3335" y="-388.1" font-family="Times,serif" font-size="14.00" fill="#000000">CollectionFactoryStorage</text>
<polyline fill="none" stroke="#000000" points="29.344,-379.9 213.323,-379.9 "/>
<text text-anchor="start" x="37.344" y="-363.3" font-family="Times,serif" font-size="14.00" fill="#000000">Internal:</text>
<text text-anchor="start" x="37.344" y="-346.5" font-family="Times,serif" font-size="14.00" fill="#000000"> &#160;&#160;STORAGE_SLOT: bytes32</text>
<polyline fill="none" stroke="#000000" points="29.344,-338.3 213.323,-338.3 "/>
<text text-anchor="start" x="37.344" y="-321.7" font-family="Times,serif" font-size="14.00" fill="#000000">Internal:</text>
<text text-anchor="start" x="37.344" y="-304.9" font-family="Times,serif" font-size="14.00" fill="#000000"> &#160;&#160;&#160;layout(): (l: Layout)</text>
</g>
<!-- 0&#45;&gt;1 -->
<g id="edge3" class="edge">
<title>0&#45;&gt;1</title>
<path fill="none" stroke="#000000" stroke-dasharray="5,2" d="M584.9939,-172.1004C435.3278,-197.3015 288.2546,-228.7331 222.3335,-262.6 208.5311,-269.6909 195.3188,-279.2656 183.2639,-289.6394"/>
<polygon fill="#000000" stroke="#000000" points="180.646,-287.2845 175.5146,-296.5538 185.3064,-292.5076 180.646,-287.2845"/>
</g>
<!-- 2 -->
<g id="node4" class="node">
<title>2</title>
<polygon fill="#f2f2f2" stroke="#000000" points="231.3811,-263.1 231.3811,-455.1 583.2859,-455.1 583.2859,-263.1 231.3811,-263.1"/>
<text text-anchor="middle" x="407.3335" y="-438.5" font-family="Times,serif" font-size="14.00" fill="#000000">CollectionProxy</text>
<polyline fill="none" stroke="#000000" points="231.3811,-430.3 583.2859,-430.3 "/>
<text text-anchor="middle" x="407.3335" y="-413.7" font-family="Times,serif" font-size="14.00" fill="#000000"> </text>
<polyline fill="none" stroke="#000000" points="231.3811,-405.5 583.2859,-405.5 "/>
<text text-anchor="start" x="239.3811" y="-388.9" font-family="Times,serif" font-size="14.00" fill="#000000">Private:</text>
<text text-anchor="start" x="239.3811" y="-372.1" font-family="Times,serif" font-size="14.00" fill="#000000"> &#160;&#160;&#160;staticcallSupportsInterfaceOnFeatureRegistry()</text>
<text text-anchor="start" x="239.3811" y="-355.3" font-family="Times,serif" font-size="14.00" fill="#000000">Internal:</text>
<text text-anchor="start" x="239.3811" y="-338.5" font-family="Times,serif" font-size="14.00" fill="#000000"> &#160;&#160;&#160;_getImplementation(): (implementationAddress: address)</text>
<text text-anchor="start" x="239.3811" y="-321.7" font-family="Times,serif" font-size="14.00" fill="#000000">External:</text>
<text text-anchor="start" x="239.3811" y="-304.9" font-family="Times,serif" font-size="14.00" fill="#000000"> &#160;&#160;&#160;&lt;&lt;payable&gt;&gt; null()</text>
<text text-anchor="start" x="239.3811" y="-288.1" font-family="Times,serif" font-size="14.00" fill="#000000"> &#160;&#160;&#160;&lt;&lt;payable&gt;&gt; null()</text>
<text text-anchor="start" x="239.3811" y="-271.3" font-family="Times,serif" font-size="14.00" fill="#000000"> &#160;&#160;&#160;__CollectionProxy_initialize(_featureRegistry: address)</text>
</g>
<!-- 0&#45;&gt;2 -->
<g id="edge6" class="edge">
<title>0&#45;&gt;2</title>
<path fill="none" stroke="#000000" stroke-dasharray="5,2" d="M681.2599,-226.1281C653.5787,-236.8875 626.1131,-248.0354 592.8551,-262.4353"/>
<polygon fill="#000000" stroke="#000000" points="591.0894,-259.3865 583.316,-266.5854 593.8821,-265.8054 591.0894,-259.3865"/>
</g>
<!-- 4 -->
<g id="node7" class="node">
<title>4</title>
<polygon fill="#f2f2f2" stroke="#000000" points="601.1781,-279.9 601.1781,-438.3 869.4889,-438.3 869.4889,-279.9 601.1781,-279.9"/>
<text text-anchor="middle" x="735.3335" y="-421.7" font-family="Times,serif" font-size="14.00" fill="#000000">CollectionRegistry</text>
<polyline fill="none" stroke="#000000" points="601.1781,-413.5 869.4889,-413.5 "/>
<text text-anchor="start" x="609.1781" y="-396.9" font-family="Times,serif" font-size="14.00" fill="#000000">Public:</text>
<text text-anchor="start" x="609.1781" y="-380.1" font-family="Times,serif" font-size="14.00" fill="#000000"> &#160;&#160;registry: mapping(address=&gt;bool)</text>
<text text-anchor="start" x="609.1781" y="-363.3" font-family="Times,serif" font-size="14.00" fill="#000000"> &#160;&#160;collectionFactory: address</text>
<polyline fill="none" stroke="#000000" points="601.1781,-355.1 869.4889,-355.1 "/>
<text text-anchor="start" x="609.1781" y="-338.5" font-family="Times,serif" font-size="14.00" fill="#000000">External:</text>
<text text-anchor="start" x="609.1781" y="-321.7" font-family="Times,serif" font-size="14.00" fill="#000000"> &#160;&#160;&#160;addCollection(collectionAddress: address)</text>
<text text-anchor="start" x="609.1781" y="-304.9" font-family="Times,serif" font-size="14.00" fill="#000000">Public:</text>
<text text-anchor="start" x="609.1781" y="-288.1" font-family="Times,serif" font-size="14.00" fill="#000000"> &#160;&#160;&#160;constructor(collectionFactory_: address)</text>
</g>
<!-- 0&#45;&gt;4 -->
<g id="edge4" class="edge">
<title>0&#45;&gt;4</title>
<path fill="none" stroke="#000000" stroke-dasharray="5,2" d="M885.7245,-226.1284C868.0239,-241.7788 850.0754,-257.6484 833.0373,-272.713"/>
<polygon fill="#000000" stroke="#000000" points="830.4504,-270.3283 825.2772,-279.5743 835.0872,-275.5724 830.4504,-270.3283"/>
</g>
<!-- 22 -->
<g id="node9" class="node">
<title>22</title>
<polygon fill="#f2f2f2" stroke="#000000" points="887.5388,-288.3 887.5388,-429.9 1695.1282,-429.9 1695.1282,-288.3 887.5388,-288.3"/>
<text text-anchor="middle" x="1291.3335" y="-413.3" font-family="Times,serif" font-size="14.00" fill="#000000">&lt;&lt;Interface&gt;&gt;</text>
<text text-anchor="middle" x="1291.3335" y="-396.5" font-family="Times,serif" font-size="14.00" fill="#000000">IERC721Feature</text>
<polyline fill="none" stroke="#000000" points="887.5388,-388.3 1695.1282,-388.3 "/>
<text text-anchor="middle" x="1291.3335" y="-371.7" font-family="Times,serif" font-size="14.00" fill="#000000"> </text>
<polyline fill="none" stroke="#000000" points="887.5388,-363.5 1695.1282,-363.5 "/>
<text text-anchor="start" x="895.5388" y="-346.9" font-family="Times,serif" font-size="14.00" fill="#000000">External:</text>
<text text-anchor="start" x="895.5388" y="-330.1" font-family="Times,serif" font-size="14.00" fill="#000000"> &#160;&#160;&#160;&#160;__ERC721Feature_initialize(name: string, symbol: string)</text>
<text text-anchor="start" x="895.5388" y="-313.3" font-family="Times,serif" font-size="14.00" fill="#000000"> &#160;&#160;&#160;&#160;exists(tokenId: uint256): bool</text>
<text text-anchor="start" x="895.5388" y="-296.5" font-family="Times,serif" font-size="14.00" fill="#000000"> &#160;&#160;&#160;&#160;transferFromWithProvenance(to: address, tokenId: uint256, historyMetadataHash: string, customHistoryId: uint256, isIntermediary: bool)</text>
</g>
<!-- 0&#45;&gt;22 -->
<g id="edge8" class="edge">
<title>0&#45;&gt;22</title>
<path fill="none" stroke="#000000" stroke-dasharray="5,2" d="M1140.9425,-226.1284C1162.0794,-244.817 1183.5699,-263.8184 1203.4414,-281.3882"/>
<polygon fill="#000000" stroke="#000000" points="1201.1639,-284.0464 1210.9739,-288.0483 1205.8007,-278.8023 1201.1639,-284.0464"/>
</g>
<!-- 24 -->
<g id="node10" class="node">
<title>24</title>
<polygon fill="#f2f2f2" stroke="#000000" points="1713.6111,-305.1 1713.6111,-413.1 2039.0559,-413.1 2039.0559,-305.1 1713.6111,-305.1"/>
<text text-anchor="middle" x="1876.3335" y="-396.5" font-family="Times,serif" font-size="14.00" fill="#000000">&lt;&lt;Interface&gt;&gt;</text>
<text text-anchor="middle" x="1876.3335" y="-379.7" font-family="Times,serif" font-size="14.00" fill="#000000">IOwnableFeature</text>
<polyline fill="none" stroke="#000000" points="1713.6111,-371.5 2039.0559,-371.5 "/>
<text text-anchor="middle" x="1876.3335" y="-354.9" font-family="Times,serif" font-size="14.00" fill="#000000"> </text>
<polyline fill="none" stroke="#000000" points="1713.6111,-346.7 2039.0559,-346.7 "/>
<text text-anchor="start" x="1721.6111" y="-330.1" font-family="Times,serif" font-size="14.00" fill="#000000">External:</text>
<text text-anchor="start" x="1721.6111" y="-313.3" font-family="Times,serif" font-size="14.00" fill="#000000"> &#160;&#160;&#160;&#160;__OwnableFeature_initialize(initialOwner: address)</text>
</g>
<!-- 0&#45;&gt;24 -->
<g id="edge7" class="edge">
<title>0&#45;&gt;24</title>
<path fill="none" stroke="#000000" stroke-dasharray="5,2" d="M1441.6537,-184.9873C1529.9334,-205.5332 1621.2632,-231.1386 1704.3335,-262.6 1730.7127,-272.5907 1757.9262,-286.1447 1782.7052,-299.9341"/>
<polygon fill="#000000" stroke="#000000" points="1781.2888,-303.1536 1791.7181,-305.0189 1784.7283,-297.0569 1781.2888,-303.1536"/>
</g>
<!-- 16 -->
<g id="node13" class="node">
<title>16</title>
<polygon fill="#f2f2f2" stroke="#000000" points="2268.3786,-279.9 2268.3786,-438.3 2632.2884,-438.3 2632.2884,-279.9 2268.3786,-279.9"/>
<text text-anchor="middle" x="2450.3335" y="-421.7" font-family="Times,serif" font-size="14.00" fill="#000000">&lt;&lt;Library&gt;&gt;</text>
<text text-anchor="middle" x="2450.3335" y="-404.9" font-family="Times,serif" font-size="14.00" fill="#000000">LibEIP2771</text>
<polyline fill="none" stroke="#000000" points="2268.3786,-396.7 2632.2884,-396.7 "/>
<text text-anchor="middle" x="2450.3335" y="-380.1" font-family="Times,serif" font-size="14.00" fill="#000000"> </text>
<polyline fill="none" stroke="#000000" points="2268.3786,-371.9 2632.2884,-371.9 "/>
<text text-anchor="start" x="2276.3786" y="-355.3" font-family="Times,serif" font-size="14.00" fill="#000000">Internal:</text>
<text text-anchor="start" x="2276.3786" y="-338.5" font-family="Times,serif" font-size="14.00" fill="#000000"> &#160;&#160;&#160;isTrustedForwarder(featureRegistryAddress: address): bool</text>
<text text-anchor="start" x="2276.3786" y="-321.7" font-family="Times,serif" font-size="14.00" fill="#000000"> &#160;&#160;&#160;onlyTrustedForwarder(featureRegistryAddress: address)</text>
<text text-anchor="start" x="2276.3786" y="-304.9" font-family="Times,serif" font-size="14.00" fill="#000000"> &#160;&#160;&#160;onlyLicensedUser(featureRegistryAddress: address)</text>
<text text-anchor="start" x="2276.3786" y="-288.1" font-family="Times,serif" font-size="14.00" fill="#000000"> &#160;&#160;&#160;msgSender(featureRegistryAddress: address): (ret: address)</text>
</g>
<!-- 0&#45;&gt;16 -->
<g id="edge5" class="edge">
<title>0&#45;&gt;16</title>
<path fill="none" stroke="#000000" stroke-dasharray="5,2" d="M1441.8135,-138.0444C1674.4415,-158.5295 1965.3855,-195.6555 2218.3335,-262.6 2233.3504,-266.5743 2248.6785,-271.3102 2263.9407,-276.5187"/>
<polygon fill="#000000" stroke="#000000" points="2262.8368,-279.8404 2273.4316,-279.8203 2265.1367,-273.229 2262.8368,-279.8404"/>
</g>
<!-- 1struct0 -->
<g id="node3" class="node">
<title>1struct0</title>
<polygon fill="#f2f2f2" stroke="#000000" points="0,-63.3 0,-163.3 242.667,-163.3 242.667,-63.3 0,-63.3"/>
<text text-anchor="middle" x="121.3335" y="-146.7" font-family="Times,serif" font-size="14.00" fill="#000000">&lt;&lt;struct&gt;&gt;</text>
<text text-anchor="middle" x="121.3335" y="-129.9" font-family="Times,serif" font-size="14.00" fill="#000000">Layout</text>
<polyline fill="none" stroke="#000000" points="0,-121.7 242.667,-121.7 "/>
<text text-anchor="start" x="8" y="-105.1" font-family="Times,serif" font-size="14.00" fill="#000000">collectionRegistry: address</text>
<text text-anchor="start" x="8" y="-88.3" font-family="Times,serif" font-size="14.00" fill="#000000">featureRegistry: address</text>
<text text-anchor="start" x="8" y="-71.5" font-family="Times,serif" font-size="14.00" fill="#000000">collectionProxyImplementation: address</text>
</g>
<!-- 1struct0&#45;&gt;1 -->
<g id="edge1" class="edge">
<title>1struct0&#45;&gt;1</title>
<path fill="none" stroke="#000000" d="M121.3335,-163.3376C121.3335,-198.1175 121.3335,-245.0818 121.3335,-284.2921"/>
<polygon fill="#000000" stroke="#000000" points="121.3336,-284.457 125.3335,-290.457 121.3335,-296.457 117.3335,-290.4569 121.3336,-284.457"/>
</g>
<!-- 3 -->
<g id="node5" class="node">
<title>3</title>
<polygon fill="#f2f2f2" stroke="#000000" points="1964.3895,-500.5 1964.3895,-642.1 2302.2775,-642.1 2302.2775,-500.5 1964.3895,-500.5"/>
<text text-anchor="middle" x="2133.3335" y="-625.5" font-family="Times,serif" font-size="14.00" fill="#000000">&lt;&lt;Library&gt;&gt;</text>
<text text-anchor="middle" x="2133.3335" y="-608.7" font-family="Times,serif" font-size="14.00" fill="#000000">CollectionProxyStorage</text>
<polyline fill="none" stroke="#000000" points="1964.3895,-600.5 2302.2775,-600.5 "/>
<text text-anchor="start" x="1972.3895" y="-583.9" font-family="Times,serif" font-size="14.00" fill="#000000">Internal:</text>
<text text-anchor="start" x="1972.3895" y="-567.1" font-family="Times,serif" font-size="14.00" fill="#000000"> &#160;&#160;STORAGE_SLOT: bytes32</text>
<polyline fill="none" stroke="#000000" points="1964.3895,-558.9 2302.2775,-558.9 "/>
<text text-anchor="start" x="1972.3895" y="-542.3" font-family="Times,serif" font-size="14.00" fill="#000000">Internal:</text>
<text text-anchor="start" x="1972.3895" y="-525.5" font-family="Times,serif" font-size="14.00" fill="#000000"> &#160;&#160;&#160;layout(): (l: Layout)</text>
<text text-anchor="start" x="1972.3895" y="-508.7" font-family="Times,serif" font-size="14.00" fill="#000000"> &#160;&#160;&#160;setFeatureRegistry(l: Layout, featureRegistry: address)</text>
</g>
<!-- 2&#45;&gt;3 -->
<g id="edge10" class="edge">
<title>2&#45;&gt;3</title>
<path fill="none" stroke="#000000" stroke-dasharray="5,2" d="M583.4322,-452.9195C586.4041,-453.8605 589.3725,-454.7554 592.3335,-455.6 843.5795,-527.2672 1604.4999,-556.8549 1954.1382,-566.9089"/>
<polygon fill="#000000" stroke="#000000" points="1954.2658,-570.4139 1964.3616,-567.2007 1954.4656,-563.4168 1954.2658,-570.4139"/>
</g>
<!-- 5 -->
<g id="node8" class="node">
<title>5</title>
<polygon fill="#f2f2f2" stroke="#000000" points="267.3072,-492.1 267.3072,-650.5 547.3598,-650.5 547.3598,-492.1 267.3072,-492.1"/>
<text text-anchor="middle" x="407.3335" y="-633.9" font-family="Times,serif" font-size="14.00" fill="#000000">&lt;&lt;Abstract&gt;&gt;</text>
<text text-anchor="middle" x="407.3335" y="-617.1" font-family="Times,serif" font-size="14.00" fill="#000000">Proxy</text>
<polyline fill="none" stroke="#000000" points="267.3072,-608.9 547.3598,-608.9 "/>
<text text-anchor="middle" x="407.3335" y="-592.3" font-family="Times,serif" font-size="14.00" fill="#000000"> </text>
<polyline fill="none" stroke="#000000" points="267.3072,-584.1 547.3598,-584.1 "/>
<text text-anchor="start" x="275.3072" y="-567.5" font-family="Times,serif" font-size="14.00" fill="#000000">Internal:</text>
<text text-anchor="start" x="275.3072" y="-550.7" font-family="Times,serif" font-size="14.00" fill="#000000"> &#160;&#160;&#160;&lt;&lt;abstract&gt;&gt; _getImplementation(): address</text>
<text text-anchor="start" x="275.3072" y="-533.9" font-family="Times,serif" font-size="14.00" fill="#000000"> &#160;&#160;&#160;handleFallback()</text>
<text text-anchor="start" x="275.3072" y="-517.1" font-family="Times,serif" font-size="14.00" fill="#000000">External:</text>
<text text-anchor="start" x="275.3072" y="-500.3" font-family="Times,serif" font-size="14.00" fill="#000000"> &#160;&#160;&#160;&lt;&lt;payable&gt;&gt; null()</text>
</g>
<!-- 2&#45;&gt;5 -->
<g id="edge9" class="edge">
<title>2&#45;&gt;5</title>
<path fill="none" stroke="#000000" d="M407.3335,-455.2661C407.3335,-457.473 407.3335,-459.6856 407.3335,-461.9002"/>
<polygon fill="none" stroke="#000000" points="396.8336,-461.9828 407.3335,-491.9828 417.8336,-461.9828 396.8336,-461.9828"/>
</g>
<!-- 3struct0 -->
<g id="node6" class="node">
<title>3struct0</title>
<polygon fill="#f2f2f2" stroke="#000000" points="2057.5021,-325.9 2057.5021,-392.3 2209.1649,-392.3 2209.1649,-325.9 2057.5021,-325.9"/>
<text text-anchor="middle" x="2133.3335" y="-375.7" font-family="Times,serif" font-size="14.00" fill="#000000">&lt;&lt;struct&gt;&gt;</text>
<text text-anchor="middle" x="2133.3335" y="-358.9" font-family="Times,serif" font-size="14.00" fill="#000000">Layout</text>
<polyline fill="none" stroke="#000000" points="2057.5021,-350.7 2209.1649,-350.7 "/>
<text text-anchor="start" x="2065.5021" y="-334.1" font-family="Times,serif" font-size="14.00" fill="#000000">featureRegistry: address</text>
</g>
<!-- 3struct0&#45;&gt;3 -->
<g id="edge2" class="edge">
<title>3struct0&#45;&gt;3</title>
<path fill="none" stroke="#000000" d="M2133.3335,-392.7237C2133.3335,-418.328 2133.3335,-454.719 2133.3335,-487.9765"/>
<polygon fill="#000000" stroke="#000000" points="2133.3336,-488.0617 2137.3335,-494.0617 2133.3335,-500.0617 2129.3335,-494.0617 2133.3336,-488.0617"/>
</g>
<!-- 42 -->
<g id="node11" class="node">
<title>42</title>
<polygon fill="#f2f2f2" stroke="#000000" points="2320.656,-508.9 2320.656,-633.7 2580.011,-633.7 2580.011,-508.9 2320.656,-508.9"/>
<text text-anchor="middle" x="2450.3335" y="-617.1" font-family="Times,serif" font-size="14.00" fill="#000000">&lt;&lt;Interface&gt;&gt;</text>
<text text-anchor="middle" x="2450.3335" y="-600.3" font-family="Times,serif" font-size="14.00" fill="#000000">IStartrailCollectionFeatureRegistry</text>
<polyline fill="none" stroke="#000000" points="2320.656,-592.1 2580.011,-592.1 "/>
<text text-anchor="middle" x="2450.3335" y="-575.5" font-family="Times,serif" font-size="14.00" fill="#000000"> </text>
<polyline fill="none" stroke="#000000" points="2320.656,-567.3 2580.011,-567.3 "/>
<text text-anchor="start" x="2328.656" y="-550.7" font-family="Times,serif" font-size="14.00" fill="#000000">External:</text>
<text text-anchor="start" x="2328.656" y="-533.9" font-family="Times,serif" font-size="14.00" fill="#000000"> &#160;&#160;&#160;&#160;getEIP2771TrustedForwarder(): address</text>
<text text-anchor="start" x="2328.656" y="-517.1" font-family="Times,serif" font-size="14.00" fill="#000000"> &#160;&#160;&#160;&#160;getNameRegistry(): address</text>
</g>
<!-- 15 -->
<g id="node12" class="node">
<title>15</title>
<polygon fill="#f2f2f2" stroke="#000000" points="2598.0743,-517.3 2598.0743,-625.3 2886.5927,-625.3 2886.5927,-517.3 2598.0743,-517.3"/>
<text text-anchor="middle" x="2742.3335" y="-608.7" font-family="Times,serif" font-size="14.00" fill="#000000">&lt;&lt;Interface&gt;&gt;</text>
<text text-anchor="middle" x="2742.3335" y="-591.9" font-family="Times,serif" font-size="14.00" fill="#000000">ILUM</text>
<polyline fill="none" stroke="#000000" points="2598.0743,-583.7 2886.5927,-583.7 "/>
<text text-anchor="middle" x="2742.3335" y="-567.1" font-family="Times,serif" font-size="14.00" fill="#000000"> </text>
<polyline fill="none" stroke="#000000" points="2598.0743,-558.9 2886.5927,-558.9 "/>
<text text-anchor="start" x="2606.0743" y="-542.3" font-family="Times,serif" font-size="14.00" fill="#000000">External:</text>
<text text-anchor="start" x="2606.0743" y="-525.5" font-family="Times,serif" font-size="14.00" fill="#000000"> &#160;&#160;&#160;&#160;isActiveWallet(walletAddress: address): bool</text>
</g>
<!-- 16&#45;&gt;42 -->
<g id="edge11" class="edge">
<title>16&#45;&gt;42</title>
<path fill="none" stroke="#000000" stroke-dasharray="5,2" d="M2450.3335,-438.4172C2450.3335,-458.075 2450.3335,-479.0452 2450.3335,-498.3807"/>
<polygon fill="#000000" stroke="#000000" points="2446.8336,-498.6302 2450.3335,-508.6303 2453.8336,-498.6303 2446.8336,-498.6302"/>
</g>
<!-- 16&#45;&gt;15 -->
<g id="edge12" class="edge">
<title>16&#45;&gt;15</title>
<path fill="none" stroke="#000000" stroke-dasharray="5,2" d="M2559.4788,-438.4172C2592.6391,-462.5152 2628.5134,-488.5855 2659.6306,-511.1988"/>
<polygon fill="#000000" stroke="#000000" points="2657.7063,-514.1269 2667.8534,-517.1744 2661.8214,-508.4643 2657.7063,-514.1269"/>
</g>
</g>
</svg>
