<?xml version="1.0" encoding="UTF-8" standalone="no"?>
<!DOCTYPE svg PUBLIC "-//W3C//DTD SVG 1.1//EN"
 "http://www.w3.org/Graphics/SVG/1.1/DTD/svg11.dtd">
<!-- Generated by graphviz version 5.0.0 (20220707.1540)
 -->
<!-- Title: UmlClassDiagram Pages: 1 -->
<svg width="1562pt" height="576pt"
 viewBox="0.00 0.00 1562.46 575.80" xmlns="http://www.w3.org/2000/svg" xmlns:xlink="http://www.w3.org/1999/xlink">
<g id="graph0" class="graph" transform="scale(1 1) rotate(0) translate(4 571.8)">
<title>UmlClassDiagram</title>
<polygon fill="white" stroke="transparent" points="-4,4 -4,-571.8 1558.46,-571.8 1558.46,4 -4,4"/>
<!-- 3 -->
<g id="node1" class="node">
<title>3</title>
<polygon fill="#f2f2f2" stroke="black" points="0,-255.1 0,-338.3 252.85,-338.3 252.85,-255.1 0,-255.1"/>
<text text-anchor="middle" x="126.43" y="-321.7" font-family="Times,serif" font-size="14.00">&lt;&lt;Constant&gt;&gt;</text>
<text text-anchor="middle" x="126.43" y="-304.9" font-family="Times,serif" font-size="14.00">SELECTOR_FACET_ADDRESS</text>
<text text-anchor="middle" x="126.43" y="-288.1" font-family="Times,serif" font-size="14.00">contracts/collection/CollectionProxy.sol</text>
<polyline fill="none" stroke="black" points="0,-279.9 252.85,-279.9 "/>
<text text-anchor="start" x="8" y="-263.3" font-family="Times,serif" font-size="14.00">SELECTOR_FACET_ADDRESS: bytes4</text>
</g>
<!-- 4 -->
<g id="node2" class="node">
<title>4</title>
<polygon fill="#f2f2f2" stroke="black" points="270.94,-255.1 270.94,-338.3 561.91,-338.3 561.91,-255.1 270.94,-255.1"/>
<text text-anchor="middle" x="416.43" y="-321.7" font-family="Times,serif" font-size="14.00">&lt;&lt;Constant&gt;&gt;</text>
<text text-anchor="middle" x="416.43" y="-304.9" font-family="Times,serif" font-size="14.00">SELECTOR_SUPPORTS_INTERFACE</text>
<text text-anchor="middle" x="416.43" y="-288.1" font-family="Times,serif" font-size="14.00">contracts/collection/CollectionProxy.sol</text>
<polyline fill="none" stroke="black" points="270.94,-279.9 561.91,-279.9 "/>
<text text-anchor="start" x="278.94" y="-263.3" font-family="Times,serif" font-size="14.00">SELECTOR_SUPPORTS_INTERFACE: bytes4</text>
</g>
<!-- 5 -->
<g id="node3" class="node">
<title>5</title>
<polygon fill="#f2f2f2" stroke="black" points="580.39,-255.1 580.39,-338.3 916.46,-338.3 916.46,-255.1 580.39,-255.1"/>
<text text-anchor="middle" x="748.43" y="-321.7" font-family="Times,serif" font-size="14.00">&lt;&lt;Constant&gt;&gt;</text>
<text text-anchor="middle" x="748.43" y="-304.9" font-family="Times,serif" font-size="14.00">SELECTOR_GET_SUPPORTED_INTERFACE</text>
<text text-anchor="middle" x="748.43" y="-288.1" font-family="Times,serif" font-size="14.00">contracts/collection/CollectionProxy.sol</text>
<polyline fill="none" stroke="black" points="580.39,-279.9 916.46,-279.9 "/>
<text text-anchor="start" x="588.39" y="-263.3" font-family="Times,serif" font-size="14.00">SELECTOR_GET_SUPPORTED_INTERFACE: bytes4</text>
</g>
<!-- 6 -->
<g id="node4" class="node">
<title>6</title>
<polygon fill="#f2f2f2" stroke="black" points="985.47,-0.5 985.47,-184.5 1337.38,-184.5 1337.38,-0.5 985.47,-0.5"/>
<text text-anchor="middle" x="1161.43" y="-167.9" font-family="Times,serif" font-size="14.00">CollectionProxy</text>
<text text-anchor="middle" x="1161.43" y="-151.1" font-family="Times,serif" font-size="14.00">contracts/collection/CollectionProxy.sol</text>
<polyline fill="none" stroke="black" points="985.47,-142.9 1337.38,-142.9 "/>
<text text-anchor="start" x="993.47" y="-126.3" font-family="Times,serif" font-size="14.00">Private:</text>
<text text-anchor="start" x="993.47" y="-109.5" font-family="Times,serif" font-size="14.00"> &#160;&#160;&#160;staticcallSupportsInterfaceOnFeatureRegistry()</text>
<text text-anchor="start" x="993.47" y="-92.7" font-family="Times,serif" font-size="14.00">Internal:</text>
<text text-anchor="start" x="993.47" y="-75.9" font-family="Times,serif" font-size="14.00"> &#160;&#160;&#160;_getImplementation(): (implementationAddress: address)</text>
<text text-anchor="start" x="993.47" y="-59.1" font-family="Times,serif" font-size="14.00">External:</text>
<text text-anchor="start" x="993.47" y="-42.3" font-family="Times,serif" font-size="14.00"> &#160;&#160;&#160;&lt;&lt;payable&gt;&gt; null()</text>
<text text-anchor="start" x="993.47" y="-25.5" font-family="Times,serif" font-size="14.00"> &#160;&#160;&#160;&lt;&lt;payable&gt;&gt; null()</text>
<text text-anchor="start" x="993.47" y="-8.7" font-family="Times,serif" font-size="14.00"> &#160;&#160;&#160;__CollectionProxy_initialize(_featureRegistry: address)</text>
</g>
<!-- 6&#45;&gt;3 -->
<g id="edge6" class="edge">
<title>6&#45;&gt;3</title>
<path fill="none" stroke="black" stroke-dasharray="5,2" d="M985.24,-99.77C800.81,-110.62 504.9,-140.22 262.43,-221 240.61,-228.27 218.22,-239 198.06,-250.07"/>
<polygon fill="black" stroke="black" points="196.28,-247.05 189.27,-254.99 199.71,-253.16 196.28,-247.05"/>
</g>
<!-- 6&#45;&gt;4 -->
<g id="edge5" class="edge">
<title>6&#45;&gt;4</title>
<path fill="none" stroke="black" stroke-dasharray="5,2" d="M985.18,-120.35C866.34,-141.17 707.08,-174.39 571.43,-221 547.96,-229.06 523.41,-239.76 500.94,-250.53"/>
<polygon fill="black" stroke="black" points="499.25,-247.46 491.78,-254.97 502.31,-253.75 499.25,-247.46"/>
</g>
<!-- 6&#45;&gt;5 -->
<g id="edge4" class="edge">
<title>6&#45;&gt;5</title>
<path fill="none" stroke="black" stroke-dasharray="5,2" d="M985.38,-179.69C935.61,-204.06 883.42,-229.61 840.74,-250.51"/>
<polygon fill="black" stroke="black" points="838.94,-247.49 831.5,-255.03 842.02,-253.78 838.94,-247.49"/>
</g>
<!-- 8 -->
<g id="node5" class="node">
<title>8</title>
<polygon fill="#f2f2f2" stroke="black" points="934.48,-255.1 934.48,-338.3 1218.37,-338.3 1218.37,-255.1 934.48,-255.1"/>
<text text-anchor="middle" x="1076.43" y="-321.7" font-family="Times,serif" font-size="14.00">&lt;&lt;Struct&gt;&gt;</text>
<text text-anchor="middle" x="1076.43" y="-304.9" font-family="Times,serif" font-size="14.00">Layout</text>
<text text-anchor="middle" x="1076.43" y="-288.1" font-family="Times,serif" font-size="14.00">contracts/collection/CollectionProxyStorage.sol</text>
<polyline fill="none" stroke="black" points="934.48,-279.9 1218.37,-279.9 "/>
<text text-anchor="start" x="942.48" y="-263.3" font-family="Times,serif" font-size="14.00">featureRegistry: address</text>
</g>
<!-- 6&#45;&gt;8 -->
<g id="edge3" class="edge">
<title>6&#45;&gt;8</title>
<path fill="none" stroke="black" stroke-dasharray="5,2" d="M1123.15,-184.54C1114.33,-205.52 1105.27,-227.08 1097.5,-245.56"/>
<polygon fill="black" stroke="black" points="1094.21,-244.35 1093.56,-254.93 1100.67,-247.07 1094.21,-244.35"/>
</g>
<!-- 7 -->
<g id="node6" class="node">
<title>7</title>
<polygon fill="#f2f2f2" stroke="black" points="907.47,-408.9 907.47,-567.3 1245.38,-567.3 1245.38,-408.9 907.47,-408.9"/>
<text text-anchor="middle" x="1076.43" y="-550.7" font-family="Times,serif" font-size="14.00">&lt;&lt;Library&gt;&gt;</text>
<text text-anchor="middle" x="1076.43" y="-533.9" font-family="Times,serif" font-size="14.00">CollectionProxyStorage</text>
<text text-anchor="middle" x="1076.43" y="-517.1" font-family="Times,serif" font-size="14.00">contracts/collection/CollectionProxyStorage.sol</text>
<polyline fill="none" stroke="black" points="907.47,-508.9 1245.38,-508.9 "/>
<text text-anchor="start" x="915.47" y="-492.3" font-family="Times,serif" font-size="14.00">Internal:</text>
<text text-anchor="start" x="915.47" y="-475.5" font-family="Times,serif" font-size="14.00"> &#160;&#160;STORAGE_SLOT: bytes32</text>
<polyline fill="none" stroke="black" points="907.47,-467.3 1245.38,-467.3 "/>
<text text-anchor="start" x="915.47" y="-450.7" font-family="Times,serif" font-size="14.00">Internal:</text>
<text text-anchor="start" x="915.47" y="-433.9" font-family="Times,serif" font-size="14.00"> &#160;&#160;&#160;layout(): (l: Layout)</text>
<text text-anchor="start" x="915.47" y="-417.1" font-family="Times,serif" font-size="14.00"> &#160;&#160;&#160;setFeatureRegistry(l: Layout, featureRegistry: address)</text>
</g>
<!-- 6&#45;&gt;7 -->
<g id="edge2" class="edge">
<title>6&#45;&gt;7</title>
<path fill="none" stroke="black" stroke-dasharray="5,2" d="M1215.13,-184.79C1220.16,-196.65 1224.48,-208.89 1227.43,-221 1243.34,-286.38 1257.33,-312.12 1227.43,-372.4 1222.33,-382.66 1215.83,-392.26 1208.41,-401.17"/>
<polygon fill="black" stroke="black" points="1205.64,-399.02 1201.65,-408.83 1210.89,-403.65 1205.64,-399.02"/>
</g>
<!-- 10 -->
<g id="node7" class="node">
<title>10</title>
<polygon fill="#f2f2f2" stroke="black" points="1274.4,-221.5 1274.4,-371.9 1554.46,-371.9 1554.46,-221.5 1274.4,-221.5"/>
<text text-anchor="middle" x="1414.43" y="-355.3" font-family="Times,serif" font-size="14.00">&lt;&lt;Abstract&gt;&gt;</text>
<text text-anchor="middle" x="1414.43" y="-338.5" font-family="Times,serif" font-size="14.00">Proxy</text>
<text text-anchor="middle" x="1414.43" y="-321.7" font-family="Times,serif" font-size="14.00">contracts/collection/Proxy.sol</text>
<polyline fill="none" stroke="black" points="1274.4,-313.5 1554.46,-313.5 "/>
<text text-anchor="start" x="1282.4" y="-296.9" font-family="Times,serif" font-size="14.00">Internal:</text>
<text text-anchor="start" x="1282.4" y="-280.1" font-family="Times,serif" font-size="14.00"> &#160;&#160;&#160;&lt;&lt;abstract&gt;&gt; _getImplementation(): address</text>
<text text-anchor="start" x="1282.4" y="-263.3" font-family="Times,serif" font-size="14.00"> &#160;&#160;&#160;handleFallback()</text>
<text text-anchor="start" x="1282.4" y="-246.5" font-family="Times,serif" font-size="14.00">External:</text>
<text text-anchor="start" x="1282.4" y="-229.7" font-family="Times,serif" font-size="14.00"> &#160;&#160;&#160;&lt;&lt;payable&gt;&gt; null()</text>
</g>
<!-- 6&#45;&gt;10 -->
<g id="edge1" class="edge">
<title>6&#45;&gt;10</title>
<path fill="none" stroke="black" d="M1275.34,-184.54C1282.78,-190.48 1290.27,-196.47 1297.71,-202.42"/>
<polygon fill="none" stroke="black" points="1291.22,-210.68 1321.21,-221.2 1304.33,-194.27 1291.22,-210.68"/>
</g>
<!-- 8&#45;&gt;7 -->
<g id="edge7" class="edge">
<title>8&#45;&gt;7</title>
<path fill="none" stroke="black" d="M1070.77,-338.33C1069.99,-355.42 1069.63,-376.05 1069.68,-396.43"/>
<polygon fill="black" stroke="black" points="1069.68,-396.71 1073.72,-402.68 1069.77,-408.71 1065.72,-402.74 1069.68,-396.71"/>
</g>
<!-- 7&#45;&gt;8 -->
<g id="edge8" class="edge">
<title>7&#45;&gt;8</title>
<path fill="none" stroke="black" stroke-dasharray="5,2" d="M1083.09,-408.71C1083.31,-388.4 1083.11,-367.05 1082.49,-348.57"/>
<polygon fill="black" stroke="black" points="1085.97,-348.19 1082.08,-338.33 1078.98,-348.46 1085.97,-348.19"/>
</g>
</g>
</svg>
