<?xml version="1.0" encoding="UTF-8" standalone="no"?>
<!DOCTYPE svg PUBLIC "-//W3C//DTD SVG 1.1//EN"
 "http://www.w3.org/Graphics/SVG/1.1/DTD/svg11.dtd">
<!-- Generated by graphviz version 5.0.0 (20220707.1540)
 -->
<!-- Title: UmlClassDiagram Pages: 1 -->
<svg width="3809pt" height="814pt"
 viewBox="0.00 0.00 3809.34 813.60" xmlns="http://www.w3.org/2000/svg" xmlns:xlink="http://www.w3.org/1999/xlink">
<g id="graph0" class="graph" transform="scale(1 1) rotate(0) translate(4 809.6)">
<title>UmlClassDiagram</title>
<polygon fill="white" stroke="transparent" points="-4,4 -4,-809.6 3805.34,-809.6 3805.34,4 -4,4"/>
<!-- 0 -->
<g id="node1" class="node">
<title>0</title>
<polygon fill="#f2f2f2" stroke="black" points="624.82,-259.5 624.82,-401.1 918.03,-401.1 918.03,-259.5 624.82,-259.5"/>
<text text-anchor="middle" x="771.43" y="-384.5" font-family="Times,serif" font-size="14.00">&lt;&lt;Library&gt;&gt;</text>
<text text-anchor="middle" x="771.43" y="-367.7" font-family="Times,serif" font-size="14.00">CollectionFactoryStorage</text>
<text text-anchor="middle" x="771.43" y="-350.9" font-family="Times,serif" font-size="14.00">contracts/collection/CollectionFactoryStorage.sol</text>
<polyline fill="none" stroke="black" points="624.82,-342.7 918.03,-342.7 "/>
<text text-anchor="start" x="632.82" y="-326.1" font-family="Times,serif" font-size="14.00">Internal:</text>
<text text-anchor="start" x="632.82" y="-309.3" font-family="Times,serif" font-size="14.00"> &#160;&#160;STORAGE_SLOT: bytes32</text>
<polyline fill="none" stroke="black" points="624.82,-301.1 918.03,-301.1 "/>
<text text-anchor="start" x="632.82" y="-284.5" font-family="Times,serif" font-size="14.00">Internal:</text>
<text text-anchor="start" x="632.82" y="-267.7" font-family="Times,serif" font-size="14.00"> &#160;&#160;&#160;layout(): (l: Layout)</text>
</g>
<!-- 2 -->
<g id="node2" class="node">
<title>2</title>
<polygon fill="#f2f2f2" stroke="black" points="1110.54,-0.5 1110.54,-201.3 1846.31,-201.3 1846.31,-0.5 1110.54,-0.5"/>
<text text-anchor="middle" x="1478.43" y="-184.7" font-family="Times,serif" font-size="14.00">CollectionFactoryV01</text>
<text text-anchor="middle" x="1478.43" y="-167.9" font-family="Times,serif" font-size="14.00">contracts/collection/CollectionFactoryV01.sol</text>
<polyline fill="none" stroke="black" points="1110.54,-159.7 1846.31,-159.7 "/>
<text text-anchor="start" x="1118.54" y="-143.1" font-family="Times,serif" font-size="14.00">Internal:</text>
<text text-anchor="start" x="1118.54" y="-126.3" font-family="Times,serif" font-size="14.00"> &#160;&#160;&#160;_authorizeUpgrade(newImplementation: address) &lt;&lt;onlyOwner&gt;&gt;</text>
<text text-anchor="start" x="1118.54" y="-109.5" font-family="Times,serif" font-size="14.00">External:</text>
<text text-anchor="start" x="1118.54" y="-92.7" font-family="Times,serif" font-size="14.00"> &#160;&#160;&#160;collectionRegistry(): address</text>
<text text-anchor="start" x="1118.54" y="-75.9" font-family="Times,serif" font-size="14.00"> &#160;&#160;&#160;featureRegistry(): address</text>
<text text-anchor="start" x="1118.54" y="-59.1" font-family="Times,serif" font-size="14.00"> &#160;&#160;&#160;createCollectionContract(name: string, symbol: string, salt: bytes32) &lt;&lt;nonReentrant&gt;&gt;</text>
<text text-anchor="start" x="1118.54" y="-42.3" font-family="Times,serif" font-size="14.00">Public:</text>
<text text-anchor="start" x="1118.54" y="-25.5" font-family="Times,serif" font-size="14.00"> &#160;&#160;&#160;&lt;&lt;event&gt;&gt; CollectionCreated(collectionAddress: address, ownerAddress: address, name: string, symbol: string, salt: bytes32)</text>
<text text-anchor="start" x="1118.54" y="-8.7" font-family="Times,serif" font-size="14.00"> &#160;&#160;&#160;initialize(featureRegistry_: address, collectionProxyImplementation: address) &lt;&lt;initializer&gt;&gt;</text>
</g>
<!-- 2&#45;&gt;0 -->
<g id="edge1" class="edge">
<title>2&#45;&gt;0</title>
<path fill="none" stroke="black" stroke-dasharray="5,2" d="M1110.26,-177C1048.24,-194.08 985.27,-214.28 927.43,-237.8 915.37,-242.7 903.13,-248.41 891.09,-254.54"/>
<polygon fill="black" stroke="black" points="889.18,-251.59 881.92,-259.31 892.41,-257.8 889.18,-251.59"/>
</g>
<!-- 6 -->
<g id="node6" class="node">
<title>6</title>
<polygon fill="#f2f2f2" stroke="black" points="936.47,-238.3 936.47,-422.3 1288.38,-422.3 1288.38,-238.3 936.47,-238.3"/>
<text text-anchor="middle" x="1112.43" y="-405.7" font-family="Times,serif" font-size="14.00">CollectionProxy</text>
<text text-anchor="middle" x="1112.43" y="-388.9" font-family="Times,serif" font-size="14.00">contracts/collection/CollectionProxy.sol</text>
<polyline fill="none" stroke="black" points="936.47,-380.7 1288.38,-380.7 "/>
<text text-anchor="start" x="944.47" y="-364.1" font-family="Times,serif" font-size="14.00">Private:</text>
<text text-anchor="start" x="944.47" y="-347.3" font-family="Times,serif" font-size="14.00"> &#160;&#160;&#160;staticcallSupportsInterfaceOnFeatureRegistry()</text>
<text text-anchor="start" x="944.47" y="-330.5" font-family="Times,serif" font-size="14.00">Internal:</text>
<text text-anchor="start" x="944.47" y="-313.7" font-family="Times,serif" font-size="14.00"> &#160;&#160;&#160;_getImplementation(): (implementationAddress: address)</text>
<text text-anchor="start" x="944.47" y="-296.9" font-family="Times,serif" font-size="14.00">External:</text>
<text text-anchor="start" x="944.47" y="-280.1" font-family="Times,serif" font-size="14.00"> &#160;&#160;&#160;&lt;&lt;payable&gt;&gt; null()</text>
<text text-anchor="start" x="944.47" y="-263.3" font-family="Times,serif" font-size="14.00"> &#160;&#160;&#160;&lt;&lt;payable&gt;&gt; null()</text>
<text text-anchor="start" x="944.47" y="-246.5" font-family="Times,serif" font-size="14.00"> &#160;&#160;&#160;__CollectionProxy_initialize(_featureRegistry: address)</text>
</g>
<!-- 2&#45;&gt;6 -->
<g id="edge5" class="edge">
<title>2&#45;&gt;6</title>
<path fill="none" stroke="black" stroke-dasharray="5,2" d="M1318.43,-201.31C1301.64,-211.74 1284.58,-222.34 1267.85,-232.74"/>
<polygon fill="black" stroke="black" points="1265.77,-229.9 1259.13,-238.15 1269.47,-235.85 1265.77,-229.9"/>
</g>
<!-- 8 -->
<g id="node7" class="node">
<title>8</title>
<polygon fill="#f2f2f2" stroke="black" points="1270.48,-492.9 1270.48,-576.1 1554.37,-576.1 1554.37,-492.9 1270.48,-492.9"/>
<text text-anchor="middle" x="1412.43" y="-559.5" font-family="Times,serif" font-size="14.00">&lt;&lt;Struct&gt;&gt;</text>
<text text-anchor="middle" x="1412.43" y="-542.7" font-family="Times,serif" font-size="14.00">Layout</text>
<text text-anchor="middle" x="1412.43" y="-525.9" font-family="Times,serif" font-size="14.00">contracts/collection/CollectionProxyStorage.sol</text>
<polyline fill="none" stroke="black" points="1270.48,-517.7 1554.37,-517.7 "/>
<text text-anchor="start" x="1278.48" y="-501.1" font-family="Times,serif" font-size="14.00">featureRegistry: address</text>
</g>
<!-- 2&#45;&gt;8 -->
<g id="edge2" class="edge">
<title>2&#45;&gt;8</title>
<path fill="none" stroke="black" stroke-dasharray="5,2" d="M1356.66,-201.57C1348.22,-212.94 1340.9,-225.05 1335.43,-237.8 1303,-313.36 1310.82,-344.34 1335.43,-422.8 1342.38,-444.98 1355.52,-466.61 1369.01,-484.78"/>
<polygon fill="black" stroke="black" points="1366.35,-487.06 1375.21,-492.87 1371.91,-482.8 1366.35,-487.06"/>
</g>
<!-- 9 -->
<g id="node9" class="node">
<title>9</title>
<polygon fill="#f2f2f2" stroke="black" points="1344.27,-242.7 1344.27,-417.9 1612.59,-417.9 1612.59,-242.7 1344.27,-242.7"/>
<text text-anchor="middle" x="1478.43" y="-401.3" font-family="Times,serif" font-size="14.00">CollectionRegistry</text>
<text text-anchor="middle" x="1478.43" y="-384.5" font-family="Times,serif" font-size="14.00">contracts/collection/CollectionRegistry.sol</text>
<polyline fill="none" stroke="black" points="1344.27,-376.3 1612.59,-376.3 "/>
<text text-anchor="start" x="1352.27" y="-359.7" font-family="Times,serif" font-size="14.00">Public:</text>
<text text-anchor="start" x="1352.27" y="-342.9" font-family="Times,serif" font-size="14.00"> &#160;&#160;registry: mapping(address=&gt;bool)</text>
<text text-anchor="start" x="1352.27" y="-326.1" font-family="Times,serif" font-size="14.00"> &#160;&#160;collectionFactory: address</text>
<polyline fill="none" stroke="black" points="1344.27,-317.9 1612.59,-317.9 "/>
<text text-anchor="start" x="1352.27" y="-301.3" font-family="Times,serif" font-size="14.00">External:</text>
<text text-anchor="start" x="1352.27" y="-284.5" font-family="Times,serif" font-size="14.00"> &#160;&#160;&#160;addCollection(collectionAddress: address)</text>
<text text-anchor="start" x="1352.27" y="-267.7" font-family="Times,serif" font-size="14.00">Public:</text>
<text text-anchor="start" x="1352.27" y="-250.9" font-family="Times,serif" font-size="14.00"> &#160;&#160;&#160;constructor(collectionFactory_: address)</text>
</g>
<!-- 2&#45;&gt;9 -->
<g id="edge3" class="edge">
<title>2&#45;&gt;9</title>
<path fill="none" stroke="black" stroke-dasharray="5,2" d="M1478.43,-201.31C1478.43,-211.62 1478.43,-222.09 1478.43,-232.37"/>
<polygon fill="black" stroke="black" points="1474.93,-232.57 1478.43,-242.57 1481.93,-232.57 1474.93,-232.57"/>
</g>
<!-- 47 -->
<g id="node11" class="node">
<title>47</title>
<polygon fill="#f2f2f2" stroke="black" points="1630.73,-238.3 1630.73,-422.3 2644.12,-422.3 2644.12,-238.3 1630.73,-238.3"/>
<text text-anchor="middle" x="2137.43" y="-405.7" font-family="Times,serif" font-size="14.00">&lt;&lt;Interface&gt;&gt;</text>
<text text-anchor="middle" x="2137.43" y="-388.9" font-family="Times,serif" font-size="14.00">IERC721FeatureV01</text>
<text text-anchor="middle" x="2137.43" y="-372.1" font-family="Times,serif" font-size="14.00">contracts/collection/features/interfaces/IERC721FeatureV01.sol</text>
<polyline fill="none" stroke="black" points="1630.73,-363.9 2644.12,-363.9 "/>
<text text-anchor="start" x="1638.73" y="-347.3" font-family="Times,serif" font-size="14.00">External:</text>
<text text-anchor="start" x="1638.73" y="-330.5" font-family="Times,serif" font-size="14.00"> &#160;&#160;&#160;&#160;__ERC721Feature_initialize(name: string, symbol: string)</text>
<text text-anchor="start" x="1638.73" y="-313.7" font-family="Times,serif" font-size="14.00"> &#160;&#160;&#160;&#160;exists(tokenId: uint256): bool</text>
<text text-anchor="start" x="1638.73" y="-296.9" font-family="Times,serif" font-size="14.00"> &#160;&#160;&#160;&#160;transferFromWithProvenance(to: address, tokenId: uint256, historyMetadataHash: string, customHistoryId: uint256, isIntermediary: bool)</text>
<text text-anchor="start" x="1638.73" y="-280.1" font-family="Times,serif" font-size="14.00">Public:</text>
<text text-anchor="start" x="1638.73" y="-263.3" font-family="Times,serif" font-size="14.00"> &#160;&#160;&#160;&lt;&lt;event&gt;&gt; Provenance(tokenId: uint256, from: address, to: address, historyMetadataHash: string, historyMetadataURI: string, isIntermediary: bool)</text>
<text text-anchor="start" x="1638.73" y="-246.5" font-family="Times,serif" font-size="14.00"> &#160;&#160;&#160;&lt;&lt;event&gt;&gt; Provenance(tokenId: uint256, from: address, to: address, customHistoryId: uint256, historyMetadataHash: string, historyMetadataURI: string, isIntermediary: bool)</text>
</g>
<!-- 2&#45;&gt;47 -->
<g id="edge7" class="edge">
<title>2&#45;&gt;47</title>
<path fill="none" stroke="black" stroke-dasharray="5,2" d="M1766.51,-201.31C1798.9,-212.49 1831.84,-223.85 1864.03,-234.96"/>
<polygon fill="black" stroke="black" points="1862.95,-238.29 1873.54,-238.24 1865.23,-231.67 1862.95,-238.29"/>
</g>
<!-- 53 -->
<g id="node12" class="node">
<title>53</title>
<polygon fill="#f2f2f2" stroke="black" points="2661.86,-280.3 2661.86,-380.3 3038.99,-380.3 3038.99,-280.3 2661.86,-280.3"/>
<text text-anchor="middle" x="2850.43" y="-363.7" font-family="Times,serif" font-size="14.00">&lt;&lt;Interface&gt;&gt;</text>
<text text-anchor="middle" x="2850.43" y="-346.9" font-family="Times,serif" font-size="14.00">IOwnableFeatureV01</text>
<text text-anchor="middle" x="2850.43" y="-330.1" font-family="Times,serif" font-size="14.00">contracts/collection/features/interfaces/IOwnableFeatureV01.sol</text>
<polyline fill="none" stroke="black" points="2661.86,-321.9 3038.99,-321.9 "/>
<text text-anchor="start" x="2669.86" y="-305.3" font-family="Times,serif" font-size="14.00">External:</text>
<text text-anchor="start" x="2669.86" y="-288.5" font-family="Times,serif" font-size="14.00"> &#160;&#160;&#160;&#160;__OwnableFeature_initialize(initialOwner: address)</text>
</g>
<!-- 2&#45;&gt;53 -->
<g id="edge6" class="edge">
<title>2&#45;&gt;53</title>
<path fill="none" stroke="black" stroke-dasharray="5,2" d="M1846.51,-114.32C2081.09,-129.57 2389.46,-163.33 2653.43,-237.8 2686.32,-247.08 2720.61,-261.26 2751.19,-275.7"/>
<polygon fill="black" stroke="black" points="2750.02,-279.02 2760.55,-280.18 2753.05,-272.71 2750.02,-279.02"/>
</g>
<!-- 35 -->
<g id="node16" class="node">
<title>35</title>
<polygon fill="#f2f2f2" stroke="black" points="3057.45,-255.1 3057.45,-405.5 3421.4,-405.5 3421.4,-255.1 3057.45,-255.1"/>
<text text-anchor="middle" x="3239.43" y="-388.9" font-family="Times,serif" font-size="14.00">&lt;&lt;Library&gt;&gt;</text>
<text text-anchor="middle" x="3239.43" y="-372.1" font-family="Times,serif" font-size="14.00">LibEIP2771</text>
<text text-anchor="middle" x="3239.43" y="-355.3" font-family="Times,serif" font-size="14.00">contracts/collection/shared/LibEIP2771.sol</text>
<polyline fill="none" stroke="black" points="3057.45,-347.1 3421.4,-347.1 "/>
<text text-anchor="start" x="3065.45" y="-330.5" font-family="Times,serif" font-size="14.00">Internal:</text>
<text text-anchor="start" x="3065.45" y="-313.7" font-family="Times,serif" font-size="14.00"> &#160;&#160;&#160;isTrustedForwarder(featureRegistryAddress: address): bool</text>
<text text-anchor="start" x="3065.45" y="-296.9" font-family="Times,serif" font-size="14.00"> &#160;&#160;&#160;onlyTrustedForwarder(featureRegistryAddress: address)</text>
<text text-anchor="start" x="3065.45" y="-280.1" font-family="Times,serif" font-size="14.00"> &#160;&#160;&#160;onlyLicensedUser(featureRegistryAddress: address)</text>
<text text-anchor="start" x="3065.45" y="-263.3" font-family="Times,serif" font-size="14.00"> &#160;&#160;&#160;msgSender(featureRegistryAddress: address): (ret: address)</text>
</g>
<!-- 2&#45;&gt;35 -->
<g id="edge4" class="edge">
<title>2&#45;&gt;35</title>
<path fill="none" stroke="black" stroke-dasharray="5,2" d="M1846.44,-118.49C2237.84,-138.84 2830.03,-178.17 3048.43,-237.8 3061.97,-241.5 3075.72,-246.13 3089.32,-251.33"/>
<polygon fill="black" stroke="black" points="3088.12,-254.62 3098.71,-255.02 3090.68,-248.11 3088.12,-254.62"/>
</g>
<!-- 3 -->
<g id="node3" class="node">
<title>3</title>
<polygon fill="#f2f2f2" stroke="black" points="0,-492.9 0,-576.1 252.85,-576.1 252.85,-492.9 0,-492.9"/>
<text text-anchor="middle" x="126.43" y="-559.5" font-family="Times,serif" font-size="14.00">&lt;&lt;Constant&gt;&gt;</text>
<text text-anchor="middle" x="126.43" y="-542.7" font-family="Times,serif" font-size="14.00">SELECTOR_FACET_ADDRESS</text>
<text text-anchor="middle" x="126.43" y="-525.9" font-family="Times,serif" font-size="14.00">contracts/collection/CollectionProxy.sol</text>
<polyline fill="none" stroke="black" points="0,-517.7 252.85,-517.7 "/>
<text text-anchor="start" x="8" y="-501.1" font-family="Times,serif" font-size="14.00">SELECTOR_FACET_ADDRESS: bytes4</text>
</g>
<!-- 4 -->
<g id="node4" class="node">
<title>4</title>
<polygon fill="#f2f2f2" stroke="black" points="270.94,-492.9 270.94,-576.1 561.91,-576.1 561.91,-492.9 270.94,-492.9"/>
<text text-anchor="middle" x="416.43" y="-559.5" font-family="Times,serif" font-size="14.00">&lt;&lt;Constant&gt;&gt;</text>
<text text-anchor="middle" x="416.43" y="-542.7" font-family="Times,serif" font-size="14.00">SELECTOR_SUPPORTS_INTERFACE</text>
<text text-anchor="middle" x="416.43" y="-525.9" font-family="Times,serif" font-size="14.00">contracts/collection/CollectionProxy.sol</text>
<polyline fill="none" stroke="black" points="270.94,-517.7 561.91,-517.7 "/>
<text text-anchor="start" x="278.94" y="-501.1" font-family="Times,serif" font-size="14.00">SELECTOR_SUPPORTS_INTERFACE: bytes4</text>
</g>
<!-- 5 -->
<g id="node5" class="node">
<title>5</title>
<polygon fill="#f2f2f2" stroke="black" points="580.39,-492.9 580.39,-576.1 916.46,-576.1 916.46,-492.9 580.39,-492.9"/>
<text text-anchor="middle" x="748.43" y="-559.5" font-family="Times,serif" font-size="14.00">&lt;&lt;Constant&gt;&gt;</text>
<text text-anchor="middle" x="748.43" y="-542.7" font-family="Times,serif" font-size="14.00">SELECTOR_GET_SUPPORTED_INTERFACE</text>
<text text-anchor="middle" x="748.43" y="-525.9" font-family="Times,serif" font-size="14.00">contracts/collection/CollectionProxy.sol</text>
<polyline fill="none" stroke="black" points="580.39,-517.7 916.46,-517.7 "/>
<text text-anchor="start" x="588.39" y="-501.1" font-family="Times,serif" font-size="14.00">SELECTOR_GET_SUPPORTED_INTERFACE: bytes4</text>
</g>
<!-- 6&#45;&gt;3 -->
<g id="edge13" class="edge">
<title>6&#45;&gt;3</title>
<path fill="none" stroke="black" stroke-dasharray="5,2" d="M936.28,-420.34C933.33,-421.2 930.37,-422.03 927.43,-422.8 641.14,-497.95 547.04,-377.52 262.43,-458.8 239.53,-465.34 216.24,-476.26 195.55,-487.77"/>
<polygon fill="black" stroke="black" points="193.81,-484.73 186.85,-492.72 197.27,-490.82 193.81,-484.73"/>
</g>
<!-- 6&#45;&gt;4 -->
<g id="edge12" class="edge">
<title>6&#45;&gt;4</title>
<path fill="none" stroke="black" stroke-dasharray="5,2" d="M936.23,-420.14C933.29,-421.07 930.35,-421.96 927.43,-422.8 774.59,-466.76 724.48,-415.63 571.43,-458.8 546.3,-465.89 520.26,-476.84 496.87,-488.2"/>
<polygon fill="black" stroke="black" points="495.11,-485.16 487.7,-492.73 498.21,-491.44 495.11,-485.16"/>
</g>
<!-- 6&#45;&gt;5 -->
<g id="edge11" class="edge">
<title>6&#45;&gt;5</title>
<path fill="none" stroke="black" stroke-dasharray="5,2" d="M948.53,-422.34C907.82,-444.96 865.89,-468.25 831,-487.63"/>
<polygon fill="black" stroke="black" points="828.86,-484.81 821.82,-492.73 832.26,-490.93 828.86,-484.81"/>
</g>
<!-- 6&#45;&gt;8 -->
<g id="edge10" class="edge">
<title>6&#45;&gt;8</title>
<path fill="none" stroke="black" stroke-dasharray="5,2" d="M1247.51,-422.34C1280.77,-444.76 1315.02,-467.85 1343.63,-487.13"/>
<polygon fill="black" stroke="black" points="1341.69,-490.04 1351.93,-492.73 1345.6,-484.24 1341.69,-490.04"/>
</g>
<!-- 7 -->
<g id="node8" class="node">
<title>7</title>
<polygon fill="#f2f2f2" stroke="black" points="1243.47,-646.7 1243.47,-805.1 1581.38,-805.1 1581.38,-646.7 1243.47,-646.7"/>
<text text-anchor="middle" x="1412.43" y="-788.5" font-family="Times,serif" font-size="14.00">&lt;&lt;Library&gt;&gt;</text>
<text text-anchor="middle" x="1412.43" y="-771.7" font-family="Times,serif" font-size="14.00">CollectionProxyStorage</text>
<text text-anchor="middle" x="1412.43" y="-754.9" font-family="Times,serif" font-size="14.00">contracts/collection/CollectionProxyStorage.sol</text>
<polyline fill="none" stroke="black" points="1243.47,-746.7 1581.38,-746.7 "/>
<text text-anchor="start" x="1251.47" y="-730.1" font-family="Times,serif" font-size="14.00">Internal:</text>
<text text-anchor="start" x="1251.47" y="-713.3" font-family="Times,serif" font-size="14.00"> &#160;&#160;STORAGE_SLOT: bytes32</text>
<polyline fill="none" stroke="black" points="1243.47,-705.1 1581.38,-705.1 "/>
<text text-anchor="start" x="1251.47" y="-688.5" font-family="Times,serif" font-size="14.00">Internal:</text>
<text text-anchor="start" x="1251.47" y="-671.7" font-family="Times,serif" font-size="14.00"> &#160;&#160;&#160;layout(): (l: Layout)</text>
<text text-anchor="start" x="1251.47" y="-654.9" font-family="Times,serif" font-size="14.00"> &#160;&#160;&#160;setFeatureRegistry(l: Layout, featureRegistry: address)</text>
</g>
<!-- 6&#45;&gt;7 -->
<g id="edge9" class="edge">
<title>6&#45;&gt;7</title>
<path fill="none" stroke="black" stroke-dasharray="5,2" d="M986.68,-422.4C977.43,-433.65 969.41,-445.81 963.43,-458.8 935.28,-519.92 922.15,-557.06 963.43,-610.2 997.23,-653.72 1123.43,-683.51 1233.46,-701.8"/>
<polygon fill="black" stroke="black" points="1232.94,-705.26 1243.37,-703.42 1234.07,-698.35 1232.94,-705.26"/>
</g>
<!-- 10 -->
<g id="node10" class="node">
<title>10</title>
<polygon fill="#f2f2f2" stroke="black" points="972.4,-459.3 972.4,-609.7 1252.46,-609.7 1252.46,-459.3 972.4,-459.3"/>
<text text-anchor="middle" x="1112.43" y="-593.1" font-family="Times,serif" font-size="14.00">&lt;&lt;Abstract&gt;&gt;</text>
<text text-anchor="middle" x="1112.43" y="-576.3" font-family="Times,serif" font-size="14.00">Proxy</text>
<text text-anchor="middle" x="1112.43" y="-559.5" font-family="Times,serif" font-size="14.00">contracts/collection/Proxy.sol</text>
<polyline fill="none" stroke="black" points="972.4,-551.3 1252.46,-551.3 "/>
<text text-anchor="start" x="980.4" y="-534.7" font-family="Times,serif" font-size="14.00">Internal:</text>
<text text-anchor="start" x="980.4" y="-517.9" font-family="Times,serif" font-size="14.00"> &#160;&#160;&#160;&lt;&lt;abstract&gt;&gt; _getImplementation(): address</text>
<text text-anchor="start" x="980.4" y="-501.1" font-family="Times,serif" font-size="14.00"> &#160;&#160;&#160;handleFallback()</text>
<text text-anchor="start" x="980.4" y="-484.3" font-family="Times,serif" font-size="14.00">External:</text>
<text text-anchor="start" x="980.4" y="-467.5" font-family="Times,serif" font-size="14.00"> &#160;&#160;&#160;&lt;&lt;payable&gt;&gt; null()</text>
</g>
<!-- 6&#45;&gt;10 -->
<g id="edge8" class="edge">
<title>6&#45;&gt;10</title>
<path fill="none" stroke="black" d="M1112.43,-422.34C1112.43,-424.55 1112.43,-426.76 1112.43,-428.97"/>
<polygon fill="none" stroke="black" points="1101.93,-429 1112.43,-459 1122.93,-429 1101.93,-429"/>
</g>
<!-- 8&#45;&gt;7 -->
<g id="edge14" class="edge">
<title>8&#45;&gt;7</title>
<path fill="none" stroke="black" d="M1406.77,-576.13C1405.99,-593.22 1405.63,-613.85 1405.68,-634.23"/>
<polygon fill="black" stroke="black" points="1405.68,-634.51 1409.72,-640.48 1405.77,-646.51 1401.72,-640.54 1405.68,-634.51"/>
</g>
<!-- 7&#45;&gt;8 -->
<g id="edge15" class="edge">
<title>7&#45;&gt;8</title>
<path fill="none" stroke="black" stroke-dasharray="5,2" d="M1419.09,-646.51C1419.31,-626.2 1419.11,-604.85 1418.49,-586.37"/>
<polygon fill="black" stroke="black" points="1421.97,-585.99 1418.08,-576.13 1414.98,-586.26 1421.97,-585.99"/>
</g>
<!-- 93 -->
<g id="node13" class="node">
<title>93</title>
<polygon fill="#f2f2f2" stroke="black" points="2625.52,-476.1 2625.52,-592.9 3077.33,-592.9 3077.33,-476.1 2625.52,-476.1"/>
<text text-anchor="middle" x="2851.43" y="-576.3" font-family="Times,serif" font-size="14.00">&lt;&lt;Interface&gt;&gt;</text>
<text text-anchor="middle" x="2851.43" y="-559.5" font-family="Times,serif" font-size="14.00">IStartrailCollectionFeatureRegistry</text>
<text text-anchor="middle" x="2851.43" y="-542.7" font-family="Times,serif" font-size="14.00">contracts/collection/registry/interfaces/IStartrailCollectionFeatureRegistry.sol</text>
<polyline fill="none" stroke="black" points="2625.52,-534.5 3077.33,-534.5 "/>
<text text-anchor="start" x="2633.52" y="-517.9" font-family="Times,serif" font-size="14.00">External:</text>
<text text-anchor="start" x="2633.52" y="-501.1" font-family="Times,serif" font-size="14.00"> &#160;&#160;&#160;&#160;getEIP2771TrustedForwarder(): address</text>
<text text-anchor="start" x="2633.52" y="-484.3" font-family="Times,serif" font-size="14.00"> &#160;&#160;&#160;&#160;getNameRegistry(): address</text>
</g>
<!-- 33 -->
<g id="node14" class="node">
<title>33</title>
<polygon fill="#f2f2f2" stroke="black" points="3095.16,-484.5 3095.16,-584.5 3383.69,-584.5 3383.69,-484.5 3095.16,-484.5"/>
<text text-anchor="middle" x="3239.43" y="-567.9" font-family="Times,serif" font-size="14.00">&lt;&lt;Interface&gt;&gt;</text>
<text text-anchor="middle" x="3239.43" y="-551.1" font-family="Times,serif" font-size="14.00">ILUM</text>
<text text-anchor="middle" x="3239.43" y="-534.3" font-family="Times,serif" font-size="14.00">contracts/collection/shared/LibEIP2771.sol</text>
<polyline fill="none" stroke="black" points="3095.16,-526.1 3383.69,-526.1 "/>
<text text-anchor="start" x="3103.16" y="-509.5" font-family="Times,serif" font-size="14.00">External:</text>
<text text-anchor="start" x="3103.16" y="-492.7" font-family="Times,serif" font-size="14.00"> &#160;&#160;&#160;&#160;isActiveWallet(walletAddress: address): bool</text>
</g>
<!-- 34 -->
<g id="node15" class="node">
<title>34</title>
<polygon fill="#f2f2f2" stroke="black" points="3401.51,-492.9 3401.51,-576.1 3801.34,-576.1 3801.34,-492.9 3401.51,-492.9"/>
<text text-anchor="middle" x="3601.43" y="-559.5" font-family="Times,serif" font-size="14.00">&lt;&lt;Constant&gt;&gt;</text>
<text text-anchor="middle" x="3601.43" y="-542.7" font-family="Times,serif" font-size="14.00">NAME_REGISTRY_KEY_LICENSED_USER_MANAGER</text>
<text text-anchor="middle" x="3601.43" y="-525.9" font-family="Times,serif" font-size="14.00">contracts/collection/shared/LibEIP2771.sol</text>
<polyline fill="none" stroke="black" points="3401.51,-517.7 3801.34,-517.7 "/>
<text text-anchor="start" x="3409.51" y="-501.1" font-family="Times,serif" font-size="14.00">NAME_REGISTRY_KEY_LICENSED_USER_MANAGER: uint8</text>
</g>
<!-- 35&#45;&gt;93 -->
<g id="edge16" class="edge">
<title>35&#45;&gt;93</title>
<path fill="none" stroke="black" stroke-dasharray="5,2" d="M3096.88,-405.59C3055.37,-427.22 3010.49,-450.61 2970.59,-471.4"/>
<polygon fill="black" stroke="black" points="2968.87,-468.35 2961.62,-476.07 2972.11,-474.55 2968.87,-468.35"/>
</g>
<!-- 35&#45;&gt;33 -->
<g id="edge17" class="edge">
<title>35&#45;&gt;33</title>
<path fill="none" stroke="black" stroke-dasharray="5,2" d="M3239.43,-405.73C3239.43,-428.28 3239.43,-452.73 3239.43,-474.15"/>
<polygon fill="black" stroke="black" points="3235.93,-474.4 3239.43,-484.4 3242.93,-474.4 3235.93,-474.4"/>
</g>
<!-- 35&#45;&gt;34 -->
<g id="edge18" class="edge">
<title>35&#45;&gt;34</title>
<path fill="none" stroke="black" stroke-dasharray="5,2" d="M3372.42,-405.59C3421.77,-433.15 3476.24,-463.58 3519.67,-487.84"/>
<polygon fill="black" stroke="black" points="3518.05,-490.94 3528.49,-492.76 3521.47,-484.83 3518.05,-490.94"/>
</g>
</g>
</svg>
