<?xml version="1.0" encoding="UTF-8" standalone="no"?>
<!DOCTYPE svg PUBLIC "-//W3C//DTD SVG 1.1//EN"
 "http://www.w3.org/Graphics/SVG/1.1/DTD/svg11.dtd">
<!-- Generated by graphviz version 2.40.1 (20161225.0304)
 -->
<!-- Title: UmlClassDiagram Pages: 1 -->
<svg width="680pt" height="396pt"
 viewBox="0.00 0.00 679.90 396.40" xmlns="http://www.w3.org/2000/svg" xmlns:xlink="http://www.w3.org/1999/xlink">
<g id="graph0" class="graph" transform="scale(1 1) rotate(0) translate(4 392.4)">
<title>UmlClassDiagram</title>
<polygon fill="#ffffff" stroke="transparent" points="-4,4 -4,-392.4 675.8964,-392.4 675.8964,4 -4,4"/>
<!-- 2 -->
<g id="node1" class="node">
<title>2</title>
<polygon fill="#f2f2f2" stroke="#000000" points="319.9916,-.5 319.9916,-192.5 671.8964,-192.5 671.8964,-.5 319.9916,-.5"/>
<text text-anchor="middle" x="495.944" y="-175.9" font-family="Times,serif" font-size="14.00" fill="#000000">CollectionProxy</text>
<polyline fill="none" stroke="#000000" points="319.9916,-167.7 671.8964,-167.7 "/>
<text text-anchor="middle" x="495.944" y="-151.1" font-family="Times,serif" font-size="14.00" fill="#000000"> </text>
<polyline fill="none" stroke="#000000" points="319.9916,-142.9 671.8964,-142.9 "/>
<text text-anchor="start" x="327.9916" y="-126.3" font-family="Times,serif" font-size="14.00" fill="#000000">Private:</text>
<text text-anchor="start" x="327.9916" y="-109.5" font-family="Times,serif" font-size="14.00" fill="#000000"> &#160;&#160;&#160;staticcallSupportsInterfaceOnFeatureRegistry()</text>
<text text-anchor="start" x="327.9916" y="-92.7" font-family="Times,serif" font-size="14.00" fill="#000000">Internal:</text>
<text text-anchor="start" x="327.9916" y="-75.9" font-family="Times,serif" font-size="14.00" fill="#000000"> &#160;&#160;&#160;_getImplementation(): (implementationAddress: address)</text>
<text text-anchor="start" x="327.9916" y="-59.1" font-family="Times,serif" font-size="14.00" fill="#000000">External:</text>
<text text-anchor="start" x="327.9916" y="-42.3" font-family="Times,serif" font-size="14.00" fill="#000000"> &#160;&#160;&#160;&lt;&lt;payable&gt;&gt; null()</text>
<text text-anchor="start" x="327.9916" y="-25.5" font-family="Times,serif" font-size="14.00" fill="#000000"> &#160;&#160;&#160;&lt;&lt;payable&gt;&gt; null()</text>
<text text-anchor="start" x="327.9916" y="-8.7" font-family="Times,serif" font-size="14.00" fill="#000000"> &#160;&#160;&#160;__CollectionProxy_initialize(_featureRegistry: address)</text>
</g>
<!-- 3 -->
<g id="node2" class="node">
<title>3</title>
<polygon fill="#f2f2f2" stroke="#000000" points="0,-237.9 0,-379.5 337.888,-379.5 337.888,-237.9 0,-237.9"/>
<text text-anchor="middle" x="168.944" y="-362.9" font-family="Times,serif" font-size="14.00" fill="#000000">&lt;&lt;Library&gt;&gt;</text>
<text text-anchor="middle" x="168.944" y="-346.1" font-family="Times,serif" font-size="14.00" fill="#000000">CollectionProxyStorage</text>
<polyline fill="none" stroke="#000000" points="0,-337.9 337.888,-337.9 "/>
<text text-anchor="start" x="8" y="-321.3" font-family="Times,serif" font-size="14.00" fill="#000000">Internal:</text>
<text text-anchor="start" x="8" y="-304.5" font-family="Times,serif" font-size="14.00" fill="#000000"> &#160;&#160;STORAGE_SLOT: bytes32</text>
<polyline fill="none" stroke="#000000" points="0,-296.3 337.888,-296.3 "/>
<text text-anchor="start" x="8" y="-279.7" font-family="Times,serif" font-size="14.00" fill="#000000">Internal:</text>
<text text-anchor="start" x="8" y="-262.9" font-family="Times,serif" font-size="14.00" fill="#000000"> &#160;&#160;&#160;layout(): (l: Layout)</text>
<text text-anchor="start" x="8" y="-246.1" font-family="Times,serif" font-size="14.00" fill="#000000"> &#160;&#160;&#160;setFeatureRegistry(l: Layout, featureRegistry: address)</text>
</g>
<!-- 2&#45;&gt;3 -->
<g id="edge3" class="edge">
<title>2&#45;&gt;3</title>
<path fill="none" stroke="#000000" stroke-dasharray="5,2" d="M347.7522,-192.6661C327.3473,-205.9074 306.6216,-219.3569 286.8613,-232.18"/>
<polygon fill="#000000" stroke="#000000" points="284.9388,-229.2551 278.4555,-237.6347 288.7493,-235.1271 284.9388,-229.2551"/>
</g>
<!-- 5 -->
<g id="node4" class="node">
<title>5</title>
<polygon fill="#f2f2f2" stroke="#000000" points="355.9177,-229.5 355.9177,-387.9 635.9703,-387.9 635.9703,-229.5 355.9177,-229.5"/>
<text text-anchor="middle" x="495.944" y="-371.3" font-family="Times,serif" font-size="14.00" fill="#000000">&lt;&lt;Abstract&gt;&gt;</text>
<text text-anchor="middle" x="495.944" y="-354.5" font-family="Times,serif" font-size="14.00" fill="#000000">Proxy</text>
<polyline fill="none" stroke="#000000" points="355.9177,-346.3 635.9703,-346.3 "/>
<text text-anchor="middle" x="495.944" y="-329.7" font-family="Times,serif" font-size="14.00" fill="#000000"> </text>
<polyline fill="none" stroke="#000000" points="355.9177,-321.5 635.9703,-321.5 "/>
<text text-anchor="start" x="363.9177" y="-304.9" font-family="Times,serif" font-size="14.00" fill="#000000">Internal:</text>
<text text-anchor="start" x="363.9177" y="-288.1" font-family="Times,serif" font-size="14.00" fill="#000000"> &#160;&#160;&#160;&lt;&lt;abstract&gt;&gt; _getImplementation(): address</text>
<text text-anchor="start" x="363.9177" y="-271.3" font-family="Times,serif" font-size="14.00" fill="#000000"> &#160;&#160;&#160;handleFallback()</text>
<text text-anchor="start" x="363.9177" y="-254.5" font-family="Times,serif" font-size="14.00" fill="#000000">External:</text>
<text text-anchor="start" x="363.9177" y="-237.7" font-family="Times,serif" font-size="14.00" fill="#000000"> &#160;&#160;&#160;&lt;&lt;payable&gt;&gt; null()</text>
</g>
<!-- 2&#45;&gt;5 -->
<g id="edge2" class="edge">
<title>2&#45;&gt;5</title>
<path fill="none" stroke="#000000" d="M495.944,-192.6661C495.944,-194.873 495.944,-197.0856 495.944,-199.3002"/>
<polygon fill="none" stroke="#000000" points="485.4441,-199.3828 495.944,-229.3828 506.4441,-199.3828 485.4441,-199.3828"/>
</g>
<!-- 3struct0 -->
<g id="node3" class="node">
<title>3struct0</title>
<polygon fill="#f2f2f2" stroke="#000000" points="93.1126,-63.3 93.1126,-129.7 244.7754,-129.7 244.7754,-63.3 93.1126,-63.3"/>
<text text-anchor="middle" x="168.944" y="-113.1" font-family="Times,serif" font-size="14.00" fill="#000000">&lt;&lt;struct&gt;&gt;</text>
<text text-anchor="middle" x="168.944" y="-96.3" font-family="Times,serif" font-size="14.00" fill="#000000">Layout</text>
<polyline fill="none" stroke="#000000" points="93.1126,-88.1 244.7754,-88.1 "/>
<text text-anchor="start" x="101.1126" y="-71.5" font-family="Times,serif" font-size="14.00" fill="#000000">featureRegistry: address</text>
</g>
<!-- 3struct0&#45;&gt;3 -->
<g id="edge1" class="edge">
<title>3struct0&#45;&gt;3</title>
<path fill="none" stroke="#000000" d="M168.944,-130.1237C168.944,-155.728 168.944,-192.119 168.944,-225.3765"/>
<polygon fill="#000000" stroke="#000000" points="168.9441,-225.4617 172.944,-231.4617 168.944,-237.4617 164.944,-231.4617 168.9441,-225.4617"/>
</g>
</g>
</svg>
