<?xml version="1.0" encoding="UTF-8" standalone="no"?>
<!DOCTYPE svg PUBLIC "-//W3C//DTD SVG 1.1//EN"
 "http://www.w3.org/Graphics/SVG/1.1/DTD/svg11.dtd">
<!-- Generated by graphviz version 5.0.0 (20220707.1540)
 -->
<!-- Title: UmlClassDiagram Pages: 1 -->
<svg width="2091pt" height="1393pt"
 viewBox="0.00 0.00 2091.17 1392.80" xmlns="http://www.w3.org/2000/svg" xmlns:xlink="http://www.w3.org/1999/xlink">
<g id="graph0" class="graph" transform="scale(1 1) rotate(0) translate(4 1388.8)">
<title>UmlClassDiagram</title>
<polygon fill="white" stroke="transparent" points="-4,4 -4,-1388.8 2087.17,-1388.8 2087.17,4 -4,4"/>
<!-- 1 -->
<g id="node1" class="node">
<title>1</title>
<polygon fill="#f2f2f2" stroke="black" points="720,-0.5 720,-100.5 1013.17,-100.5 1013.17,-0.5 720,-0.5"/>
<text text-anchor="middle" x="866.58" y="-83.9" font-family="Times,serif" font-size="14.00">&lt;&lt;Enum&gt;&gt;</text>
<text text-anchor="middle" x="866.58" y="-67.1" font-family="Times,serif" font-size="14.00">UserType</text>
<text text-anchor="middle" x="866.58" y="-50.3" font-family="Times,serif" font-size="14.00">contracts/licensedUser/LicensedUserManager.sol</text>
<polyline fill="none" stroke="black" points="720,-42.1 1013.17,-42.1 "/>
<text text-anchor="start" x="728" y="-25.5" font-family="Times,serif" font-size="14.00">HANDLER: 0</text>
<text text-anchor="start" x="728" y="-8.7" font-family="Times,serif" font-size="14.00">ARTIST: 1</text>
</g>
<!-- 0 -->
<g id="node4" class="node">
<title>0</title>
<polygon fill="#f2f2f2" stroke="black" points="352.15,-137.5 352.15,-699.1 1381.02,-699.1 1381.02,-137.5 352.15,-137.5"/>
<text text-anchor="middle" x="866.58" y="-682.5" font-family="Times,serif" font-size="14.00">LicensedUserManager</text>
<text text-anchor="middle" x="866.58" y="-665.7" font-family="Times,serif" font-size="14.00">contracts/licensedUser/LicensedUserManager.sol</text>
<polyline fill="none" stroke="black" points="352.15,-657.5 1381.02,-657.5 "/>
<text text-anchor="start" x="360.15" y="-640.9" font-family="Times,serif" font-size="14.00">Internal:</text>
<text text-anchor="start" x="360.15" y="-624.1" font-family="Times,serif" font-size="14.00"> &#160;&#160;IS_VALID_SIG_SUCCESS: bytes4</text>
<text text-anchor="start" x="360.15" y="-607.3" font-family="Times,serif" font-size="14.00"> &#160;&#160;luws: mapping(address=&gt;LicensedUser)</text>
<text text-anchor="start" x="360.15" y="-590.5" font-family="Times,serif" font-size="14.00">Public:</text>
<text text-anchor="start" x="360.15" y="-573.7" font-family="Times,serif" font-size="14.00"> &#160;&#160;PROXY_CODEHASH: bytes32</text>
<polyline fill="none" stroke="black" points="352.15,-565.5 1381.02,-565.5 "/>
<text text-anchor="start" x="360.15" y="-548.9" font-family="Times,serif" font-size="14.00">Private:</text>
<text text-anchor="start" x="360.15" y="-532.1" font-family="Times,serif" font-size="14.00"> &#160;&#160;&#160;createWalletInternal(_details: LicensedUserDto, _walletAddress: address, _salt: bytes32) &lt;&lt;isValidCreateWalletRequest&gt;&gt;</text>
<text text-anchor="start" x="360.15" y="-515.3" font-family="Times,serif" font-size="14.00"> &#160;&#160;&#160;emitCreateLicensedUserWallet(_walletAddress: address, _salt: bytes32)</text>
<text text-anchor="start" x="360.15" y="-498.5" font-family="Times,serif" font-size="14.00"> &#160;&#160;&#160;singleToMulti(_walletAddress: address, _owners: address[], _threshold: uint8)</text>
<text text-anchor="start" x="360.15" y="-481.7" font-family="Times,serif" font-size="14.00">External:</text>
<text text-anchor="start" x="360.15" y="-464.9" font-family="Times,serif" font-size="14.00"> &#160;&#160;&#160;isValidSignatureSet(_walletAddress: address, _hash: bytes32, _signatures: bytes): bytes4 &lt;&lt;onlyActiveWallet&gt;&gt;</text>
<text text-anchor="start" x="360.15" y="-448.1" font-family="Times,serif" font-size="14.00">Public:</text>
<text text-anchor="start" x="360.15" y="-431.3" font-family="Times,serif" font-size="14.00"> &#160;&#160;&#160;&lt;&lt;event&gt;&gt; CreateLicensedUserWallet(walletAddress: address, owners: address[], threshold: uint8, englishName: string, originalName: string, userType: UserType, salt: bytes32)</text>
<text text-anchor="start" x="360.15" y="-414.5" font-family="Times,serif" font-size="14.00"> &#160;&#160;&#160;&lt;&lt;event&gt;&gt; UpgradeLicensedUserWalletToMulti(walletAddress: address, owners: address[], threshold: uint8)</text>
<text text-anchor="start" x="360.15" y="-397.7" font-family="Times,serif" font-size="14.00"> &#160;&#160;&#160;&lt;&lt;event&gt;&gt; UpdateLicensedUserDetail(walletAddress: address, key: string, value: string)</text>
<text text-anchor="start" x="360.15" y="-380.9" font-family="Times,serif" font-size="14.00"> &#160;&#160;&#160;&lt;&lt;event&gt;&gt; MigrateLicensedUserWallet(walletAddress: address, originChain: string, originTimestamp: uint256)</text>
<text text-anchor="start" x="360.15" y="-364.1" font-family="Times,serif" font-size="14.00"> &#160;&#160;&#160;&lt;&lt;modifier&gt;&gt; onlyActiveWallet(_wallet: address)</text>
<text text-anchor="start" x="360.15" y="-347.3" font-family="Times,serif" font-size="14.00"> &#160;&#160;&#160;&lt;&lt;modifier&gt;&gt; isValidCreateWalletRequest(_walletAddress: address, _englishName: string, _originalName: string)</text>
<text text-anchor="start" x="360.15" y="-330.5" font-family="Times,serif" font-size="14.00"> &#160;&#160;&#160;createWallet(_details: LicensedUserDto, _salt: bytes32): (walletAddress: address) &lt;&lt;onlyAdministrator&gt;&gt;</text>
<text text-anchor="start" x="360.15" y="-313.7" font-family="Times,serif" font-size="14.00"> &#160;&#160;&#160;createWalletFromMigration(_details: LicensedUserDto, _walletAddress: address, _originChain: string, _originTimestamp: uint256) &lt;&lt;onlyAdministrator&gt;&gt;</text>
<text text-anchor="start" x="360.15" y="-296.9" font-family="Times,serif" font-size="14.00"> &#160;&#160;&#160;addOwner(_walletAddress: address, _owner: address, _threshold: uint8) &lt;&lt;onlyActiveWallet, onlyWalletOrAdministrator&gt;&gt;</text>
<text text-anchor="start" x="360.15" y="-280.1" font-family="Times,serif" font-size="14.00"> &#160;&#160;&#160;walletExists(_walletAddress: address): bool</text>
<text text-anchor="start" x="360.15" y="-263.3" font-family="Times,serif" font-size="14.00"> &#160;&#160;&#160;isSingleOwner(_walletAddress: address): bool</text>
<text text-anchor="start" x="360.15" y="-246.5" font-family="Times,serif" font-size="14.00"> &#160;&#160;&#160;isActiveWallet(_walletAddress: address): bool</text>
<text text-anchor="start" x="360.15" y="-229.7" font-family="Times,serif" font-size="14.00"> &#160;&#160;&#160;getLicensedUser(_walletAddress: address): (owners: address[], threshold: uint8, active: bool, userType: UserType, englishName: string, originalName: string)</text>
<text text-anchor="start" x="360.15" y="-212.9" font-family="Times,serif" font-size="14.00"> &#160;&#160;&#160;getThreshold(_walletAddress: address): uint8</text>
<text text-anchor="start" x="360.15" y="-196.1" font-family="Times,serif" font-size="14.00"> &#160;&#160;&#160;getOwners(_walletAddress: address): (owners: address[])</text>
<text text-anchor="start" x="360.15" y="-179.3" font-family="Times,serif" font-size="14.00"> &#160;&#160;&#160;isOwner(_walletAddress: address, _owner: address): bool</text>
<text text-anchor="start" x="360.15" y="-162.5" font-family="Times,serif" font-size="14.00"> &#160;&#160;&#160;setOriginalName(_walletAddress: address, _name: string) &lt;&lt;onlyWalletOrAdministrator, onlyActiveWallet&gt;&gt;</text>
<text text-anchor="start" x="360.15" y="-145.7" font-family="Times,serif" font-size="14.00"> &#160;&#160;&#160;setEnglishName(_walletAddress: address, _name: string) &lt;&lt;onlyWalletOrAdministrator, onlyActiveWallet&gt;&gt;</text>
</g>
<!-- 1&#45;&gt;0 -->
<g id="edge3" class="edge">
<title>1&#45;&gt;0</title>
<path fill="none" stroke="black" d="M861.8,-100.83C861.52,-108.34 861.27,-116.51 861.04,-125.2"/>
<polygon fill="black" stroke="black" points="861.04,-125.35 864.9,-131.44 860.76,-137.35 856.9,-131.26 861.04,-125.35"/>
</g>
<!-- 2 -->
<g id="node2" class="node">
<title>2</title>
<polygon fill="#f2f2f2" stroke="black" points="0,-908.1 0,-1058.5 293.17,-1058.5 293.17,-908.1 0,-908.1"/>
<text text-anchor="middle" x="146.58" y="-1041.9" font-family="Times,serif" font-size="14.00">&lt;&lt;Struct&gt;&gt;</text>
<text text-anchor="middle" x="146.58" y="-1025.1" font-family="Times,serif" font-size="14.00">LicensedUser</text>
<text text-anchor="middle" x="146.58" y="-1008.3" font-family="Times,serif" font-size="14.00">contracts/licensedUser/LicensedUserManager.sol</text>
<polyline fill="none" stroke="black" points="0,-1000.1 293.17,-1000.1 "/>
<text text-anchor="start" x="8" y="-983.5" font-family="Times,serif" font-size="14.00">owner: address</text>
<text text-anchor="start" x="8" y="-966.7" font-family="Times,serif" font-size="14.00">active: bool</text>
<text text-anchor="start" x="8" y="-949.9" font-family="Times,serif" font-size="14.00">userType: UserType</text>
<text text-anchor="start" x="8" y="-933.1" font-family="Times,serif" font-size="14.00">englishName: string</text>
<text text-anchor="start" x="8" y="-916.3" font-family="Times,serif" font-size="14.00">originalName: string</text>
</g>
<!-- 2&#45;&gt;1 -->
<g id="edge1" class="edge">
<title>2&#45;&gt;1</title>
<path fill="none" stroke="black" stroke-dasharray="5,2" d="M139.12,-907.89C127.04,-742.49 123.61,-342.73 343.58,-137 395.54,-88.41 575.54,-67.33 709.95,-58.25"/>
<polygon fill="black" stroke="black" points="710.21,-61.74 719.96,-57.59 709.75,-54.75 710.21,-61.74"/>
</g>
<!-- 2&#45;&gt;0 -->
<g id="edge4" class="edge">
<title>2&#45;&gt;0</title>
<path fill="none" stroke="black" d="M188.55,-908.01C217.39,-855.11 259.56,-784.95 311.58,-735.6 321.85,-725.87 332.46,-716.33 343.37,-706.98"/>
<polygon fill="black" stroke="black" points="343.44,-706.92 345.44,-700 352.61,-699.18 350.61,-706.11 343.44,-706.92"/>
</g>
<!-- 3 -->
<g id="node3" class="node">
<title>3</title>
<polygon fill="#f2f2f2" stroke="black" points="1790,-908.1 1790,-1058.5 2083.17,-1058.5 2083.17,-908.1 1790,-908.1"/>
<text text-anchor="middle" x="1936.58" y="-1041.9" font-family="Times,serif" font-size="14.00">&lt;&lt;Struct&gt;&gt;</text>
<text text-anchor="middle" x="1936.58" y="-1025.1" font-family="Times,serif" font-size="14.00">LicensedUserDto</text>
<text text-anchor="middle" x="1936.58" y="-1008.3" font-family="Times,serif" font-size="14.00">contracts/licensedUser/LicensedUserManager.sol</text>
<polyline fill="none" stroke="black" points="1790,-1000.1 2083.17,-1000.1 "/>
<text text-anchor="start" x="1798" y="-983.5" font-family="Times,serif" font-size="14.00">owners: address[]</text>
<text text-anchor="start" x="1798" y="-966.7" font-family="Times,serif" font-size="14.00">threshold: uint8</text>
<text text-anchor="start" x="1798" y="-949.9" font-family="Times,serif" font-size="14.00">userType: UserType</text>
<text text-anchor="start" x="1798" y="-933.1" font-family="Times,serif" font-size="14.00">englishName: string</text>
<text text-anchor="start" x="1798" y="-916.3" font-family="Times,serif" font-size="14.00">originalName: string</text>
</g>
<!-- 3&#45;&gt;1 -->
<g id="edge2" class="edge">
<title>3&#45;&gt;1</title>
<path fill="none" stroke="black" stroke-dasharray="5,2" d="M1912.24,-907.93C1852.89,-739.45 1683.66,-328.46 1389.58,-137 1330.55,-98.56 1155,-75.52 1023.45,-63.2"/>
<polygon fill="black" stroke="black" points="1023.54,-59.7 1013.26,-62.26 1022.9,-66.67 1023.54,-59.7"/>
</g>
<!-- 3&#45;&gt;0 -->
<g id="edge5" class="edge">
<title>3&#45;&gt;0</title>
<path fill="none" stroke="black" d="M1913.37,-907.98C1888.99,-853.31 1846.78,-780.92 1789.58,-735.6 1674.62,-644.51 1531.68,-578.75 1392.9,-531.65"/>
<polygon fill="black" stroke="black" points="1392.58,-531.54 1385.62,-533.42 1381.2,-527.72 1388.16,-525.84 1392.58,-531.54"/>
</g>
<!-- 0&#45;&gt;1 -->
<g id="edge8" class="edge">
<title>0&#45;&gt;1</title>
<path fill="none" stroke="black" stroke-dasharray="5,2" d="M872.41,-137.35C872.21,-128.01 871.98,-119.15 871.72,-110.92"/>
<polygon fill="black" stroke="black" points="875.22,-110.71 871.37,-100.83 868.22,-110.95 875.22,-110.71"/>
</g>
<!-- 0&#45;&gt;2 -->
<g id="edge9" class="edge">
<title>0&#45;&gt;2</title>
<path fill="none" stroke="black" d="M351.97,-685.04C331.59,-701.26 312.01,-718.12 293.58,-735.6 244.51,-782.15 204.2,-847.23 178.13,-898.86"/>
<polygon fill="black" stroke="black" points="174.9,-897.49 173.59,-908.01 181.17,-900.61 174.9,-897.49"/>
</g>
<!-- 0&#45;&gt;3 -->
<g id="edge10" class="edge">
<title>0&#45;&gt;3</title>
<path fill="none" stroke="black" stroke-dasharray="5,2" d="M1381.16,-533.55C1517.5,-580.52 1658.15,-645.73 1771.58,-735.6 1825.65,-778.44 1866.33,-845.47 1893.92,-898.86"/>
<polygon fill="black" stroke="black" points="1890.91,-900.67 1898.58,-907.98 1897.15,-897.48 1890.91,-900.67"/>
</g>
<!-- 4 -->
<g id="node6" class="node">
<title>4</title>
<polygon fill="#f2f2f2" stroke="black" points="311.64,-736.1 311.64,-1230.5 1069.53,-1230.5 1069.53,-736.1 311.64,-736.1"/>
<text text-anchor="middle" x="690.58" y="-1213.9" font-family="Times,serif" font-size="14.00">OwnerManager</text>
<text text-anchor="middle" x="690.58" y="-1197.1" font-family="Times,serif" font-size="14.00">contracts/licensedUser/OwnerManager.sol</text>
<polyline fill="none" stroke="black" points="311.64,-1188.9 1069.53,-1188.9 "/>
<text text-anchor="start" x="319.64" y="-1172.3" font-family="Times,serif" font-size="14.00">Internal:</text>
<text text-anchor="start" x="319.64" y="-1155.5" font-family="Times,serif" font-size="14.00"> &#160;&#160;SENTINEL_OWNERS: address</text>
<text text-anchor="start" x="319.64" y="-1138.7" font-family="Times,serif" font-size="14.00"> &#160;&#160;wallets: mapping(address=&gt;Wallet)</text>
<text text-anchor="start" x="319.64" y="-1121.9" font-family="Times,serif" font-size="14.00">Public:</text>
<text text-anchor="start" x="319.64" y="-1105.1" font-family="Times,serif" font-size="14.00"> &#160;&#160;nameRegistryAddress: address</text>
<polyline fill="none" stroke="black" points="311.64,-1096.9 1069.53,-1096.9 "/>
<text text-anchor="start" x="319.64" y="-1080.3" font-family="Times,serif" font-size="14.00">Internal:</text>
<text text-anchor="start" x="319.64" y="-1063.5" font-family="Times,serif" font-size="14.00"> &#160;&#160;&#160;isFromAdministrator(): bool</text>
<text text-anchor="start" x="319.64" y="-1046.7" font-family="Times,serif" font-size="14.00"> &#160;&#160;&#160;isFromWallet(_wallet: address): string</text>
<text text-anchor="start" x="319.64" y="-1029.9" font-family="Times,serif" font-size="14.00"> &#160;&#160;&#160;setupOwners(_wallet: address, _owners: address[], _threshold: uint8)</text>
<text text-anchor="start" x="319.64" y="-1013.1" font-family="Times,serif" font-size="14.00"> &#160;&#160;&#160;isEmptyString(_string: string): bool</text>
<text text-anchor="start" x="319.64" y="-996.3" font-family="Times,serif" font-size="14.00">External:</text>
<text text-anchor="start" x="319.64" y="-979.5" font-family="Times,serif" font-size="14.00"> &#160;&#160;&#160;initialize(_nameRegistryAddress: address, _trustedForwarder: address) &lt;&lt;initializer&gt;&gt;</text>
<text text-anchor="start" x="319.64" y="-962.7" font-family="Times,serif" font-size="14.00">Public:</text>
<text text-anchor="start" x="319.64" y="-945.9" font-family="Times,serif" font-size="14.00"> &#160;&#160;&#160;&lt;&lt;event&gt;&gt; AddedOwner(wallet: address, owner: address)</text>
<text text-anchor="start" x="319.64" y="-929.1" font-family="Times,serif" font-size="14.00"> &#160;&#160;&#160;&lt;&lt;event&gt;&gt; RemovedOwner(wallet: address, owner: address)</text>
<text text-anchor="start" x="319.64" y="-912.3" font-family="Times,serif" font-size="14.00"> &#160;&#160;&#160;&lt;&lt;event&gt;&gt; ChangedThreshold(wallet: address, threshold: uint8)</text>
<text text-anchor="start" x="319.64" y="-895.5" font-family="Times,serif" font-size="14.00"> &#160;&#160;&#160;&lt;&lt;modifier&gt;&gt; onlyAdministrator()</text>
<text text-anchor="start" x="319.64" y="-878.7" font-family="Times,serif" font-size="14.00"> &#160;&#160;&#160;&lt;&lt;modifier&gt;&gt; onlyWallet(_wallet: address)</text>
<text text-anchor="start" x="319.64" y="-861.9" font-family="Times,serif" font-size="14.00"> &#160;&#160;&#160;&lt;&lt;modifier&gt;&gt; onlyWalletOrAdministrator(_wallet: address)</text>
<text text-anchor="start" x="319.64" y="-845.1" font-family="Times,serif" font-size="14.00"> &#160;&#160;&#160;addOwner(_wallet: address, _owner: address, _threshold: uint8) &lt;&lt;onlyWalletOrAdministrator&gt;&gt;</text>
<text text-anchor="start" x="319.64" y="-828.3" font-family="Times,serif" font-size="14.00"> &#160;&#160;&#160;removeOwner(_wallet: address, _prevOwner: address, _owner: address, _threshold: uint8) &lt;&lt;onlyWalletOrAdministrator&gt;&gt;</text>
<text text-anchor="start" x="319.64" y="-811.5" font-family="Times,serif" font-size="14.00"> &#160;&#160;&#160;swapOwner(_wallet: address, _prevOwner: address, _oldOwner: address, _newOwner: address) &lt;&lt;onlyWalletOrAdministrator&gt;&gt;</text>
<text text-anchor="start" x="319.64" y="-794.7" font-family="Times,serif" font-size="14.00"> &#160;&#160;&#160;changeThreshold(_wallet: address, _threshold: uint8) &lt;&lt;onlyWalletOrAdministrator&gt;&gt;</text>
<text text-anchor="start" x="319.64" y="-777.9" font-family="Times,serif" font-size="14.00"> &#160;&#160;&#160;getThreshold(_wallet: address): uint8</text>
<text text-anchor="start" x="319.64" y="-761.1" font-family="Times,serif" font-size="14.00"> &#160;&#160;&#160;isOwner(_wallet: address, _owner: address): bool</text>
<text text-anchor="start" x="319.64" y="-744.3" font-family="Times,serif" font-size="14.00"> &#160;&#160;&#160;getOwners(_wallet: address): address[]</text>
</g>
<!-- 0&#45;&gt;4 -->
<g id="edge7" class="edge">
<title>0&#45;&gt;4</title>
<path fill="none" stroke="black" d="M779.1,-699.15C778.26,-701.84 777.42,-704.52 776.58,-707.21"/>
<polygon fill="none" stroke="black" points="766.54,-704.15 767.61,-735.91 786.58,-710.41 766.54,-704.15"/>
</g>
<!-- 6 -->
<g id="node7" class="node">
<title>6</title>
<polygon fill="#f2f2f2" stroke="black" points="1087.09,-920.9 1087.09,-1045.7 1772.08,-1045.7 1772.08,-920.9 1087.09,-920.9"/>
<text text-anchor="middle" x="1429.58" y="-1029.1" font-family="Times,serif" font-size="14.00">SignatureChecker</text>
<text text-anchor="middle" x="1429.58" y="-1012.3" font-family="Times,serif" font-size="14.00">contracts/licensedUser/SignatureChecker.sol</text>
<polyline fill="none" stroke="black" points="1087.09,-1004.1 1772.08,-1004.1 "/>
<text text-anchor="start" x="1095.09" y="-987.5" font-family="Times,serif" font-size="14.00">Private:</text>
<text text-anchor="start" x="1095.09" y="-970.7" font-family="Times,serif" font-size="14.00"> &#160;&#160;SENTINEL_OWNER: address</text>
<polyline fill="none" stroke="black" points="1087.09,-962.5 1772.08,-962.5 "/>
<text text-anchor="start" x="1095.09" y="-945.9" font-family="Times,serif" font-size="14.00">Internal:</text>
<text text-anchor="start" x="1095.09" y="-929.1" font-family="Times,serif" font-size="14.00"> &#160;&#160;&#160;checkSignatures(_owners: mapping(address=&gt;address), _threshold: uint256, _dataHash: bytes32, _signatures: bytes)</text>
</g>
<!-- 0&#45;&gt;6 -->
<g id="edge6" class="edge">
<title>0&#45;&gt;6</title>
<path fill="none" stroke="black" d="M1146.44,-699.15C1219.64,-772.36 1293,-845.72 1346.7,-899.42"/>
<polygon fill="none" stroke="black" points="1339.45,-907.02 1368.09,-920.81 1354.3,-892.17 1339.45,-907.02"/>
</g>
<!-- 5 -->
<g id="node5" class="node">
<title>5</title>
<polygon fill="#f2f2f2" stroke="black" points="563.43,-1267.5 563.43,-1384.3 817.74,-1384.3 817.74,-1267.5 563.43,-1267.5"/>
<text text-anchor="middle" x="690.58" y="-1367.7" font-family="Times,serif" font-size="14.00">&lt;&lt;Struct&gt;&gt;</text>
<text text-anchor="middle" x="690.58" y="-1350.9" font-family="Times,serif" font-size="14.00">Wallet</text>
<text text-anchor="middle" x="690.58" y="-1334.1" font-family="Times,serif" font-size="14.00">contracts/licensedUser/OwnerManager.sol</text>
<polyline fill="none" stroke="black" points="563.43,-1325.9 817.74,-1325.9 "/>
<text text-anchor="start" x="571.43" y="-1309.3" font-family="Times,serif" font-size="14.00">owners: mapping(address=&gt;address)</text>
<text text-anchor="start" x="571.43" y="-1292.5" font-family="Times,serif" font-size="14.00">ownerCount: uint8</text>
<text text-anchor="start" x="571.43" y="-1275.7" font-family="Times,serif" font-size="14.00">threshold: uint8</text>
</g>
<!-- 5&#45;&gt;4 -->
<g id="edge11" class="edge">
<title>5&#45;&gt;4</title>
<path fill="none" stroke="black" d="M695.8,-1267.29C696.04,-1259.74 696.26,-1251.67 696.45,-1243.18"/>
<polygon fill="black" stroke="black" points="696.45,-1242.93 692.57,-1236.85 696.69,-1230.93 700.57,-1237.01 696.45,-1242.93"/>
</g>
<!-- 4&#45;&gt;5 -->
<g id="edge12" class="edge">
<title>4&#45;&gt;5</title>
<path fill="none" stroke="black" d="M684.48,-1230.93C684.64,-1240.07 684.84,-1248.85 685.07,-1257.11"/>
<polygon fill="black" stroke="black" points="681.57,-1257.4 685.37,-1267.29 688.57,-1257.19 681.57,-1257.4"/>
</g>
</g>
</svg>
