<?xml version="1.0" encoding="UTF-8" standalone="no"?>
<!DOCTYPE svg PUBLIC "-//W3C//DTD SVG 1.1//EN"
 "http://www.w3.org/Graphics/SVG/1.1/DTD/svg11.dtd">
<!-- Generated by graphviz version 5.0.0 (20220707.1540)
 -->
<!-- Title: UmlClassDiagram Pages: 1 -->
<svg width="2139pt" height="1410pt"
 viewBox="0.00 0.00 2139.28 1409.60" xmlns="http://www.w3.org/2000/svg" xmlns:xlink="http://www.w3.org/1999/xlink">
<g id="graph0" class="graph" transform="scale(1 1) rotate(0) translate(4 1405.6)">
<title>UmlClassDiagram</title>
<polygon fill="white" stroke="transparent" points="-4,4 -4,-1405.6 2135.28,-1405.6 2135.28,4 -4,4"/>
<!-- 5 -->
<g id="node1" class="node">
<title>5</title>
<polygon fill="#f2f2f2" stroke="black" points="735,-0.5 735,-100.5 1052.28,-100.5 1052.28,-0.5 735,-0.5"/>
<text text-anchor="middle" x="893.64" y="-83.9" font-family="Times,serif" font-size="14.00">&lt;&lt;Enum&gt;&gt;</text>
<text text-anchor="middle" x="893.64" y="-67.1" font-family="Times,serif" font-size="14.00">UserType</text>
<text text-anchor="middle" x="893.64" y="-50.3" font-family="Times,serif" font-size="14.00">contracts/licensedUser/LicensedUserManagerV02.sol</text>
<polyline fill="none" stroke="black" points="735,-42.1 1052.28,-42.1 "/>
<text text-anchor="start" x="743" y="-25.5" font-family="Times,serif" font-size="14.00">HANDLER: 0</text>
<text text-anchor="start" x="743" y="-8.7" font-family="Times,serif" font-size="14.00">ARTIST: 1</text>
</g>
<!-- 4 -->
<g id="node4" class="node">
<title>4</title>
<polygon fill="#f2f2f2" stroke="black" points="379.21,-137.5 379.21,-715.9 1408.07,-715.9 1408.07,-137.5 379.21,-137.5"/>
<text text-anchor="middle" x="893.64" y="-699.3" font-family="Times,serif" font-size="14.00">LicensedUserManagerV02</text>
<text text-anchor="middle" x="893.64" y="-682.5" font-family="Times,serif" font-size="14.00">contracts/licensedUser/LicensedUserManagerV02.sol</text>
<polyline fill="none" stroke="black" points="379.21,-674.3 1408.07,-674.3 "/>
<text text-anchor="start" x="387.21" y="-657.7" font-family="Times,serif" font-size="14.00">Internal:</text>
<text text-anchor="start" x="387.21" y="-640.9" font-family="Times,serif" font-size="14.00"> &#160;&#160;IS_VALID_SIG_SUCCESS: bytes4</text>
<text text-anchor="start" x="387.21" y="-624.1" font-family="Times,serif" font-size="14.00"> &#160;&#160;luws: mapping(address=&gt;LicensedUser)</text>
<text text-anchor="start" x="387.21" y="-607.3" font-family="Times,serif" font-size="14.00">Public:</text>
<text text-anchor="start" x="387.21" y="-590.5" font-family="Times,serif" font-size="14.00"> &#160;&#160;upgradeableBeacon: address</text>
<polyline fill="none" stroke="black" points="379.21,-582.3 1408.07,-582.3 "/>
<text text-anchor="start" x="387.21" y="-565.7" font-family="Times,serif" font-size="14.00">Private:</text>
<text text-anchor="start" x="387.21" y="-548.9" font-family="Times,serif" font-size="14.00"> &#160;&#160;&#160;createWalletInternal(_details: LicensedUserDto, _walletAddress: address, _salt: bytes32) &lt;&lt;isValidCreateWalletRequest&gt;&gt;</text>
<text text-anchor="start" x="387.21" y="-532.1" font-family="Times,serif" font-size="14.00"> &#160;&#160;&#160;emitCreateLicensedUserWallet(_walletAddress: address, _salt: bytes32)</text>
<text text-anchor="start" x="387.21" y="-515.3" font-family="Times,serif" font-size="14.00"> &#160;&#160;&#160;singleToMulti(_walletAddress: address, _owners: address[], _threshold: uint8)</text>
<text text-anchor="start" x="387.21" y="-498.5" font-family="Times,serif" font-size="14.00">External:</text>
<text text-anchor="start" x="387.21" y="-481.7" font-family="Times,serif" font-size="14.00"> &#160;&#160;&#160;initializeV2(_upgradeableBeacon: address) &lt;&lt;reinitializer&gt;&gt;</text>
<text text-anchor="start" x="387.21" y="-464.9" font-family="Times,serif" font-size="14.00"> &#160;&#160;&#160;isValidSignatureSet(_walletAddress: address, _hash: bytes32, _signatures: bytes): bytes4 &lt;&lt;onlyActiveWallet&gt;&gt;</text>
<text text-anchor="start" x="387.21" y="-448.1" font-family="Times,serif" font-size="14.00">Public:</text>
<text text-anchor="start" x="387.21" y="-431.3" font-family="Times,serif" font-size="14.00"> &#160;&#160;&#160;&lt;&lt;event&gt;&gt; CreateLicensedUserWallet(walletAddress: address, owners: address[], threshold: uint8, englishName: string, originalName: string, userType: UserType, salt: bytes32)</text>
<text text-anchor="start" x="387.21" y="-414.5" font-family="Times,serif" font-size="14.00"> &#160;&#160;&#160;&lt;&lt;event&gt;&gt; UpgradeLicensedUserWalletToMulti(walletAddress: address, owners: address[], threshold: uint8)</text>
<text text-anchor="start" x="387.21" y="-397.7" font-family="Times,serif" font-size="14.00"> &#160;&#160;&#160;&lt;&lt;event&gt;&gt; UpdateLicensedUserDetail(walletAddress: address, key: string, value: string)</text>
<text text-anchor="start" x="387.21" y="-380.9" font-family="Times,serif" font-size="14.00"> &#160;&#160;&#160;&lt;&lt;event&gt;&gt; MigrateLicensedUserWallet(walletAddress: address, originChain: string, originTimestamp: uint256)</text>
<text text-anchor="start" x="387.21" y="-364.1" font-family="Times,serif" font-size="14.00"> &#160;&#160;&#160;&lt;&lt;modifier&gt;&gt; onlyActiveWallet(_wallet: address)</text>
<text text-anchor="start" x="387.21" y="-347.3" font-family="Times,serif" font-size="14.00"> &#160;&#160;&#160;&lt;&lt;modifier&gt;&gt; isValidCreateWalletRequest(_details: LicensedUserDto, _walletAddress: address)</text>
<text text-anchor="start" x="387.21" y="-330.5" font-family="Times,serif" font-size="14.00"> &#160;&#160;&#160;createWallet(_details: LicensedUserDto, _salt: bytes32): (walletAddress: address) &lt;&lt;onlyAdministrator&gt;&gt;</text>
<text text-anchor="start" x="387.21" y="-313.7" font-family="Times,serif" font-size="14.00"> &#160;&#160;&#160;createWalletFromMigration(_details: LicensedUserDto, _walletAddress: address, _originChain: string, _originTimestamp: uint256) &lt;&lt;onlyAdministrator&gt;&gt;</text>
<text text-anchor="start" x="387.21" y="-296.9" font-family="Times,serif" font-size="14.00"> &#160;&#160;&#160;addOwner(_walletAddress: address, _owner: address, _threshold: uint8) &lt;&lt;onlyActiveWallet, onlyWalletOrAdministrator&gt;&gt;</text>
<text text-anchor="start" x="387.21" y="-280.1" font-family="Times,serif" font-size="14.00"> &#160;&#160;&#160;walletExists(_walletAddress: address): bool</text>
<text text-anchor="start" x="387.21" y="-263.3" font-family="Times,serif" font-size="14.00"> &#160;&#160;&#160;isSingleOwner(_walletAddress: address): bool</text>
<text text-anchor="start" x="387.21" y="-246.5" font-family="Times,serif" font-size="14.00"> &#160;&#160;&#160;isActiveWallet(_walletAddress: address): bool</text>
<text text-anchor="start" x="387.21" y="-229.7" font-family="Times,serif" font-size="14.00"> &#160;&#160;&#160;getLicensedUser(_walletAddress: address): (owners: address[], threshold: uint8, active: bool, userType: UserType, englishName: string, originalName: string)</text>
<text text-anchor="start" x="387.21" y="-212.9" font-family="Times,serif" font-size="14.00"> &#160;&#160;&#160;getThreshold(_walletAddress: address): uint8</text>
<text text-anchor="start" x="387.21" y="-196.1" font-family="Times,serif" font-size="14.00"> &#160;&#160;&#160;getOwners(_walletAddress: address): (owners: address[])</text>
<text text-anchor="start" x="387.21" y="-179.3" font-family="Times,serif" font-size="14.00"> &#160;&#160;&#160;isOwner(_walletAddress: address, _owner: address): bool</text>
<text text-anchor="start" x="387.21" y="-162.5" font-family="Times,serif" font-size="14.00"> &#160;&#160;&#160;setOriginalName(_walletAddress: address, _name: string) &lt;&lt;onlyWalletOrAdministrator, onlyActiveWallet&gt;&gt;</text>
<text text-anchor="start" x="387.21" y="-145.7" font-family="Times,serif" font-size="14.00"> &#160;&#160;&#160;setEnglishName(_walletAddress: address, _name: string) &lt;&lt;onlyWalletOrAdministrator, onlyActiveWallet&gt;&gt;</text>
</g>
<!-- 5&#45;&gt;4 -->
<g id="edge3" class="edge">
<title>5&#45;&gt;4</title>
<path fill="none" stroke="black" d="M888.89,-100.8C888.61,-108.31 888.36,-116.48 888.14,-125.17"/>
<polygon fill="black" stroke="black" points="888.14,-125.34 892,-131.43 887.86,-137.34 884,-131.24 888.14,-125.34"/>
</g>
<!-- 6 -->
<g id="node2" class="node">
<title>6</title>
<polygon fill="#f2f2f2" stroke="black" points="0,-924.9 0,-1075.3 317.28,-1075.3 317.28,-924.9 0,-924.9"/>
<text text-anchor="middle" x="158.64" y="-1058.7" font-family="Times,serif" font-size="14.00">&lt;&lt;Struct&gt;&gt;</text>
<text text-anchor="middle" x="158.64" y="-1041.9" font-family="Times,serif" font-size="14.00">LicensedUser</text>
<text text-anchor="middle" x="158.64" y="-1025.1" font-family="Times,serif" font-size="14.00">contracts/licensedUser/LicensedUserManagerV02.sol</text>
<polyline fill="none" stroke="black" points="0,-1016.9 317.28,-1016.9 "/>
<text text-anchor="start" x="8" y="-1000.3" font-family="Times,serif" font-size="14.00">owner: address</text>
<text text-anchor="start" x="8" y="-983.5" font-family="Times,serif" font-size="14.00">active: bool</text>
<text text-anchor="start" x="8" y="-966.7" font-family="Times,serif" font-size="14.00">userType: UserType</text>
<text text-anchor="start" x="8" y="-949.9" font-family="Times,serif" font-size="14.00">englishName: string</text>
<text text-anchor="start" x="8" y="-933.1" font-family="Times,serif" font-size="14.00">originalName: string</text>
</g>
<!-- 6&#45;&gt;5 -->
<g id="edge1" class="edge">
<title>6&#45;&gt;5</title>
<path fill="none" stroke="black" stroke-dasharray="5,2" d="M152.21,-924.68C142.18,-756.75 143.66,-346.71 370.64,-137 421.27,-90.22 591.82,-68.91 724.55,-59.28"/>
<polygon fill="black" stroke="black" points="725.12,-62.75 734.85,-58.55 724.63,-55.77 725.12,-62.75"/>
</g>
<!-- 6&#45;&gt;4 -->
<g id="edge4" class="edge">
<title>6&#45;&gt;4</title>
<path fill="none" stroke="black" d="M204.75,-924.79C236.33,-872.06 281.91,-802.1 335.64,-752.4 346.65,-742.22 358.03,-732.22 369.71,-722.42"/>
<polygon fill="black" stroke="black" points="369.91,-722.26 371.98,-715.35 379.15,-714.6 377.08,-721.51 369.91,-722.26"/>
</g>
<!-- 7 -->
<g id="node3" class="node">
<title>7</title>
<polygon fill="#f2f2f2" stroke="black" points="1814,-924.9 1814,-1075.3 2131.28,-1075.3 2131.28,-924.9 1814,-924.9"/>
<text text-anchor="middle" x="1972.64" y="-1058.7" font-family="Times,serif" font-size="14.00">&lt;&lt;Struct&gt;&gt;</text>
<text text-anchor="middle" x="1972.64" y="-1041.9" font-family="Times,serif" font-size="14.00">LicensedUserDto</text>
<text text-anchor="middle" x="1972.64" y="-1025.1" font-family="Times,serif" font-size="14.00">contracts/licensedUser/LicensedUserManagerV02.sol</text>
<polyline fill="none" stroke="black" points="1814,-1016.9 2131.28,-1016.9 "/>
<text text-anchor="start" x="1822" y="-1000.3" font-family="Times,serif" font-size="14.00">owners: address[]</text>
<text text-anchor="start" x="1822" y="-983.5" font-family="Times,serif" font-size="14.00">threshold: uint8</text>
<text text-anchor="start" x="1822" y="-966.7" font-family="Times,serif" font-size="14.00">userType: UserType</text>
<text text-anchor="start" x="1822" y="-949.9" font-family="Times,serif" font-size="14.00">englishName: string</text>
<text text-anchor="start" x="1822" y="-933.1" font-family="Times,serif" font-size="14.00">originalName: string</text>
</g>
<!-- 7&#45;&gt;5 -->
<g id="edge2" class="edge">
<title>7&#45;&gt;5</title>
<path fill="none" stroke="black" stroke-dasharray="5,2" d="M1948.36,-924.62C1888.49,-753.8 1716.44,-333.43 1416.64,-137 1359.5,-99.56 1192.65,-76.79 1062.61,-64.26"/>
<polygon fill="black" stroke="black" points="1062.81,-60.76 1052.53,-63.3 1062.15,-67.73 1062.81,-60.76"/>
</g>
<!-- 7&#45;&gt;4 -->
<g id="edge5" class="edge">
<title>7&#45;&gt;4</title>
<path fill="none" stroke="black" d="M1945.47,-924.66C1918.31,-870.12 1872.59,-797.93 1813.64,-752.4 1698.53,-663.49 1557,-597.57 1419.78,-549.27"/>
<polygon fill="black" stroke="black" points="1419.55,-549.19 1412.56,-550.99 1408.21,-545.23 1415.2,-543.43 1419.55,-549.19"/>
</g>
<!-- 4&#45;&gt;5 -->
<g id="edge8" class="edge">
<title>4&#45;&gt;5</title>
<path fill="none" stroke="black" stroke-dasharray="5,2" d="M899.42,-137.34C899.22,-127.99 898.99,-119.12 898.73,-110.89"/>
<polygon fill="black" stroke="black" points="902.23,-110.68 898.39,-100.8 895.23,-110.92 902.23,-110.68"/>
</g>
<!-- 4&#45;&gt;6 -->
<g id="edge9" class="edge">
<title>4&#45;&gt;6</title>
<path fill="none" stroke="black" d="M379.18,-700.17C357.74,-716.97 337.1,-734.39 317.64,-752.4 266.85,-799.39 223.34,-864.47 194.61,-915.99"/>
<polygon fill="black" stroke="black" points="191.52,-914.34 189.77,-924.79 197.65,-917.72 191.52,-914.34"/>
</g>
<!-- 4&#45;&gt;7 -->
<g id="edge10" class="edge">
<title>4&#45;&gt;7</title>
<path fill="none" stroke="black" stroke-dasharray="5,2" d="M1408.1,-551.27C1542.89,-599.39 1682.11,-664.71 1795.64,-752.4 1851.48,-795.53 1895.45,-862.58 1925.73,-915.89"/>
<polygon fill="black" stroke="black" points="1922.71,-917.66 1930.66,-924.66 1928.81,-914.23 1922.71,-917.66"/>
</g>
<!-- 8 -->
<g id="node6" class="node">
<title>8</title>
<polygon fill="#f2f2f2" stroke="black" points="335.7,-752.9 335.7,-1247.3 1093.58,-1247.3 1093.58,-752.9 335.7,-752.9"/>
<text text-anchor="middle" x="714.64" y="-1230.7" font-family="Times,serif" font-size="14.00">OwnerManager</text>
<text text-anchor="middle" x="714.64" y="-1213.9" font-family="Times,serif" font-size="14.00">contracts/licensedUser/OwnerManager.sol</text>
<polyline fill="none" stroke="black" points="335.7,-1205.7 1093.58,-1205.7 "/>
<text text-anchor="start" x="343.7" y="-1189.1" font-family="Times,serif" font-size="14.00">Internal:</text>
<text text-anchor="start" x="343.7" y="-1172.3" font-family="Times,serif" font-size="14.00"> &#160;&#160;SENTINEL_OWNERS: address</text>
<text text-anchor="start" x="343.7" y="-1155.5" font-family="Times,serif" font-size="14.00"> &#160;&#160;wallets: mapping(address=&gt;Wallet)</text>
<text text-anchor="start" x="343.7" y="-1138.7" font-family="Times,serif" font-size="14.00">Public:</text>
<text text-anchor="start" x="343.7" y="-1121.9" font-family="Times,serif" font-size="14.00"> &#160;&#160;nameRegistryAddress: address</text>
<polyline fill="none" stroke="black" points="335.7,-1113.7 1093.58,-1113.7 "/>
<text text-anchor="start" x="343.7" y="-1097.1" font-family="Times,serif" font-size="14.00">Internal:</text>
<text text-anchor="start" x="343.7" y="-1080.3" font-family="Times,serif" font-size="14.00"> &#160;&#160;&#160;isFromAdministrator(): bool</text>
<text text-anchor="start" x="343.7" y="-1063.5" font-family="Times,serif" font-size="14.00"> &#160;&#160;&#160;isFromWallet(_wallet: address): string</text>
<text text-anchor="start" x="343.7" y="-1046.7" font-family="Times,serif" font-size="14.00"> &#160;&#160;&#160;setupOwners(_wallet: address, _owners: address[], _threshold: uint8)</text>
<text text-anchor="start" x="343.7" y="-1029.9" font-family="Times,serif" font-size="14.00"> &#160;&#160;&#160;isEmptyString(_string: string): bool</text>
<text text-anchor="start" x="343.7" y="-1013.1" font-family="Times,serif" font-size="14.00">External:</text>
<text text-anchor="start" x="343.7" y="-996.3" font-family="Times,serif" font-size="14.00"> &#160;&#160;&#160;initialize(_nameRegistryAddress: address, _trustedForwarder: address) &lt;&lt;initializer&gt;&gt;</text>
<text text-anchor="start" x="343.7" y="-979.5" font-family="Times,serif" font-size="14.00">Public:</text>
<text text-anchor="start" x="343.7" y="-962.7" font-family="Times,serif" font-size="14.00"> &#160;&#160;&#160;&lt;&lt;event&gt;&gt; AddedOwner(wallet: address, owner: address)</text>
<text text-anchor="start" x="343.7" y="-945.9" font-family="Times,serif" font-size="14.00"> &#160;&#160;&#160;&lt;&lt;event&gt;&gt; RemovedOwner(wallet: address, owner: address)</text>
<text text-anchor="start" x="343.7" y="-929.1" font-family="Times,serif" font-size="14.00"> &#160;&#160;&#160;&lt;&lt;event&gt;&gt; ChangedThreshold(wallet: address, threshold: uint8)</text>
<text text-anchor="start" x="343.7" y="-912.3" font-family="Times,serif" font-size="14.00"> &#160;&#160;&#160;&lt;&lt;modifier&gt;&gt; onlyAdministrator()</text>
<text text-anchor="start" x="343.7" y="-895.5" font-family="Times,serif" font-size="14.00"> &#160;&#160;&#160;&lt;&lt;modifier&gt;&gt; onlyWallet(_wallet: address)</text>
<text text-anchor="start" x="343.7" y="-878.7" font-family="Times,serif" font-size="14.00"> &#160;&#160;&#160;&lt;&lt;modifier&gt;&gt; onlyWalletOrAdministrator(_wallet: address)</text>
<text text-anchor="start" x="343.7" y="-861.9" font-family="Times,serif" font-size="14.00"> &#160;&#160;&#160;addOwner(_wallet: address, _owner: address, _threshold: uint8) &lt;&lt;onlyWalletOrAdministrator&gt;&gt;</text>
<text text-anchor="start" x="343.7" y="-845.1" font-family="Times,serif" font-size="14.00"> &#160;&#160;&#160;removeOwner(_wallet: address, _prevOwner: address, _owner: address, _threshold: uint8) &lt;&lt;onlyWalletOrAdministrator&gt;&gt;</text>
<text text-anchor="start" x="343.7" y="-828.3" font-family="Times,serif" font-size="14.00"> &#160;&#160;&#160;swapOwner(_wallet: address, _prevOwner: address, _oldOwner: address, _newOwner: address) &lt;&lt;onlyWalletOrAdministrator&gt;&gt;</text>
<text text-anchor="start" x="343.7" y="-811.5" font-family="Times,serif" font-size="14.00"> &#160;&#160;&#160;changeThreshold(_wallet: address, _threshold: uint8) &lt;&lt;onlyWalletOrAdministrator&gt;&gt;</text>
<text text-anchor="start" x="343.7" y="-794.7" font-family="Times,serif" font-size="14.00"> &#160;&#160;&#160;getThreshold(_wallet: address): uint8</text>
<text text-anchor="start" x="343.7" y="-777.9" font-family="Times,serif" font-size="14.00"> &#160;&#160;&#160;isOwner(_wallet: address, _owner: address): bool</text>
<text text-anchor="start" x="343.7" y="-761.1" font-family="Times,serif" font-size="14.00"> &#160;&#160;&#160;getOwners(_wallet: address): address[]</text>
</g>
<!-- 4&#45;&gt;8 -->
<g id="edge7" class="edge">
<title>4&#45;&gt;8</title>
<path fill="none" stroke="black" d="M803.35,-715.91C802.51,-718.61 801.66,-721.31 800.82,-724.01"/>
<polygon fill="none" stroke="black" points="790.74,-721.06 791.79,-752.83 810.78,-727.34 790.74,-721.06"/>
</g>
<!-- 10 -->
<g id="node7" class="node">
<title>10</title>
<polygon fill="#f2f2f2" stroke="black" points="1111.15,-937.7 1111.15,-1062.5 1796.13,-1062.5 1796.13,-937.7 1111.15,-937.7"/>
<text text-anchor="middle" x="1453.64" y="-1045.9" font-family="Times,serif" font-size="14.00">SignatureChecker</text>
<text text-anchor="middle" x="1453.64" y="-1029.1" font-family="Times,serif" font-size="14.00">contracts/licensedUser/SignatureChecker.sol</text>
<polyline fill="none" stroke="black" points="1111.15,-1020.9 1796.13,-1020.9 "/>
<text text-anchor="start" x="1119.15" y="-1004.3" font-family="Times,serif" font-size="14.00">Private:</text>
<text text-anchor="start" x="1119.15" y="-987.5" font-family="Times,serif" font-size="14.00"> &#160;&#160;SENTINEL_OWNER: address</text>
<polyline fill="none" stroke="black" points="1111.15,-979.3 1796.13,-979.3 "/>
<text text-anchor="start" x="1119.15" y="-962.7" font-family="Times,serif" font-size="14.00">Internal:</text>
<text text-anchor="start" x="1119.15" y="-945.9" font-family="Times,serif" font-size="14.00"> &#160;&#160;&#160;checkSignatures(_owners: mapping(address=&gt;address), _threshold: uint256, _dataHash: bytes32, _signatures: bytes)</text>
</g>
<!-- 4&#45;&gt;10 -->
<g id="edge6" class="edge">
<title>4&#45;&gt;10</title>
<path fill="none" stroke="black" d="M1176.1,-715.91C1247.93,-789.2 1319.55,-862.28 1372.03,-915.83"/>
<polygon fill="none" stroke="black" points="1364.8,-923.46 1393.3,-937.53 1379.8,-908.76 1364.8,-923.46"/>
</g>
<!-- 9 -->
<g id="node5" class="node">
<title>9</title>
<polygon fill="#f2f2f2" stroke="black" points="587.49,-1284.3 587.49,-1401.1 841.79,-1401.1 841.79,-1284.3 587.49,-1284.3"/>
<text text-anchor="middle" x="714.64" y="-1384.5" font-family="Times,serif" font-size="14.00">&lt;&lt;Struct&gt;&gt;</text>
<text text-anchor="middle" x="714.64" y="-1367.7" font-family="Times,serif" font-size="14.00">Wallet</text>
<text text-anchor="middle" x="714.64" y="-1350.9" font-family="Times,serif" font-size="14.00">contracts/licensedUser/OwnerManager.sol</text>
<polyline fill="none" stroke="black" points="587.49,-1342.7 841.79,-1342.7 "/>
<text text-anchor="start" x="595.49" y="-1326.1" font-family="Times,serif" font-size="14.00">owners: mapping(address=&gt;address)</text>
<text text-anchor="start" x="595.49" y="-1309.3" font-family="Times,serif" font-size="14.00">ownerCount: uint8</text>
<text text-anchor="start" x="595.49" y="-1292.5" font-family="Times,serif" font-size="14.00">threshold: uint8</text>
</g>
<!-- 9&#45;&gt;8 -->
<g id="edge11" class="edge">
<title>9&#45;&gt;8</title>
<path fill="none" stroke="black" d="M719.85,-1284.09C720.1,-1276.54 720.32,-1268.47 720.5,-1259.98"/>
<polygon fill="black" stroke="black" points="720.51,-1259.73 716.63,-1253.65 720.75,-1247.73 724.63,-1253.81 720.51,-1259.73"/>
</g>
<!-- 8&#45;&gt;9 -->
<g id="edge12" class="edge">
<title>8&#45;&gt;9</title>
<path fill="none" stroke="black" d="M708.53,-1247.73C708.7,-1256.87 708.89,-1265.65 709.12,-1273.91"/>
<polygon fill="black" stroke="black" points="705.63,-1274.2 709.43,-1284.09 712.63,-1273.99 705.63,-1274.2"/>
</g>
</g>
</svg>
