<?xml version="1.0" encoding="UTF-8" standalone="no"?>
<!DOCTYPE svg PUBLIC "-//W3C//DTD SVG 1.1//EN"
 "http://www.w3.org/Graphics/SVG/1.1/DTD/svg11.dtd">
<!-- Generated by graphviz version 5.0.0 (20220707.1540)
 -->
<!-- Title: UmlClassDiagram Pages: 1 -->
<svg width="2858pt" height="965pt"
 viewBox="0.00 0.00 2857.86 964.80" xmlns="http://www.w3.org/2000/svg" xmlns:xlink="http://www.w3.org/1999/xlink">
<g id="graph0" class="graph" transform="scale(1 1) rotate(0) translate(4 960.8)">
<title>UmlClassDiagram</title>
<polygon fill="white" stroke="transparent" points="-4,4 -4,-960.8 2853.86,-960.8 2853.86,4 -4,4"/>
<!-- 1 -->
<g id="node1" class="node">
<title>1</title>
<polygon fill="#f2f2f2" stroke="black" points="0,-418.3 0,-535.1 538.89,-535.1 538.89,-418.3 0,-418.3"/>
<text text-anchor="middle" x="269.45" y="-518.5" font-family="Times,serif" font-size="14.00">&lt;&lt;Interface&gt;&gt;</text>
<text text-anchor="middle" x="269.45" y="-501.7" font-family="Times,serif" font-size="14.00">IMetaTxForwarderV2</text>
<text text-anchor="middle" x="269.45" y="-484.9" font-family="Times,serif" font-size="14.00">contracts/metaTx/IMetaTxForwarderV2.sol</text>
<polyline fill="none" stroke="black" points="0,-476.7 538.89,-476.7 "/>
<text text-anchor="start" x="8" y="-460.1" font-family="Times,serif" font-size="14.00">External:</text>
<text text-anchor="start" x="8" y="-443.3" font-family="Times,serif" font-size="14.00"> &#160;&#160;&#160;&#160;executeTransactionLUW(_request: ExecutionRequest, _signatures: bytes): (success: bool)</text>
<text text-anchor="start" x="8" y="-426.5" font-family="Times,serif" font-size="14.00"> &#160;&#160;&#160;&#160;executeTransactionEOA(_request: ExecutionRequest, _signature: bytes): (success: bool)</text>
</g>
<!-- 3 -->
<g id="node2" class="node">
<title>3</title>
<polygon fill="#f2f2f2" stroke="black" points="450.95,-710.5 450.95,-860.9 681.94,-860.9 681.94,-710.5 450.95,-710.5"/>
<text text-anchor="middle" x="566.45" y="-844.3" font-family="Times,serif" font-size="14.00">&lt;&lt;Struct&gt;&gt;</text>
<text text-anchor="middle" x="566.45" y="-827.5" font-family="Times,serif" font-size="14.00">ExecutionRequest</text>
<text text-anchor="middle" x="566.45" y="-810.7" font-family="Times,serif" font-size="14.00">contracts/metaTx/IMetaTxRequest.sol</text>
<polyline fill="none" stroke="black" points="450.95,-802.5 681.94,-802.5 "/>
<text text-anchor="start" x="458.95" y="-785.9" font-family="Times,serif" font-size="14.00">typeHash: bytes32</text>
<text text-anchor="start" x="458.95" y="-769.1" font-family="Times,serif" font-size="14.00">from: address</text>
<text text-anchor="start" x="458.95" y="-752.3" font-family="Times,serif" font-size="14.00">nonce: uint256</text>
<text text-anchor="start" x="458.95" y="-735.5" font-family="Times,serif" font-size="14.00">suffixData: bytes</text>
<text text-anchor="start" x="458.95" y="-718.7" font-family="Times,serif" font-size="14.00">callData: bytes</text>
</g>
<!-- 1&#45;&gt;3 -->
<g id="edge2" class="edge">
<title>1&#45;&gt;3</title>
<path fill="none" stroke="black" stroke-dasharray="5,2" d="M325.31,-535.44C371.05,-582.72 436.31,-650.18 487.41,-703"/>
<polygon fill="black" stroke="black" points="485.05,-705.6 494.52,-710.35 490.08,-700.73 485.05,-705.6"/>
</g>
<!-- 2 -->
<g id="node3" class="node">
<title>2</title>
<polygon fill="#f2f2f2" stroke="black" points="450.95,-897.9 450.95,-956.3 681.94,-956.3 681.94,-897.9 450.95,-897.9"/>
<text text-anchor="middle" x="566.45" y="-939.7" font-family="Times,serif" font-size="14.00">&lt;&lt;Interface&gt;&gt;</text>
<text text-anchor="middle" x="566.45" y="-922.9" font-family="Times,serif" font-size="14.00">IMetaTxRequest</text>
<text text-anchor="middle" x="566.45" y="-906.1" font-family="Times,serif" font-size="14.00">contracts/metaTx/IMetaTxRequest.sol</text>
</g>
<!-- 1&#45;&gt;2 -->
<g id="edge1" class="edge">
<title>1&#45;&gt;2</title>
<path fill="none" stroke="black" stroke-dasharray="5,2" d="M282.61,-535.15C303.85,-616.6 352.65,-766.3 442.45,-861.4 449.67,-869.05 457.99,-875.96 466.85,-882.16"/>
<polygon fill="none" stroke="black" points="461.6,-891.26 492.7,-897.81 472.47,-873.3 461.6,-891.26"/>
</g>
<!-- 3&#45;&gt;2 -->
<g id="edge3" class="edge">
<title>3&#45;&gt;2</title>
<path fill="none" stroke="black" d="M566.45,-861.3C566.45,-869.59 566.45,-877.79 566.45,-885.43"/>
<polygon fill="black" stroke="black" points="566.45,-885.66 570.45,-891.66 566.45,-897.66 562.45,-891.66 566.45,-885.66"/>
</g>
<!-- 8 -->
<g id="node4" class="node">
<title>8</title>
<polygon fill="#f2f2f2" stroke="black" points="594.68,-426.7 594.68,-526.7 1128.21,-526.7 1128.21,-426.7 594.68,-426.7"/>
<text text-anchor="middle" x="861.45" y="-510.1" font-family="Times,serif" font-size="14.00">&lt;&lt;Interface&gt;&gt;</text>
<text text-anchor="middle" x="861.45" y="-493.3" font-family="Times,serif" font-size="14.00">ILicensedUserManager</text>
<text text-anchor="middle" x="861.45" y="-476.5" font-family="Times,serif" font-size="14.00">contracts/metaTx/MetaTxForwarderV3.sol</text>
<polyline fill="none" stroke="black" points="594.68,-468.3 1128.21,-468.3 "/>
<text text-anchor="start" x="602.68" y="-451.7" font-family="Times,serif" font-size="14.00">External:</text>
<text text-anchor="start" x="602.68" y="-434.9" font-family="Times,serif" font-size="14.00"> &#160;&#160;&#160;&#160;isValidSignatureSet(_walletAddress: address, _hash: bytes32, _signatures: bytes): bytes4</text>
</g>
<!-- 9 -->
<g id="node5" class="node">
<title>9</title>
<polygon fill="#f2f2f2" stroke="black" points="1145.33,-0.5 1145.33,-242.9 1987.57,-242.9 1987.57,-0.5 1145.33,-0.5"/>
<text text-anchor="middle" x="1566.45" y="-226.3" font-family="Times,serif" font-size="14.00">MetaTxForwarderV3</text>
<text text-anchor="middle" x="1566.45" y="-209.5" font-family="Times,serif" font-size="14.00">contracts/metaTx/MetaTxForwarderV3.sol</text>
<polyline fill="none" stroke="black" points="1145.33,-201.3 1987.57,-201.3 "/>
<text text-anchor="start" x="1153.33" y="-184.7" font-family="Times,serif" font-size="14.00">Internal:</text>
<text text-anchor="start" x="1153.33" y="-167.9" font-family="Times,serif" font-size="14.00"> &#160;&#160;IS_VALID_SIG_SUCCESS: bytes4</text>
<text text-anchor="start" x="1153.33" y="-151.1" font-family="Times,serif" font-size="14.00">Public:</text>
<text text-anchor="start" x="1153.33" y="-134.3" font-family="Times,serif" font-size="14.00"> &#160;&#160;collectionRegistry: address</text>
<polyline fill="none" stroke="black" points="1145.33,-126.1 1987.57,-126.1 "/>
<text text-anchor="start" x="1153.33" y="-109.5" font-family="Times,serif" font-size="14.00">Internal:</text>
<text text-anchor="start" x="1153.33" y="-92.7" font-family="Times,serif" font-size="14.00"> &#160;&#160;&#160;executeTransactionInternal(_request: ExecutionRequest, _signatures: bytes, isEOASignature: bool): (success: bool) &lt;&lt;requestTypeRegistered&gt;&gt;</text>
<text text-anchor="start" x="1153.33" y="-75.9" font-family="Times,serif" font-size="14.00">External:</text>
<text text-anchor="start" x="1153.33" y="-59.1" font-family="Times,serif" font-size="14.00"> &#160;&#160;&#160;initialize(_nameRegistry: address) &lt;&lt;initializer&gt;&gt;</text>
<text text-anchor="start" x="1153.33" y="-42.3" font-family="Times,serif" font-size="14.00"> &#160;&#160;&#160;executeTransactionLUW(_request: ExecutionRequest, _signatures: bytes): (success: bool) &lt;&lt;requestTypeRegistered&gt;&gt;</text>
<text text-anchor="start" x="1153.33" y="-25.5" font-family="Times,serif" font-size="14.00"> &#160;&#160;&#160;executeTransactionEOA(_request: ExecutionRequest, _signature: bytes): (success: bool) &lt;&lt;requestTypeRegistered&gt;&gt;</text>
<text text-anchor="start" x="1153.33" y="-8.7" font-family="Times,serif" font-size="14.00"> &#160;&#160;&#160;setCollectionRegistry(_registry: address) &lt;&lt;onlyAdministrator&gt;&gt;</text>
</g>
<!-- 9&#45;&gt;1 -->
<g id="edge4" class="edge">
<title>9&#45;&gt;1</title>
<path fill="none" stroke="black" stroke-dasharray="5,2" d="M1145.1,-144.96C958.37,-165.57 739.18,-204.84 552.45,-279.4 481.22,-307.84 410.32,-357.06 357.3,-399.1"/>
<polygon fill="none" stroke="black" points="350.56,-391.05 333.9,-418.12 363.8,-407.35 350.56,-391.05"/>
</g>
<!-- 9&#45;&gt;3 -->
<g id="edge8" class="edge">
<title>9&#45;&gt;3</title>
<path fill="none" stroke="black" stroke-dasharray="5,2" d="M1145.11,-137.94C914.27,-155.98 660.18,-195.04 585.45,-279.4 558.3,-310.04 560.63,-564.26 563.89,-700"/>
<polygon fill="black" stroke="black" points="560.4,-700.45 564.14,-710.36 567.4,-700.28 560.4,-700.45"/>
</g>
<!-- 9&#45;&gt;8 -->
<g id="edge9" class="edge">
<title>9&#45;&gt;8</title>
<path fill="none" stroke="black" stroke-dasharray="5,2" d="M1212.24,-242.94C1186.23,-254.45 1160.7,-266.63 1136.45,-279.4 1060.67,-319.31 981.88,-377.54 928.16,-420.22"/>
<polygon fill="black" stroke="black" points="925.72,-417.69 920.09,-426.67 930.08,-423.16 925.72,-417.69"/>
</g>
<!-- 10 -->
<g id="node7" class="node">
<title>10</title>
<polygon fill="#f2f2f2" stroke="black" points="1145.87,-279.9 1145.87,-673.5 1987.02,-673.5 1987.02,-279.9 1145.87,-279.9"/>
<text text-anchor="middle" x="1566.45" y="-656.9" font-family="Times,serif" font-size="14.00">MetaTxRequestManager</text>
<text text-anchor="middle" x="1566.45" y="-640.1" font-family="Times,serif" font-size="14.00">contracts/metaTx/MetaTxRequestManager.sol</text>
<polyline fill="none" stroke="black" points="1145.87,-631.9 1987.02,-631.9 "/>
<text text-anchor="start" x="1153.87" y="-615.3" font-family="Times,serif" font-size="14.00">Public:</text>
<text text-anchor="start" x="1153.87" y="-598.5" font-family="Times,serif" font-size="14.00"> &#160;&#160;DOMAIN_NAME: string</text>
<text text-anchor="start" x="1153.87" y="-581.7" font-family="Times,serif" font-size="14.00"> &#160;&#160;DOMAIN_VERSION: string</text>
<text text-anchor="start" x="1153.87" y="-564.9" font-family="Times,serif" font-size="14.00"> &#160;&#160;DOMAIN_SEPARATOR_TYPEHASH: bytes32</text>
<text text-anchor="start" x="1153.87" y="-548.1" font-family="Times,serif" font-size="14.00"> &#160;&#160;GENERIC_PARAMS: string</text>
<text text-anchor="start" x="1153.87" y="-531.3" font-family="Times,serif" font-size="14.00"> &#160;&#160;typeHashes: mapping(bytes32=&gt;bool)</text>
<text text-anchor="start" x="1153.87" y="-514.5" font-family="Times,serif" font-size="14.00"> &#160;&#160;requestTypes: mapping(bytes32=&gt;MetaTxRequestType)</text>
<text text-anchor="start" x="1153.87" y="-497.7" font-family="Times,serif" font-size="14.00"> &#160;&#160;domainSeparator: bytes32</text>
<text text-anchor="start" x="1153.87" y="-480.9" font-family="Times,serif" font-size="14.00"> &#160;&#160;nameRegistryAddress: address</text>
<polyline fill="none" stroke="black" points="1145.87,-472.7 1987.02,-472.7 "/>
<text text-anchor="start" x="1153.87" y="-456.1" font-family="Times,serif" font-size="14.00">Internal:</text>
<text text-anchor="start" x="1153.87" y="-439.3" font-family="Times,serif" font-size="14.00"> &#160;&#160;&#160;__MTRM_initialize(_nameRegistryAddress: address) &lt;&lt;initializer&gt;&gt;</text>
<text text-anchor="start" x="1153.87" y="-422.5" font-family="Times,serif" font-size="14.00">External:</text>
<text text-anchor="start" x="1153.87" y="-405.7" font-family="Times,serif" font-size="14.00"> &#160;&#160;&#160;registerRequestType(_typeName: string, _typeSuffix: string, _destinationContract: address, _functionSignature: bytes4) &lt;&lt;onlyAdministrator&gt;&gt;</text>
<text text-anchor="start" x="1153.87" y="-388.9" font-family="Times,serif" font-size="14.00"> &#160;&#160;&#160;unregisterRequestType(_typeHash: bytes32) &lt;&lt;requestTypeRegistered, onlyAdministrator&gt;&gt;</text>
<text text-anchor="start" x="1153.87" y="-372.1" font-family="Times,serif" font-size="14.00">Public:</text>
<text text-anchor="start" x="1153.87" y="-355.3" font-family="Times,serif" font-size="14.00"> &#160;&#160;&#160;&lt;&lt;event&gt;&gt; RequestTypeRegistered(typeHash: bytes32, typeStr: string)</text>
<text text-anchor="start" x="1153.87" y="-338.5" font-family="Times,serif" font-size="14.00"> &#160;&#160;&#160;&lt;&lt;event&gt;&gt; RequestTypeUnregistered(typeHash: bytes32)</text>
<text text-anchor="start" x="1153.87" y="-321.7" font-family="Times,serif" font-size="14.00"> &#160;&#160;&#160;&lt;&lt;modifier&gt;&gt; requestTypeRegistered(_typeHash: bytes32)</text>
<text text-anchor="start" x="1153.87" y="-304.9" font-family="Times,serif" font-size="14.00"> &#160;&#160;&#160;&lt;&lt;modifier&gt;&gt; onlyAdministrator()</text>
<text text-anchor="start" x="1153.87" y="-288.1" font-family="Times,serif" font-size="14.00"> &#160;&#160;&#160;encodeRequest(_request: ExecutionRequest): bytes &lt;&lt;requestTypeRegistered&gt;&gt;</text>
</g>
<!-- 9&#45;&gt;10 -->
<g id="edge7" class="edge">
<title>9&#45;&gt;10</title>
<path fill="none" stroke="black" d="M1566.45,-243.2C1566.45,-245.33 1566.45,-247.48 1566.45,-249.64"/>
<polygon fill="none" stroke="black" points="1555.95,-249.73 1566.45,-279.73 1576.95,-249.73 1555.95,-249.73"/>
</g>
<!-- 12 -->
<g id="node8" class="node">
<title>12</title>
<polygon fill="#f2f2f2" stroke="black" points="2004.54,-397.5 2004.54,-555.9 2388.35,-555.9 2388.35,-397.5 2004.54,-397.5"/>
<text text-anchor="middle" x="2196.45" y="-539.3" font-family="Times,serif" font-size="14.00">TransactionExecutor</text>
<text text-anchor="middle" x="2196.45" y="-522.5" font-family="Times,serif" font-size="14.00">contracts/metaTx/TransactionExecutor.sol</text>
<polyline fill="none" stroke="black" points="2004.54,-514.3 2388.35,-514.3 "/>
<text text-anchor="start" x="2012.54" y="-497.7" font-family="Times,serif" font-size="14.00">Internal:</text>
<text text-anchor="start" x="2012.54" y="-480.9" font-family="Times,serif" font-size="14.00"> &#160;&#160;EXECUTE_FAILED_WITHOUT_REASON: string</text>
<polyline fill="none" stroke="black" points="2004.54,-472.7 2388.35,-472.7 "/>
<text text-anchor="start" x="2012.54" y="-456.1" font-family="Times,serif" font-size="14.00">Internal:</text>
<text text-anchor="start" x="2012.54" y="-439.3" font-family="Times,serif" font-size="14.00"> &#160;&#160;&#160;executeCall(_to: address, _data: bytes, _txHash: bytes32): bool</text>
<text text-anchor="start" x="2012.54" y="-422.5" font-family="Times,serif" font-size="14.00">Public:</text>
<text text-anchor="start" x="2012.54" y="-405.7" font-family="Times,serif" font-size="14.00"> &#160;&#160;&#160;&lt;&lt;event&gt;&gt; ExecutionSuccess(txHash: bytes32)</text>
</g>
<!-- 9&#45;&gt;12 -->
<g id="edge5" class="edge">
<title>9&#45;&gt;12</title>
<path fill="none" stroke="black" d="M1931.61,-243.02C1954.06,-254.3 1975.87,-266.42 1996.45,-279.4 2037.8,-305.48 2077.5,-341.34 2110.48,-375.27"/>
<polygon fill="none" stroke="black" points="2102.91,-382.55 2131.13,-397.17 2118.19,-368.14 2102.91,-382.55"/>
</g>
<!-- 16 -->
<g id="node10" class="node">
<title>16</title>
<polygon fill="#f2f2f2" stroke="black" points="2406.78,-380.7 2406.78,-572.7 2848.11,-572.7 2848.11,-380.7 2406.78,-380.7"/>
<text text-anchor="middle" x="2627.45" y="-556.1" font-family="Times,serif" font-size="14.00">ReplayProtection</text>
<text text-anchor="middle" x="2627.45" y="-539.3" font-family="Times,serif" font-size="14.00">contracts/metaTx/replayProtection/ReplayProtection.sol</text>
<polyline fill="none" stroke="black" points="2406.78,-531.1 2848.11,-531.1 "/>
<text text-anchor="start" x="2414.78" y="-514.5" font-family="Times,serif" font-size="14.00">Public:</text>
<text text-anchor="start" x="2414.78" y="-497.7" font-family="Times,serif" font-size="14.00"> &#160;&#160;UINT_128_SHIFT: uint256</text>
<text text-anchor="start" x="2414.78" y="-480.9" font-family="Times,serif" font-size="14.00"> &#160;&#160;nonces: mapping(address=&gt;mapping(uint128=&gt;uint128))</text>
<polyline fill="none" stroke="black" points="2406.78,-472.7 2848.11,-472.7 "/>
<text text-anchor="start" x="2414.78" y="-456.1" font-family="Times,serif" font-size="14.00">Internal:</text>
<text text-anchor="start" x="2414.78" y="-439.3" font-family="Times,serif" font-size="14.00"> &#160;&#160;&#160;checkAndUpdateNonce(_wallet: address, _packedNonce: uint256): bool</text>
<text text-anchor="start" x="2414.78" y="-422.5" font-family="Times,serif" font-size="14.00">External:</text>
<text text-anchor="start" x="2414.78" y="-405.7" font-family="Times,serif" font-size="14.00"> &#160;&#160;&#160;getNonce(_wallet: address, _channel: uint128): uint128</text>
<text text-anchor="start" x="2414.78" y="-388.9" font-family="Times,serif" font-size="14.00"> &#160;&#160;&#160;packNonce(_channel: uint128, _nonce: uint128): (noncePacked: uint256)</text>
</g>
<!-- 9&#45;&gt;16 -->
<g id="edge6" class="edge">
<title>9&#45;&gt;16</title>
<path fill="none" stroke="black" d="M1987.67,-158.86C2123.23,-181.69 2270.98,-218.86 2397.45,-279.4 2439.88,-299.71 2480.79,-329.86 2516.05,-360.47"/>
<polygon fill="none" stroke="black" points="2509.04,-368.28 2538.36,-380.55 2523.08,-352.67 2509.04,-368.28"/>
</g>
<!-- 11 -->
<g id="node6" class="node">
<title>11</title>
<polygon fill="#f2f2f2" stroke="black" points="1428.41,-735.7 1428.41,-835.7 1704.49,-835.7 1704.49,-735.7 1428.41,-735.7"/>
<text text-anchor="middle" x="1566.45" y="-819.1" font-family="Times,serif" font-size="14.00">&lt;&lt;Struct&gt;&gt;</text>
<text text-anchor="middle" x="1566.45" y="-802.3" font-family="Times,serif" font-size="14.00">MetaTxRequestType</text>
<text text-anchor="middle" x="1566.45" y="-785.5" font-family="Times,serif" font-size="14.00">contracts/metaTx/MetaTxRequestManager.sol</text>
<polyline fill="none" stroke="black" points="1428.41,-777.3 1704.49,-777.3 "/>
<text text-anchor="start" x="1436.41" y="-760.7" font-family="Times,serif" font-size="14.00">destination: address</text>
<text text-anchor="start" x="1436.41" y="-743.9" font-family="Times,serif" font-size="14.00">functionSignature: bytes4</text>
</g>
<!-- 11&#45;&gt;10 -->
<g id="edge10" class="edge">
<title>11&#45;&gt;10</title>
<path fill="none" stroke="black" d="M1571.55,-735.65C1572.11,-721.07 1572.53,-704.1 1572.8,-685.95"/>
<polygon fill="black" stroke="black" points="1572.8,-685.86 1568.88,-679.81 1572.96,-673.87 1576.88,-679.92 1572.8,-685.86"/>
</g>
<!-- 10&#45;&gt;3 -->
<g id="edge13" class="edge">
<title>10&#45;&gt;3</title>
<path fill="none" stroke="black" stroke-dasharray="5,2" d="M1145.65,-671.34C1142.91,-672.24 1140.18,-673.12 1137.45,-674 987.96,-721.94 809.45,-752.48 692.3,-769.07"/>
<polygon fill="black" stroke="black" points="691.63,-765.63 682.21,-770.49 692.6,-772.56 691.63,-765.63"/>
</g>
<!-- 10&#45;&gt;2 -->
<g id="edge11" class="edge">
<title>10&#45;&gt;2</title>
<path fill="none" stroke="black" stroke-dasharray="5,2" d="M1145.6,-670.33C1142.87,-671.56 1140.16,-672.78 1137.45,-674 969.01,-749.71 771.8,-836.34 658.76,-885.8"/>
<polygon fill="none" stroke="black" points="654.5,-876.2 631.22,-897.84 662.92,-895.44 654.5,-876.2"/>
</g>
<!-- 10&#45;&gt;11 -->
<g id="edge12" class="edge">
<title>10&#45;&gt;11</title>
<path fill="none" stroke="black" d="M1559.93,-673.87C1560.14,-692.29 1560.49,-709.83 1560.98,-725.29"/>
<polygon fill="black" stroke="black" points="1557.5,-725.78 1561.34,-735.65 1564.49,-725.54 1557.5,-725.78"/>
</g>
<!-- 15 -->
<g id="node9" class="node">
<title>15</title>
<polygon fill="#f2f2f2" stroke="black" points="2405.03,-727.3 2405.03,-844.1 2849.86,-844.1 2849.86,-727.3 2405.03,-727.3"/>
<text text-anchor="middle" x="2627.45" y="-827.5" font-family="Times,serif" font-size="14.00">&lt;&lt;Interface&gt;&gt;</text>
<text text-anchor="middle" x="2627.45" y="-810.7" font-family="Times,serif" font-size="14.00">IReplayProtection</text>
<text text-anchor="middle" x="2627.45" y="-793.9" font-family="Times,serif" font-size="14.00">contracts/metaTx/replayProtection/IReplayProtection.sol</text>
<polyline fill="none" stroke="black" points="2405.03,-785.7 2849.86,-785.7 "/>
<text text-anchor="start" x="2413.03" y="-769.1" font-family="Times,serif" font-size="14.00">External:</text>
<text text-anchor="start" x="2413.03" y="-752.3" font-family="Times,serif" font-size="14.00"> &#160;&#160;&#160;&#160;getNonce(_signer: address, _channel: uint128): uint128</text>
<text text-anchor="start" x="2413.03" y="-735.5" font-family="Times,serif" font-size="14.00"> &#160;&#160;&#160;&#160;packNonce(_channel: uint128, _nonce: uint128): (noncePacked: uint256)</text>
</g>
<!-- 16&#45;&gt;15 -->
<g id="edge14" class="edge">
<title>16&#45;&gt;15</title>
<path fill="none" stroke="black" stroke-dasharray="5,2" d="M2627.45,-572.73C2627.45,-612.42 2627.45,-658.23 2627.45,-697.09"/>
<polygon fill="none" stroke="black" points="2616.95,-697.15 2627.45,-727.15 2637.95,-697.15 2616.95,-697.15"/>
</g>
</g>
</svg>
