<?xml version="1.0" encoding="UTF-8" standalone="no"?>
<!DOCTYPE svg PUBLIC "-//W3C//DTD SVG 1.1//EN"
 "http://www.w3.org/Graphics/SVG/1.1/DTD/svg11.dtd">
<!-- Generated by graphviz version 5.0.0 (20220707.1540)
 -->
<!-- Title: UmlClassDiagram Pages: 1 -->
<svg width="2858pt" height="898pt"
 viewBox="0.00 0.00 2857.86 897.60" xmlns="http://www.w3.org/2000/svg" xmlns:xlink="http://www.w3.org/1999/xlink">
<g id="graph0" class="graph" transform="scale(1 1) rotate(0) translate(4 893.6)">
<title>UmlClassDiagram</title>
<polygon fill="white" stroke="transparent" points="-4,4 -4,-893.6 2853.86,-893.6 2853.86,4 -4,4"/>
<!-- 1 -->
<g id="node1" class="node">
<title>1</title>
<polygon fill="#f2f2f2" stroke="black" points="0,-351.1 0,-467.9 538.89,-467.9 538.89,-351.1 0,-351.1"/>
<text text-anchor="middle" x="269.45" y="-451.3" font-family="Times,serif" font-size="14.00">&lt;&lt;Interface&gt;&gt;</text>
<text text-anchor="middle" x="269.45" y="-434.5" font-family="Times,serif" font-size="14.00">IMetaTxForwarderV2</text>
<text text-anchor="middle" x="269.45" y="-417.7" font-family="Times,serif" font-size="14.00">contracts/metaTx/IMetaTxForwarderV2.sol</text>
<polyline fill="none" stroke="black" points="0,-409.5 538.89,-409.5 "/>
<text text-anchor="start" x="8" y="-392.9" font-family="Times,serif" font-size="14.00">External:</text>
<text text-anchor="start" x="8" y="-376.1" font-family="Times,serif" font-size="14.00"> &#160;&#160;&#160;&#160;executeTransactionLUW(_request: ExecutionRequest, _signatures: bytes): (success: bool)</text>
<text text-anchor="start" x="8" y="-359.3" font-family="Times,serif" font-size="14.00"> &#160;&#160;&#160;&#160;executeTransactionEOA(_request: ExecutionRequest, _signature: bytes): (success: bool)</text>
</g>
<!-- 3 -->
<g id="node2" class="node">
<title>3</title>
<polygon fill="#f2f2f2" stroke="black" points="450.95,-643.3 450.95,-793.7 681.94,-793.7 681.94,-643.3 450.95,-643.3"/>
<text text-anchor="middle" x="566.45" y="-777.1" font-family="Times,serif" font-size="14.00">&lt;&lt;Struct&gt;&gt;</text>
<text text-anchor="middle" x="566.45" y="-760.3" font-family="Times,serif" font-size="14.00">ExecutionRequest</text>
<text text-anchor="middle" x="566.45" y="-743.5" font-family="Times,serif" font-size="14.00">contracts/metaTx/IMetaTxRequest.sol</text>
<polyline fill="none" stroke="black" points="450.95,-735.3 681.94,-735.3 "/>
<text text-anchor="start" x="458.95" y="-718.7" font-family="Times,serif" font-size="14.00">typeHash: bytes32</text>
<text text-anchor="start" x="458.95" y="-701.9" font-family="Times,serif" font-size="14.00">from: address</text>
<text text-anchor="start" x="458.95" y="-685.1" font-family="Times,serif" font-size="14.00">nonce: uint256</text>
<text text-anchor="start" x="458.95" y="-668.3" font-family="Times,serif" font-size="14.00">suffixData: bytes</text>
<text text-anchor="start" x="458.95" y="-651.5" font-family="Times,serif" font-size="14.00">callData: bytes</text>
</g>
<!-- 1&#45;&gt;3 -->
<g id="edge2" class="edge">
<title>1&#45;&gt;3</title>
<path fill="none" stroke="black" stroke-dasharray="5,2" d="M325.31,-468.24C371.05,-515.52 436.31,-582.98 487.41,-635.8"/>
<polygon fill="black" stroke="black" points="485.05,-638.4 494.52,-643.15 490.08,-633.53 485.05,-638.4"/>
</g>
<!-- 2 -->
<g id="node3" class="node">
<title>2</title>
<polygon fill="#f2f2f2" stroke="black" points="450.95,-830.7 450.95,-889.1 681.94,-889.1 681.94,-830.7 450.95,-830.7"/>
<text text-anchor="middle" x="566.45" y="-872.5" font-family="Times,serif" font-size="14.00">&lt;&lt;Interface&gt;&gt;</text>
<text text-anchor="middle" x="566.45" y="-855.7" font-family="Times,serif" font-size="14.00">IMetaTxRequest</text>
<text text-anchor="middle" x="566.45" y="-838.9" font-family="Times,serif" font-size="14.00">contracts/metaTx/IMetaTxRequest.sol</text>
</g>
<!-- 1&#45;&gt;2 -->
<g id="edge1" class="edge">
<title>1&#45;&gt;2</title>
<path fill="none" stroke="black" stroke-dasharray="5,2" d="M282.61,-467.95C303.85,-549.4 352.65,-699.1 442.45,-794.2 449.67,-801.85 457.99,-808.76 466.85,-814.96"/>
<polygon fill="none" stroke="black" points="461.6,-824.06 492.7,-830.61 472.47,-806.1 461.6,-824.06"/>
</g>
<!-- 3&#45;&gt;2 -->
<g id="edge3" class="edge">
<title>3&#45;&gt;2</title>
<path fill="none" stroke="black" d="M566.45,-794.1C566.45,-802.39 566.45,-810.59 566.45,-818.23"/>
<polygon fill="black" stroke="black" points="566.45,-818.46 570.45,-824.46 566.45,-830.46 562.45,-824.46 566.45,-818.46"/>
</g>
<!-- 6 -->
<g id="node4" class="node">
<title>6</title>
<polygon fill="#f2f2f2" stroke="black" points="594.68,-359.5 594.68,-459.5 1128.21,-459.5 1128.21,-359.5 594.68,-359.5"/>
<text text-anchor="middle" x="861.45" y="-442.9" font-family="Times,serif" font-size="14.00">&lt;&lt;Interface&gt;&gt;</text>
<text text-anchor="middle" x="861.45" y="-426.1" font-family="Times,serif" font-size="14.00">ILicensedUserManager</text>
<text text-anchor="middle" x="861.45" y="-409.3" font-family="Times,serif" font-size="14.00">contracts/metaTx/MetaTxForwarderV2.sol</text>
<polyline fill="none" stroke="black" points="594.68,-401.1 1128.21,-401.1 "/>
<text text-anchor="start" x="602.68" y="-384.5" font-family="Times,serif" font-size="14.00">External:</text>
<text text-anchor="start" x="602.68" y="-367.7" font-family="Times,serif" font-size="14.00"> &#160;&#160;&#160;&#160;isValidSignatureSet(_walletAddress: address, _hash: bytes32, _signatures: bytes): bytes4</text>
</g>
<!-- 7 -->
<g id="node5" class="node">
<title>7</title>
<polygon fill="#f2f2f2" stroke="black" points="1216.68,-0.5 1216.68,-175.7 1916.22,-175.7 1916.22,-0.5 1216.68,-0.5"/>
<text text-anchor="middle" x="1566.45" y="-159.1" font-family="Times,serif" font-size="14.00">MetaTxForwarderV2</text>
<text text-anchor="middle" x="1566.45" y="-142.3" font-family="Times,serif" font-size="14.00">contracts/metaTx/MetaTxForwarderV2.sol</text>
<polyline fill="none" stroke="black" points="1216.68,-134.1 1916.22,-134.1 "/>
<text text-anchor="start" x="1224.68" y="-117.5" font-family="Times,serif" font-size="14.00">Internal:</text>
<text text-anchor="start" x="1224.68" y="-100.7" font-family="Times,serif" font-size="14.00"> &#160;&#160;IS_VALID_SIG_SUCCESS: bytes4</text>
<polyline fill="none" stroke="black" points="1216.68,-92.5 1916.22,-92.5 "/>
<text text-anchor="start" x="1224.68" y="-75.9" font-family="Times,serif" font-size="14.00">External:</text>
<text text-anchor="start" x="1224.68" y="-59.1" font-family="Times,serif" font-size="14.00"> &#160;&#160;&#160;executeTransactionLUW(_request: ExecutionRequest, _signatures: bytes): (success: bool) &lt;&lt;requestTypeRegistered&gt;&gt;</text>
<text text-anchor="start" x="1224.68" y="-42.3" font-family="Times,serif" font-size="14.00"> &#160;&#160;&#160;executeTransactionEOA(_request: ExecutionRequest, _signature: bytes): (success: bool) &lt;&lt;requestTypeRegistered&gt;&gt;</text>
<text text-anchor="start" x="1224.68" y="-25.5" font-family="Times,serif" font-size="14.00">Public:</text>
<text text-anchor="start" x="1224.68" y="-8.7" font-family="Times,serif" font-size="14.00"> &#160;&#160;&#160;initialize(_nameRegistry: address) &lt;&lt;initializer&gt;&gt;</text>
</g>
<!-- 7&#45;&gt;1 -->
<g id="edge4" class="edge">
<title>7&#45;&gt;1</title>
<path fill="none" stroke="black" stroke-dasharray="5,2" d="M1216.47,-113.6C972.67,-134.06 670.8,-167.16 552.45,-212.2 480.4,-239.62 409.15,-289.2 356.16,-331.68"/>
<polygon fill="none" stroke="black" points="349.3,-323.73 332.8,-350.89 362.64,-339.95 349.3,-323.73"/>
</g>
<!-- 7&#45;&gt;3 -->
<g id="edge8" class="edge">
<title>7&#45;&gt;3</title>
<path fill="none" stroke="black" stroke-dasharray="5,2" d="M1216.55,-111.06C952.52,-131.23 628.55,-165.16 585.45,-212.2 557.79,-242.38 560.35,-496.81 563.77,-632.7"/>
<polygon fill="black" stroke="black" points="560.29,-633.17 564.04,-643.07 567.28,-632.99 560.29,-633.17"/>
</g>
<!-- 7&#45;&gt;6 -->
<g id="edge9" class="edge">
<title>7&#45;&gt;6</title>
<path fill="none" stroke="black" stroke-dasharray="5,2" d="M1223.28,-175.72C1193.41,-186.73 1164.07,-198.88 1136.45,-212.2 1058.55,-249.77 979.17,-309.17 925.85,-352.8"/>
<polygon fill="black" stroke="black" points="923.34,-350.33 917.85,-359.39 927.79,-355.73 923.34,-350.33"/>
</g>
<!-- 10 -->
<g id="node7" class="node">
<title>10</title>
<polygon fill="#f2f2f2" stroke="black" points="1145.87,-212.7 1145.87,-606.3 1987.02,-606.3 1987.02,-212.7 1145.87,-212.7"/>
<text text-anchor="middle" x="1566.45" y="-589.7" font-family="Times,serif" font-size="14.00">MetaTxRequestManager</text>
<text text-anchor="middle" x="1566.45" y="-572.9" font-family="Times,serif" font-size="14.00">contracts/metaTx/MetaTxRequestManager.sol</text>
<polyline fill="none" stroke="black" points="1145.87,-564.7 1987.02,-564.7 "/>
<text text-anchor="start" x="1153.87" y="-548.1" font-family="Times,serif" font-size="14.00">Public:</text>
<text text-anchor="start" x="1153.87" y="-531.3" font-family="Times,serif" font-size="14.00"> &#160;&#160;DOMAIN_NAME: string</text>
<text text-anchor="start" x="1153.87" y="-514.5" font-family="Times,serif" font-size="14.00"> &#160;&#160;DOMAIN_VERSION: string</text>
<text text-anchor="start" x="1153.87" y="-497.7" font-family="Times,serif" font-size="14.00"> &#160;&#160;DOMAIN_SEPARATOR_TYPEHASH: bytes32</text>
<text text-anchor="start" x="1153.87" y="-480.9" font-family="Times,serif" font-size="14.00"> &#160;&#160;GENERIC_PARAMS: string</text>
<text text-anchor="start" x="1153.87" y="-464.1" font-family="Times,serif" font-size="14.00"> &#160;&#160;typeHashes: mapping(bytes32=&gt;bool)</text>
<text text-anchor="start" x="1153.87" y="-447.3" font-family="Times,serif" font-size="14.00"> &#160;&#160;requestTypes: mapping(bytes32=&gt;MetaTxRequestType)</text>
<text text-anchor="start" x="1153.87" y="-430.5" font-family="Times,serif" font-size="14.00"> &#160;&#160;domainSeparator: bytes32</text>
<text text-anchor="start" x="1153.87" y="-413.7" font-family="Times,serif" font-size="14.00"> &#160;&#160;nameRegistryAddress: address</text>
<polyline fill="none" stroke="black" points="1145.87,-405.5 1987.02,-405.5 "/>
<text text-anchor="start" x="1153.87" y="-388.9" font-family="Times,serif" font-size="14.00">Internal:</text>
<text text-anchor="start" x="1153.87" y="-372.1" font-family="Times,serif" font-size="14.00"> &#160;&#160;&#160;__MTRM_initialize(_nameRegistryAddress: address) &lt;&lt;initializer&gt;&gt;</text>
<text text-anchor="start" x="1153.87" y="-355.3" font-family="Times,serif" font-size="14.00">External:</text>
<text text-anchor="start" x="1153.87" y="-338.5" font-family="Times,serif" font-size="14.00"> &#160;&#160;&#160;registerRequestType(_typeName: string, _typeSuffix: string, _destinationContract: address, _functionSignature: bytes4) &lt;&lt;onlyAdministrator&gt;&gt;</text>
<text text-anchor="start" x="1153.87" y="-321.7" font-family="Times,serif" font-size="14.00"> &#160;&#160;&#160;unregisterRequestType(_typeHash: bytes32) &lt;&lt;requestTypeRegistered, onlyAdministrator&gt;&gt;</text>
<text text-anchor="start" x="1153.87" y="-304.9" font-family="Times,serif" font-size="14.00">Public:</text>
<text text-anchor="start" x="1153.87" y="-288.1" font-family="Times,serif" font-size="14.00"> &#160;&#160;&#160;&lt;&lt;event&gt;&gt; RequestTypeRegistered(typeHash: bytes32, typeStr: string)</text>
<text text-anchor="start" x="1153.87" y="-271.3" font-family="Times,serif" font-size="14.00"> &#160;&#160;&#160;&lt;&lt;event&gt;&gt; RequestTypeUnregistered(typeHash: bytes32)</text>
<text text-anchor="start" x="1153.87" y="-254.5" font-family="Times,serif" font-size="14.00"> &#160;&#160;&#160;&lt;&lt;modifier&gt;&gt; requestTypeRegistered(_typeHash: bytes32)</text>
<text text-anchor="start" x="1153.87" y="-237.7" font-family="Times,serif" font-size="14.00"> &#160;&#160;&#160;&lt;&lt;modifier&gt;&gt; onlyAdministrator()</text>
<text text-anchor="start" x="1153.87" y="-220.9" font-family="Times,serif" font-size="14.00"> &#160;&#160;&#160;encodeRequest(_request: ExecutionRequest): bytes &lt;&lt;requestTypeRegistered&gt;&gt;</text>
</g>
<!-- 7&#45;&gt;10 -->
<g id="edge7" class="edge">
<title>7&#45;&gt;10</title>
<path fill="none" stroke="black" d="M1566.45,-175.96C1566.45,-178.05 1566.45,-180.16 1566.45,-182.29"/>
<polygon fill="none" stroke="black" points="1555.95,-182.5 1566.45,-212.5 1576.95,-182.5 1555.95,-182.5"/>
</g>
<!-- 12 -->
<g id="node8" class="node">
<title>12</title>
<polygon fill="#f2f2f2" stroke="black" points="2004.54,-330.3 2004.54,-488.7 2388.35,-488.7 2388.35,-330.3 2004.54,-330.3"/>
<text text-anchor="middle" x="2196.45" y="-472.1" font-family="Times,serif" font-size="14.00">TransactionExecutor</text>
<text text-anchor="middle" x="2196.45" y="-455.3" font-family="Times,serif" font-size="14.00">contracts/metaTx/TransactionExecutor.sol</text>
<polyline fill="none" stroke="black" points="2004.54,-447.1 2388.35,-447.1 "/>
<text text-anchor="start" x="2012.54" y="-430.5" font-family="Times,serif" font-size="14.00">Internal:</text>
<text text-anchor="start" x="2012.54" y="-413.7" font-family="Times,serif" font-size="14.00"> &#160;&#160;EXECUTE_FAILED_WITHOUT_REASON: string</text>
<polyline fill="none" stroke="black" points="2004.54,-405.5 2388.35,-405.5 "/>
<text text-anchor="start" x="2012.54" y="-388.9" font-family="Times,serif" font-size="14.00">Internal:</text>
<text text-anchor="start" x="2012.54" y="-372.1" font-family="Times,serif" font-size="14.00"> &#160;&#160;&#160;executeCall(_to: address, _data: bytes, _txHash: bytes32): bool</text>
<text text-anchor="start" x="2012.54" y="-355.3" font-family="Times,serif" font-size="14.00">Public:</text>
<text text-anchor="start" x="2012.54" y="-338.5" font-family="Times,serif" font-size="14.00"> &#160;&#160;&#160;&lt;&lt;event&gt;&gt; ExecutionSuccess(txHash: bytes32)</text>
</g>
<!-- 7&#45;&gt;12 -->
<g id="edge5" class="edge">
<title>7&#45;&gt;12</title>
<path fill="none" stroke="black" d="M1916.48,-173.02C1944.27,-184.54 1971.29,-197.54 1996.45,-212.2 2039.21,-237.11 2079.57,-273.21 2112.68,-307.69"/>
<polygon fill="none" stroke="black" points="2105.24,-315.11 2133.34,-329.97 2120.64,-300.83 2105.24,-315.11"/>
</g>
<!-- 16 -->
<g id="node10" class="node">
<title>16</title>
<polygon fill="#f2f2f2" stroke="black" points="2406.78,-313.5 2406.78,-505.5 2848.11,-505.5 2848.11,-313.5 2406.78,-313.5"/>
<text text-anchor="middle" x="2627.45" y="-488.9" font-family="Times,serif" font-size="14.00">ReplayProtection</text>
<text text-anchor="middle" x="2627.45" y="-472.1" font-family="Times,serif" font-size="14.00">contracts/metaTx/replayProtection/ReplayProtection.sol</text>
<polyline fill="none" stroke="black" points="2406.78,-463.9 2848.11,-463.9 "/>
<text text-anchor="start" x="2414.78" y="-447.3" font-family="Times,serif" font-size="14.00">Public:</text>
<text text-anchor="start" x="2414.78" y="-430.5" font-family="Times,serif" font-size="14.00"> &#160;&#160;UINT_128_SHIFT: uint256</text>
<text text-anchor="start" x="2414.78" y="-413.7" font-family="Times,serif" font-size="14.00"> &#160;&#160;nonces: mapping(address=&gt;mapping(uint128=&gt;uint128))</text>
<polyline fill="none" stroke="black" points="2406.78,-405.5 2848.11,-405.5 "/>
<text text-anchor="start" x="2414.78" y="-388.9" font-family="Times,serif" font-size="14.00">Internal:</text>
<text text-anchor="start" x="2414.78" y="-372.1" font-family="Times,serif" font-size="14.00"> &#160;&#160;&#160;checkAndUpdateNonce(_wallet: address, _packedNonce: uint256): bool</text>
<text text-anchor="start" x="2414.78" y="-355.3" font-family="Times,serif" font-size="14.00">External:</text>
<text text-anchor="start" x="2414.78" y="-338.5" font-family="Times,serif" font-size="14.00"> &#160;&#160;&#160;getNonce(_wallet: address, _channel: uint128): uint128</text>
<text text-anchor="start" x="2414.78" y="-321.7" font-family="Times,serif" font-size="14.00"> &#160;&#160;&#160;packNonce(_channel: uint128, _nonce: uint128): (noncePacked: uint256)</text>
</g>
<!-- 7&#45;&gt;16 -->
<g id="edge6" class="edge">
<title>7&#45;&gt;16</title>
<path fill="none" stroke="black" d="M1916.31,-121.46C2103.31,-142.58 2312.19,-173.43 2397.45,-212.2 2440.67,-231.85 2482.05,-262.12 2517.51,-293.05"/>
<polygon fill="none" stroke="black" points="2510.64,-300.99 2539.91,-313.36 2524.74,-285.43 2510.64,-300.99"/>
</g>
<!-- 11 -->
<g id="node6" class="node">
<title>11</title>
<polygon fill="#f2f2f2" stroke="black" points="1428.41,-668.5 1428.41,-768.5 1704.49,-768.5 1704.49,-668.5 1428.41,-668.5"/>
<text text-anchor="middle" x="1566.45" y="-751.9" font-family="Times,serif" font-size="14.00">&lt;&lt;Struct&gt;&gt;</text>
<text text-anchor="middle" x="1566.45" y="-735.1" font-family="Times,serif" font-size="14.00">MetaTxRequestType</text>
<text text-anchor="middle" x="1566.45" y="-718.3" font-family="Times,serif" font-size="14.00">contracts/metaTx/MetaTxRequestManager.sol</text>
<polyline fill="none" stroke="black" points="1428.41,-710.1 1704.49,-710.1 "/>
<text text-anchor="start" x="1436.41" y="-693.5" font-family="Times,serif" font-size="14.00">destination: address</text>
<text text-anchor="start" x="1436.41" y="-676.7" font-family="Times,serif" font-size="14.00">functionSignature: bytes4</text>
</g>
<!-- 11&#45;&gt;10 -->
<g id="edge10" class="edge">
<title>11&#45;&gt;10</title>
<path fill="none" stroke="black" d="M1571.55,-668.45C1572.11,-653.87 1572.53,-636.9 1572.8,-618.75"/>
<polygon fill="black" stroke="black" points="1572.8,-618.66 1568.88,-612.61 1572.96,-606.67 1576.88,-612.72 1572.8,-618.66"/>
</g>
<!-- 10&#45;&gt;3 -->
<g id="edge13" class="edge">
<title>10&#45;&gt;3</title>
<path fill="none" stroke="black" stroke-dasharray="5,2" d="M1145.65,-604.14C1142.91,-605.04 1140.18,-605.92 1137.45,-606.8 987.96,-654.74 809.45,-685.28 692.3,-701.87"/>
<polygon fill="black" stroke="black" points="691.63,-698.43 682.21,-703.29 692.6,-705.36 691.63,-698.43"/>
</g>
<!-- 10&#45;&gt;2 -->
<g id="edge11" class="edge">
<title>10&#45;&gt;2</title>
<path fill="none" stroke="black" stroke-dasharray="5,2" d="M1145.6,-603.13C1142.87,-604.36 1140.16,-605.58 1137.45,-606.8 969.01,-682.51 771.8,-769.14 658.76,-818.6"/>
<polygon fill="none" stroke="black" points="654.5,-809 631.22,-830.64 662.92,-828.24 654.5,-809"/>
</g>
<!-- 10&#45;&gt;11 -->
<g id="edge12" class="edge">
<title>10&#45;&gt;11</title>
<path fill="none" stroke="black" d="M1559.93,-606.67C1560.14,-625.09 1560.49,-642.63 1560.98,-658.09"/>
<polygon fill="black" stroke="black" points="1557.5,-658.58 1561.34,-668.45 1564.49,-658.34 1557.5,-658.58"/>
</g>
<!-- 15 -->
<g id="node9" class="node">
<title>15</title>
<polygon fill="#f2f2f2" stroke="black" points="2405.03,-660.1 2405.03,-776.9 2849.86,-776.9 2849.86,-660.1 2405.03,-660.1"/>
<text text-anchor="middle" x="2627.45" y="-760.3" font-family="Times,serif" font-size="14.00">&lt;&lt;Interface&gt;&gt;</text>
<text text-anchor="middle" x="2627.45" y="-743.5" font-family="Times,serif" font-size="14.00">IReplayProtection</text>
<text text-anchor="middle" x="2627.45" y="-726.7" font-family="Times,serif" font-size="14.00">contracts/metaTx/replayProtection/IReplayProtection.sol</text>
<polyline fill="none" stroke="black" points="2405.03,-718.5 2849.86,-718.5 "/>
<text text-anchor="start" x="2413.03" y="-701.9" font-family="Times,serif" font-size="14.00">External:</text>
<text text-anchor="start" x="2413.03" y="-685.1" font-family="Times,serif" font-size="14.00"> &#160;&#160;&#160;&#160;getNonce(_signer: address, _channel: uint128): uint128</text>
<text text-anchor="start" x="2413.03" y="-668.3" font-family="Times,serif" font-size="14.00"> &#160;&#160;&#160;&#160;packNonce(_channel: uint128, _nonce: uint128): (noncePacked: uint256)</text>
</g>
<!-- 16&#45;&gt;15 -->
<g id="edge14" class="edge">
<title>16&#45;&gt;15</title>
<path fill="none" stroke="black" stroke-dasharray="5,2" d="M2627.45,-505.53C2627.45,-545.22 2627.45,-591.03 2627.45,-629.89"/>
<polygon fill="none" stroke="black" points="2616.95,-629.95 2627.45,-659.95 2637.95,-629.95 2616.95,-629.95"/>
</g>
</g>
</svg>
