<?xml version="1.0" encoding="UTF-8" standalone="no"?>
<!DOCTYPE svg PUBLIC "-//W3C//DTD SVG 1.1//EN"
 "http://www.w3.org/Graphics/SVG/1.1/DTD/svg11.dtd">
<!-- Generated by graphviz version 5.0.0 (20220707.1540)
 -->
<!-- Title: UmlClassDiagram Pages: 1 -->
<svg width="1750pt" height="551pt"
 viewBox="0.00 0.00 1750.27 551.00" xmlns="http://www.w3.org/2000/svg" xmlns:xlink="http://www.w3.org/1999/xlink">
<g id="graph0" class="graph" transform="scale(1 1) rotate(0) translate(4 547)">
<title>UmlClassDiagram</title>
<polygon fill="white" stroke="transparent" points="-4,4 -4,-547 1746.27,-547 1746.27,4 -4,4"/>
<!-- 0 -->
<g id="node1" class="node">
<title>0</title>
<polygon fill="#f2f2f2" stroke="black" points="0,-187.9 0,-388.7 449.15,-388.7 449.15,-187.9 0,-187.9"/>
<text text-anchor="middle" x="224.58" y="-372.1" font-family="Times,serif" font-size="14.00">&lt;&lt;Abstract&gt;&gt;</text>
<text text-anchor="middle" x="224.58" y="-355.3" font-family="Times,serif" font-size="14.00">FeatureRegistryBase</text>
<text text-anchor="middle" x="224.58" y="-338.5" font-family="Times,serif" font-size="14.00">contracts/collection/registry/FeatureRegistryBase.sol</text>
<polyline fill="none" stroke="black" points="0,-330.3 449.15,-330.3 "/>
<text text-anchor="start" x="8" y="-313.7" font-family="Times,serif" font-size="14.00">Internal:</text>
<text text-anchor="start" x="8" y="-296.9" font-family="Times,serif" font-size="14.00"> &#160;&#160;&#160;setSupportedInterfaceInternal(interfaceId: bytes4, status: bool)</text>
<text text-anchor="start" x="8" y="-280.1" font-family="Times,serif" font-size="14.00">External:</text>
<text text-anchor="start" x="8" y="-263.3" font-family="Times,serif" font-size="14.00"> &#160;&#160;&#160;setSupportedInterface(interfaceId: bytes4, status: bool) &lt;&lt;onlyOwner&gt;&gt;</text>
<text text-anchor="start" x="8" y="-246.5" font-family="Times,serif" font-size="14.00"> &#160;&#160;&#160;getSupportedInterface(interfaceId: bytes4): bool</text>
<text text-anchor="start" x="8" y="-229.7" font-family="Times,serif" font-size="14.00">Public:</text>
<text text-anchor="start" x="8" y="-212.9" font-family="Times,serif" font-size="14.00"> &#160;&#160;&#160;&lt;&lt;event&gt;&gt; FeatureContractCreated(featureAddress: address, name: string)</text>
<text text-anchor="start" x="8" y="-196.1" font-family="Times,serif" font-size="14.00"> &#160;&#160;&#160;constructor()</text>
</g>
<!-- 2 -->
<g id="node3" class="node">
<title>2</title>
<polygon fill="#f2f2f2" stroke="black" points="36.78,-425.7 36.78,-542.5 412.38,-542.5 412.38,-425.7 36.78,-425.7"/>
<text text-anchor="middle" x="224.58" y="-525.9" font-family="Times,serif" font-size="14.00">&lt;&lt;Interface&gt;&gt;</text>
<text text-anchor="middle" x="224.58" y="-509.1" font-family="Times,serif" font-size="14.00">IFeatureRegistryBase</text>
<text text-anchor="middle" x="224.58" y="-492.3" font-family="Times,serif" font-size="14.00">contracts/collection/registry/interfaces/IFeatureRegistryBase.sol</text>
<polyline fill="none" stroke="black" points="36.78,-484.1 412.38,-484.1 "/>
<text text-anchor="start" x="44.78" y="-467.5" font-family="Times,serif" font-size="14.00">External:</text>
<text text-anchor="start" x="44.78" y="-450.7" font-family="Times,serif" font-size="14.00"> &#160;&#160;&#160;&#160;setSupportedInterface(interfaceId: bytes4, status: bool)</text>
<text text-anchor="start" x="44.78" y="-433.9" font-family="Times,serif" font-size="14.00"> &#160;&#160;&#160;&#160;getSupportedInterface(interfaceId: bytes4): bool</text>
</g>
<!-- 0&#45;&gt;2 -->
<g id="edge1" class="edge">
<title>0&#45;&gt;2</title>
<path fill="none" stroke="black" stroke-dasharray="5,2" d="M224.58,-388.75C224.58,-391.03 224.58,-393.3 224.58,-395.56"/>
<polygon fill="none" stroke="black" points="214.08,-395.64 224.58,-425.64 235.08,-395.64 214.08,-395.64"/>
</g>
<!-- 1 -->
<g id="node2" class="node">
<title>1</title>
<polygon fill="#f2f2f2" stroke="black" points="476.58,-0.5 476.58,-150.9 908.57,-150.9 908.57,-0.5 476.58,-0.5"/>
<text text-anchor="middle" x="692.58" y="-134.3" font-family="Times,serif" font-size="14.00">StartrailCollectionFeatureRegistry</text>
<text text-anchor="middle" x="692.58" y="-117.5" font-family="Times,serif" font-size="14.00">contracts/collection/registry/StartrailCollectionFeatureRegistry.sol</text>
<polyline fill="none" stroke="black" points="476.58,-109.3 908.57,-109.3 "/>
<text text-anchor="start" x="484.58" y="-92.7" font-family="Times,serif" font-size="14.00">External:</text>
<text text-anchor="start" x="484.58" y="-75.9" font-family="Times,serif" font-size="14.00"> &#160;&#160;&#160;getEIP2771TrustedForwarder(): address</text>
<text text-anchor="start" x="484.58" y="-59.1" font-family="Times,serif" font-size="14.00"> &#160;&#160;&#160;setEIP2771TrustedForwarder(forwarder: address) &lt;&lt;onlyOwner&gt;&gt;</text>
<text text-anchor="start" x="484.58" y="-42.3" font-family="Times,serif" font-size="14.00"> &#160;&#160;&#160;getNameRegistry(): address</text>
<text text-anchor="start" x="484.58" y="-25.5" font-family="Times,serif" font-size="14.00">Public:</text>
<text text-anchor="start" x="484.58" y="-8.7" font-family="Times,serif" font-size="14.00"> &#160;&#160;&#160;constructor(eip2771TrustedForwarder: address, nameRegistry: address)</text>
</g>
<!-- 1&#45;&gt;0 -->
<g id="edge3" class="edge">
<title>1&#45;&gt;0</title>
<path fill="none" stroke="black" d="M527.58,-150.95C509.82,-158.94 491.49,-167.19 473.03,-175.5"/>
<polygon fill="none" stroke="black" points="468.52,-166.01 445.47,-187.9 477.14,-185.16 468.52,-166.01"/>
</g>
<!-- 3 -->
<g id="node4" class="node">
<title>3</title>
<polygon fill="#f2f2f2" stroke="black" points="466.67,-229.9 466.67,-346.7 918.48,-346.7 918.48,-229.9 466.67,-229.9"/>
<text text-anchor="middle" x="692.58" y="-330.1" font-family="Times,serif" font-size="14.00">&lt;&lt;Interface&gt;&gt;</text>
<text text-anchor="middle" x="692.58" y="-313.3" font-family="Times,serif" font-size="14.00">IStartrailCollectionFeatureRegistry</text>
<text text-anchor="middle" x="692.58" y="-296.5" font-family="Times,serif" font-size="14.00">contracts/collection/registry/interfaces/IStartrailCollectionFeatureRegistry.sol</text>
<polyline fill="none" stroke="black" points="466.67,-288.3 918.48,-288.3 "/>
<text text-anchor="start" x="474.67" y="-271.7" font-family="Times,serif" font-size="14.00">External:</text>
<text text-anchor="start" x="474.67" y="-254.9" font-family="Times,serif" font-size="14.00"> &#160;&#160;&#160;&#160;getEIP2771TrustedForwarder(): address</text>
<text text-anchor="start" x="474.67" y="-238.1" font-family="Times,serif" font-size="14.00"> &#160;&#160;&#160;&#160;getNameRegistry(): address</text>
</g>
<!-- 1&#45;&gt;3 -->
<g id="edge2" class="edge">
<title>1&#45;&gt;3</title>
<path fill="none" stroke="black" stroke-dasharray="5,2" d="M692.58,-150.95C692.58,-166.58 692.58,-183.21 692.58,-199.29"/>
<polygon fill="none" stroke="black" points="682.08,-199.59 692.58,-229.59 703.08,-199.59 682.08,-199.59"/>
</g>
<!-- 4 -->
<g id="node5" class="node">
<title>4</title>
<polygon fill="#f2f2f2" stroke="black" points="935.99,-217.5 935.99,-359.1 1341.16,-359.1 1341.16,-217.5 935.99,-217.5"/>
<text text-anchor="middle" x="1138.58" y="-342.5" font-family="Times,serif" font-size="14.00">&lt;&lt;Library&gt;&gt;</text>
<text text-anchor="middle" x="1138.58" y="-325.7" font-family="Times,serif" font-size="14.00">LibEIP2771RecipientStorage</text>
<text text-anchor="middle" x="1138.58" y="-308.9" font-family="Times,serif" font-size="14.00">contracts/collection/registry/storage/LibEIP2771RecipientStorage.sol</text>
<polyline fill="none" stroke="black" points="935.99,-300.7 1341.16,-300.7 "/>
<text text-anchor="start" x="943.99" y="-284.1" font-family="Times,serif" font-size="14.00">Internal:</text>
<text text-anchor="start" x="943.99" y="-267.3" font-family="Times,serif" font-size="14.00"> &#160;&#160;STORAGE_SLOT: bytes32</text>
<polyline fill="none" stroke="black" points="935.99,-259.1 1341.16,-259.1 "/>
<text text-anchor="start" x="943.99" y="-242.5" font-family="Times,serif" font-size="14.00">Internal:</text>
<text text-anchor="start" x="943.99" y="-225.7" font-family="Times,serif" font-size="14.00"> &#160;&#160;&#160;layout(): (l: Layout)</text>
</g>
<!-- 1&#45;&gt;4 -->
<g id="edge4" class="edge">
<title>1&#45;&gt;4</title>
<path fill="none" stroke="black" stroke-dasharray="5,2" d="M850.29,-150.94C876.12,-163.12 902.6,-175.6 927.58,-187.4 945.13,-195.69 963.51,-204.38 981.78,-213.02"/>
<polygon fill="black" stroke="black" points="980.49,-216.28 991.03,-217.4 983.49,-209.96 980.49,-216.28"/>
</g>
<!-- 6 -->
<g id="node7" class="node">
<title>6</title>
<polygon fill="#f2f2f2" stroke="black" points="1358.88,-217.5 1358.88,-359.1 1742.27,-359.1 1742.27,-217.5 1358.88,-217.5"/>
<text text-anchor="middle" x="1550.58" y="-342.5" font-family="Times,serif" font-size="14.00">&lt;&lt;Library&gt;&gt;</text>
<text text-anchor="middle" x="1550.58" y="-325.7" font-family="Times,serif" font-size="14.00">LibNameRegistryStorage</text>
<text text-anchor="middle" x="1550.58" y="-308.9" font-family="Times,serif" font-size="14.00">contracts/collection/registry/storage/LibNameRegistryStorage.sol</text>
<polyline fill="none" stroke="black" points="1358.88,-300.7 1742.27,-300.7 "/>
<text text-anchor="start" x="1366.88" y="-284.1" font-family="Times,serif" font-size="14.00">Internal:</text>
<text text-anchor="start" x="1366.88" y="-267.3" font-family="Times,serif" font-size="14.00"> &#160;&#160;STORAGE_SLOT: bytes32</text>
<polyline fill="none" stroke="black" points="1358.88,-259.1 1742.27,-259.1 "/>
<text text-anchor="start" x="1366.88" y="-242.5" font-family="Times,serif" font-size="14.00">Internal:</text>
<text text-anchor="start" x="1366.88" y="-225.7" font-family="Times,serif" font-size="14.00"> &#160;&#160;&#160;layout(): (l: Layout)</text>
</g>
<!-- 1&#45;&gt;6 -->
<g id="edge5" class="edge">
<title>1&#45;&gt;6</title>
<path fill="none" stroke="black" stroke-dasharray="5,2" d="M908.68,-96.71C1038.98,-112.77 1206.98,-140.61 1350.58,-187.4 1372.13,-194.42 1394.26,-203.44 1415.58,-213.18"/>
<polygon fill="black" stroke="black" points="1414.12,-216.36 1424.66,-217.39 1417.06,-210.01 1414.12,-216.36"/>
</g>
<!-- 7 -->
<g id="node6" class="node">
<title>7</title>
<polygon fill="#f2f2f2" stroke="black" points="1358.88,-442.5 1358.88,-525.7 1742.27,-525.7 1742.27,-442.5 1358.88,-442.5"/>
<text text-anchor="middle" x="1550.58" y="-509.1" font-family="Times,serif" font-size="14.00">&lt;&lt;Struct&gt;&gt;</text>
<text text-anchor="middle" x="1550.58" y="-492.3" font-family="Times,serif" font-size="14.00">Layout</text>
<text text-anchor="middle" x="1550.58" y="-475.5" font-family="Times,serif" font-size="14.00">contracts/collection/registry/storage/LibNameRegistryStorage.sol</text>
<polyline fill="none" stroke="black" points="1358.88,-467.3 1742.27,-467.3 "/>
<text text-anchor="start" x="1366.88" y="-450.7" font-family="Times,serif" font-size="14.00">nameRegistry: address</text>
</g>
<!-- 7&#45;&gt;6 -->
<g id="edge6" class="edge">
<title>7&#45;&gt;6</title>
<path fill="none" stroke="black" d="M1556.2,-442.28C1557.14,-421.7 1557.49,-395.97 1557.26,-371.52"/>
<polygon fill="black" stroke="black" points="1557.25,-371.27 1553.17,-365.32 1557.09,-359.27 1561.17,-365.21 1557.25,-371.27"/>
</g>
<!-- 6&#45;&gt;7 -->
<g id="edge7" class="edge">
<title>6&#45;&gt;7</title>
<path fill="none" stroke="black" stroke-dasharray="5,2" d="M1544.06,-359.27C1543.63,-383.32 1543.79,-409.78 1544.55,-432.05"/>
<polygon fill="black" stroke="black" points="1541.06,-432.43 1544.95,-442.28 1548.06,-432.15 1541.06,-432.43"/>
</g>
</g>
</svg>
