<?xml version="1.0" encoding="UTF-8" standalone="no"?>
<!DOCTYPE svg PUBLIC "-//W3C//DTD SVG 1.1//EN"
 "http://www.w3.org/Graphics/SVG/1.1/DTD/svg11.dtd">
<!-- Generated by graphviz version 2.40.1 (20161225.0304)
 -->
<!-- Title: UmlClassDiagram Pages: 1 -->
<svg width="1176pt" height="575pt"
 viewBox="0.00 0.00 1175.55 575.00" xmlns="http://www.w3.org/2000/svg" xmlns:xlink="http://www.w3.org/1999/xlink">
<g id="graph0" class="graph" transform="scale(1 1) rotate(0) translate(4 571)">
<title>UmlClassDiagram</title>
<polygon fill="#ffffff" stroke="transparent" points="-4,4 -4,-571 1171.5541,-571 1171.5541,4 -4,4"/>
<!-- 0 -->
<g id="node1" class="node">
<title>0</title>
<polygon fill="#f2f2f2" stroke="#000000" points="0,-195.9 0,-404.7 449.1292,-404.7 449.1292,-195.9 0,-195.9"/>
<text text-anchor="middle" x="224.5646" y="-388.1" font-family="Times,serif" font-size="14.00" fill="#000000">&lt;&lt;Abstract&gt;&gt;</text>
<text text-anchor="middle" x="224.5646" y="-371.3" font-family="Times,serif" font-size="14.00" fill="#000000">FeatureRegistryBase</text>
<polyline fill="none" stroke="#000000" points="0,-363.1 449.1292,-363.1 "/>
<text text-anchor="middle" x="224.5646" y="-346.5" font-family="Times,serif" font-size="14.00" fill="#000000"> </text>
<polyline fill="none" stroke="#000000" points="0,-338.3 449.1292,-338.3 "/>
<text text-anchor="start" x="8" y="-321.7" font-family="Times,serif" font-size="14.00" fill="#000000">Internal:</text>
<text text-anchor="start" x="8" y="-304.9" font-family="Times,serif" font-size="14.00" fill="#000000"> &#160;&#160;&#160;setSupportedInterfaceInternal(interfaceId: bytes4, status: bool)</text>
<text text-anchor="start" x="8" y="-288.1" font-family="Times,serif" font-size="14.00" fill="#000000">External:</text>
<text text-anchor="start" x="8" y="-271.3" font-family="Times,serif" font-size="14.00" fill="#000000"> &#160;&#160;&#160;setSupportedInterface(interfaceId: bytes4, status: bool)</text>
<text text-anchor="start" x="8" y="-254.5" font-family="Times,serif" font-size="14.00" fill="#000000"> &#160;&#160;&#160;getSupportedInterface(interfaceId: bytes4): bool</text>
<text text-anchor="start" x="8" y="-237.7" font-family="Times,serif" font-size="14.00" fill="#000000">Public:</text>
<text text-anchor="start" x="8" y="-220.9" font-family="Times,serif" font-size="14.00" fill="#000000"> &#160;&#160;&#160;&lt;&lt;event&gt;&gt; FeatureContractCreated(featureAddress: address, name: string)</text>
<text text-anchor="start" x="8" y="-204.1" font-family="Times,serif" font-size="14.00" fill="#000000"> &#160;&#160;&#160;constructor()</text>
</g>
<!-- 2 -->
<g id="node3" class="node">
<title>2</title>
<polygon fill="#f2f2f2" stroke="#000000" points="53.8755,-441.7 53.8755,-566.5 395.2537,-566.5 395.2537,-441.7 53.8755,-441.7"/>
<text text-anchor="middle" x="224.5646" y="-549.9" font-family="Times,serif" font-size="14.00" fill="#000000">&lt;&lt;Interface&gt;&gt;</text>
<text text-anchor="middle" x="224.5646" y="-533.1" font-family="Times,serif" font-size="14.00" fill="#000000">IFeatureRegistryBase</text>
<polyline fill="none" stroke="#000000" points="53.8755,-524.9 395.2537,-524.9 "/>
<text text-anchor="middle" x="224.5646" y="-508.3" font-family="Times,serif" font-size="14.00" fill="#000000"> </text>
<polyline fill="none" stroke="#000000" points="53.8755,-500.1 395.2537,-500.1 "/>
<text text-anchor="start" x="61.8755" y="-483.5" font-family="Times,serif" font-size="14.00" fill="#000000">External:</text>
<text text-anchor="start" x="61.8755" y="-466.7" font-family="Times,serif" font-size="14.00" fill="#000000"> &#160;&#160;&#160;&#160;setSupportedInterface(interfaceId: bytes4, status: bool)</text>
<text text-anchor="start" x="61.8755" y="-449.9" font-family="Times,serif" font-size="14.00" fill="#000000"> &#160;&#160;&#160;&#160;getSupportedInterface(interfaceId: bytes4): bool</text>
</g>
<!-- 0&#45;&gt;2 -->
<g id="edge3" class="edge">
<title>0&#45;&gt;2</title>
<path fill="none" stroke="#000000" stroke-dasharray="5,2" d="M224.5646,-404.8865C224.5646,-407.0366 224.5646,-409.1852 224.5646,-411.3282"/>
<polygon fill="none" stroke="#000000" points="214.0647,-411.4988 224.5646,-441.4988 235.0647,-411.4989 214.0647,-411.4988"/>
</g>
<!-- 1 -->
<g id="node2" class="node">
<title>1</title>
<polygon fill="#f2f2f2" stroke="#000000" points="342.5834,-.5 342.5834,-158.9 774.5458,-158.9 774.5458,-.5 342.5834,-.5"/>
<text text-anchor="middle" x="558.5646" y="-142.3" font-family="Times,serif" font-size="14.00" fill="#000000">StartrailCollectionFeatureRegistry</text>
<polyline fill="none" stroke="#000000" points="342.5834,-134.1 774.5458,-134.1 "/>
<text text-anchor="middle" x="558.5646" y="-117.5" font-family="Times,serif" font-size="14.00" fill="#000000"> </text>
<polyline fill="none" stroke="#000000" points="342.5834,-109.3 774.5458,-109.3 "/>
<text text-anchor="start" x="350.5834" y="-92.7" font-family="Times,serif" font-size="14.00" fill="#000000">External:</text>
<text text-anchor="start" x="350.5834" y="-75.9" font-family="Times,serif" font-size="14.00" fill="#000000"> &#160;&#160;&#160;getEIP2771TrustedForwarder(): address</text>
<text text-anchor="start" x="350.5834" y="-59.1" font-family="Times,serif" font-size="14.00" fill="#000000"> &#160;&#160;&#160;setEIP2771TrustedForwarder(forwarder: address)</text>
<text text-anchor="start" x="350.5834" y="-42.3" font-family="Times,serif" font-size="14.00" fill="#000000"> &#160;&#160;&#160;getNameRegistry(): address</text>
<text text-anchor="start" x="350.5834" y="-25.5" font-family="Times,serif" font-size="14.00" fill="#000000">Public:</text>
<text text-anchor="start" x="350.5834" y="-8.7" font-family="Times,serif" font-size="14.00" fill="#000000"> &#160;&#160;&#160;constructor(eip2771TrustedForwarder: address, nameRegistry: address)</text>
</g>
<!-- 1&#45;&gt;0 -->
<g id="edge5" class="edge">
<title>1&#45;&gt;0</title>
<path fill="none" stroke="#000000" d="M438.4548,-159.03C428.5851,-165.5487 418.4776,-172.2245 408.2862,-178.9557"/>
<polygon fill="none" stroke="#000000" points="402.114,-170.4488 382.868,-195.7439 413.6876,-187.9717 402.114,-170.4488"/>
</g>
<!-- 3 -->
<g id="node4" class="node">
<title>3</title>
<polygon fill="#f2f2f2" stroke="#000000" points="466.8871,-237.9 466.8871,-362.7 726.2421,-362.7 726.2421,-237.9 466.8871,-237.9"/>
<text text-anchor="middle" x="596.5646" y="-346.1" font-family="Times,serif" font-size="14.00" fill="#000000">&lt;&lt;Interface&gt;&gt;</text>
<text text-anchor="middle" x="596.5646" y="-329.3" font-family="Times,serif" font-size="14.00" fill="#000000">IStartrailCollectionFeatureRegistry</text>
<polyline fill="none" stroke="#000000" points="466.8871,-321.1 726.2421,-321.1 "/>
<text text-anchor="middle" x="596.5646" y="-304.5" font-family="Times,serif" font-size="14.00" fill="#000000"> </text>
<polyline fill="none" stroke="#000000" points="466.8871,-296.3 726.2421,-296.3 "/>
<text text-anchor="start" x="474.8871" y="-279.7" font-family="Times,serif" font-size="14.00" fill="#000000">External:</text>
<text text-anchor="start" x="474.8871" y="-262.9" font-family="Times,serif" font-size="14.00" fill="#000000"> &#160;&#160;&#160;&#160;getEIP2771TrustedForwarder(): address</text>
<text text-anchor="start" x="474.8871" y="-246.1" font-family="Times,serif" font-size="14.00" fill="#000000"> &#160;&#160;&#160;&#160;getNameRegistry(): address</text>
</g>
<!-- 1&#45;&gt;3 -->
<g id="edge4" class="edge">
<title>1&#45;&gt;3</title>
<path fill="none" stroke="#000000" stroke-dasharray="5,2" d="M572.2298,-159.03C574.9571,-174.8627 577.844,-191.6218 580.6396,-207.8512"/>
<polygon fill="none" stroke="#000000" points="570.316,-209.7737 585.7564,-237.5558 591.0112,-206.2087 570.316,-209.7737"/>
</g>
<!-- 4 -->
<g id="node5" class="node">
<title>4</title>
<polygon fill="#f2f2f2" stroke="#000000" points="781.5751,-237.9 781.5751,-362.7 965.5541,-362.7 965.5541,-237.9 781.5751,-237.9"/>
<text text-anchor="middle" x="873.5646" y="-346.1" font-family="Times,serif" font-size="14.00" fill="#000000">&lt;&lt;Library&gt;&gt;</text>
<text text-anchor="middle" x="873.5646" y="-329.3" font-family="Times,serif" font-size="14.00" fill="#000000">LibEIP2771RecipientStorage</text>
<polyline fill="none" stroke="#000000" points="781.5751,-321.1 965.5541,-321.1 "/>
<text text-anchor="start" x="789.5751" y="-304.5" font-family="Times,serif" font-size="14.00" fill="#000000">Internal:</text>
<text text-anchor="start" x="789.5751" y="-287.7" font-family="Times,serif" font-size="14.00" fill="#000000"> &#160;&#160;STORAGE_SLOT: bytes32</text>
<polyline fill="none" stroke="#000000" points="781.5751,-279.5 965.5541,-279.5 "/>
<text text-anchor="start" x="789.5751" y="-262.9" font-family="Times,serif" font-size="14.00" fill="#000000">Internal:</text>
<text text-anchor="start" x="789.5751" y="-246.1" font-family="Times,serif" font-size="14.00" fill="#000000"> &#160;&#160;&#160;layout(): (l: Layout)</text>
</g>
<!-- 1&#45;&gt;4 -->
<g id="edge6" class="edge">
<title>1&#45;&gt;4</title>
<path fill="none" stroke="#000000" stroke-dasharray="5,2" d="M682.6272,-159.1937C700.5276,-171.1263 718.6164,-183.4418 735.5646,-195.4 751.6881,-206.7764 768.6056,-219.2069 784.8524,-231.4053"/>
<polygon fill="#000000" stroke="#000000" points="783.187,-234.5328 793.2795,-237.7562 787.4,-228.9425 783.187,-234.5328"/>
</g>
<!-- 5 -->
<g id="node7" class="node">
<title>5</title>
<polygon fill="#f2f2f2" stroke="#000000" points="983.5751,-237.9 983.5751,-362.7 1167.5541,-362.7 1167.5541,-237.9 983.5751,-237.9"/>
<text text-anchor="middle" x="1075.5646" y="-346.1" font-family="Times,serif" font-size="14.00" fill="#000000">&lt;&lt;Library&gt;&gt;</text>
<text text-anchor="middle" x="1075.5646" y="-329.3" font-family="Times,serif" font-size="14.00" fill="#000000">LibNameRegistryStorage</text>
<polyline fill="none" stroke="#000000" points="983.5751,-321.1 1167.5541,-321.1 "/>
<text text-anchor="start" x="991.5751" y="-304.5" font-family="Times,serif" font-size="14.00" fill="#000000">Internal:</text>
<text text-anchor="start" x="991.5751" y="-287.7" font-family="Times,serif" font-size="14.00" fill="#000000"> &#160;&#160;STORAGE_SLOT: bytes32</text>
<polyline fill="none" stroke="#000000" points="983.5751,-279.5 1167.5541,-279.5 "/>
<text text-anchor="start" x="991.5751" y="-262.9" font-family="Times,serif" font-size="14.00" fill="#000000">Internal:</text>
<text text-anchor="start" x="991.5751" y="-246.1" font-family="Times,serif" font-size="14.00" fill="#000000"> &#160;&#160;&#160;layout(): (l: Layout)</text>
</g>
<!-- 1&#45;&gt;5 -->
<g id="edge7" class="edge">
<title>1&#45;&gt;5</title>
<path fill="none" stroke="#000000" stroke-dasharray="5,2" d="M774.8168,-156.9964C777.7467,-157.8161 780.6637,-158.6179 783.5646,-159.4 866.9697,-181.8882 898.5627,-154.341 974.5646,-195.4 991.0799,-204.3222 1006.5114,-216.8932 1020.0985,-230.246"/>
<polygon fill="#000000" stroke="#000000" points="1017.9459,-233.0489 1027.4523,-237.7265 1022.9378,-228.1416 1017.9459,-233.0489"/>
</g>
<!-- 4struct0 -->
<g id="node6" class="node">
<title>4struct0</title>
<polygon fill="#f2f2f2" stroke="#000000" points="792.6792,-46.5 792.6792,-112.9 954.45,-112.9 954.45,-46.5 792.6792,-46.5"/>
<text text-anchor="middle" x="873.5646" y="-96.3" font-family="Times,serif" font-size="14.00" fill="#000000">&lt;&lt;struct&gt;&gt;</text>
<text text-anchor="middle" x="873.5646" y="-79.5" font-family="Times,serif" font-size="14.00" fill="#000000">Layout</text>
<polyline fill="none" stroke="#000000" points="792.6792,-71.3 954.45,-71.3 "/>
<text text-anchor="start" x="800.6792" y="-54.7" font-family="Times,serif" font-size="14.00" fill="#000000">trustedForwarder: address</text>
</g>
<!-- 4struct0&#45;&gt;4 -->
<g id="edge1" class="edge">
<title>4struct0&#45;&gt;4</title>
<path fill="none" stroke="#000000" d="M873.5646,-113.2044C873.5646,-142.8961 873.5646,-187.327 873.5646,-225.4408"/>
<polygon fill="#000000" stroke="#000000" points="873.5647,-225.5667 877.5646,-231.5668 873.5646,-237.5667 869.5646,-231.5667 873.5647,-225.5667"/>
</g>
<!-- 5struct0 -->
<g id="node8" class="node">
<title>5struct0</title>
<polygon fill="#f2f2f2" stroke="#000000" points="1004.0011,-46.5 1004.0011,-112.9 1147.1281,-112.9 1147.1281,-46.5 1004.0011,-46.5"/>
<text text-anchor="middle" x="1075.5646" y="-96.3" font-family="Times,serif" font-size="14.00" fill="#000000">&lt;&lt;struct&gt;&gt;</text>
<text text-anchor="middle" x="1075.5646" y="-79.5" font-family="Times,serif" font-size="14.00" fill="#000000">Layout</text>
<polyline fill="none" stroke="#000000" points="1004.0011,-71.3 1147.1281,-71.3 "/>
<text text-anchor="start" x="1012.0011" y="-54.7" font-family="Times,serif" font-size="14.00" fill="#000000">nameRegistry: address</text>
</g>
<!-- 5struct0&#45;&gt;5 -->
<g id="edge2" class="edge">
<title>5struct0&#45;&gt;5</title>
<path fill="none" stroke="#000000" d="M1075.5646,-113.2044C1075.5646,-142.8961 1075.5646,-187.327 1075.5646,-225.4408"/>
<polygon fill="#000000" stroke="#000000" points="1075.5647,-225.5667 1079.5646,-231.5668 1075.5646,-237.5667 1071.5646,-231.5667 1075.5647,-225.5667"/>
</g>
</g>
</svg>
